<svg width="17" height="18" viewBox="0 0 17 18" fill="none" xmlns="http://www.w3.org/2000/svg">
<path d="M3.18701 18C2.63701 18 2.16618 17.8042 1.77451 17.4125C1.38285 17.0208 1.18701 16.55 1.18701 16V3C0.903678 3 0.666178 2.90417 0.474512 2.7125C0.282845 2.52083 0.187012 2.28333 0.187012 2C0.187012 1.71667 0.282845 1.47917 0.474512 1.2875C0.666178 1.09583 0.903678 1 1.18701 1H5.18701C5.18701 0.716667 5.28285 0.479167 5.47451 0.2875C5.66618 0.0958333 5.90368 0 6.18701 0H10.187C10.4703 0 10.7078 0.0958333 10.8995 0.2875C11.0912 0.479167 11.187 0.716667 11.187 1H15.187C15.4703 1 15.7078 1.09583 15.8995 1.2875C16.0912 1.47917 16.187 1.71667 16.187 2C16.187 2.28333 16.0912 2.52083 15.8995 2.7125C15.7078 2.90417 15.4703 3 15.187 3V16C15.187 16.55 14.9912 17.0208 14.5995 17.4125C14.2078 17.8042 13.737 18 13.187 18H3.18701ZM5.18701 14H7.18701V5H5.18701V14ZM9.18701 14H11.187V5H9.18701V14Z" fill="#FF525C"/>
</svg>
