<svg width="183" height="27" viewBox="0 0 183 27" fill="none" xmlns="http://www.w3.org/2000/svg">
<path d="M179.135 26.6922L175.46 20.2021H173.885V26.6922H170.545V10.0374H176.796C178.085 10.0374 179.183 10.2681 180.089 10.7294C180.996 11.1748 181.672 11.7872 182.117 12.5667C182.579 13.3302 182.809 14.1892 182.809 15.1436C182.809 16.2412 182.491 17.2354 181.855 18.1262C181.219 19.0011 180.272 19.6056 179.015 19.9396L183 26.6922H179.135ZM173.885 17.6967H176.677C177.584 17.6967 178.26 17.482 178.705 17.0525C179.151 16.6071 179.373 15.9946 179.373 15.2152C179.373 14.4516 179.151 13.8631 178.705 13.4495C178.26 13.02 177.584 12.8053 176.677 12.8053H173.885V17.6967Z" fill="#6DACE4"/>
<path d="M161.186 12.7337V16.9093H166.793V19.5578H161.186V23.9721H167.509V26.6922H157.846V10.0135H167.509V12.7337H161.186Z" fill="#6DACE4"/>
<path d="M146.564 10.0374C148.314 10.0374 149.849 10.3794 151.169 11.0634C152.506 11.7474 153.532 12.7257 154.247 13.9983C154.979 15.255 155.345 16.7184 155.345 18.3887C155.345 20.0589 154.979 21.5224 154.247 22.779C153.532 24.0198 152.506 24.9822 151.169 25.6662C149.849 26.3502 148.314 26.6922 146.564 26.6922H140.742V10.0374H146.564ZM146.445 23.8528C148.195 23.8528 149.547 23.3756 150.501 22.4211C151.456 21.4667 151.933 20.1225 151.933 18.3887C151.933 16.6548 151.456 15.3027 150.501 14.3323C149.547 13.3461 148.195 12.853 146.445 12.853H144.083V23.8528H146.445Z" fill="#6DACE4"/>
<path d="M133.131 24.0437H138.619V26.6922H129.791V10.0374H133.131V24.0437Z" fill="#6DACE4"/>
<path d="M126.49 10.0374V26.6922H123.149V10.0374H126.49Z" fill="#6DACE4"/>
<path d="M109.805 10.0374V20.3452C109.805 21.4747 110.1 22.3416 110.688 22.9461C111.277 23.5346 112.104 23.8289 113.17 23.8289C114.251 23.8289 115.087 23.5346 115.675 22.9461C116.264 22.3416 116.558 21.4747 116.558 20.3452V10.0374H119.922V20.3214C119.922 21.7371 119.612 22.9381 118.992 23.9244C118.387 24.8947 117.568 25.6264 116.534 26.1195C115.516 26.6127 114.379 26.8592 113.122 26.8592C111.881 26.8592 110.752 26.6127 109.734 26.1195C108.732 25.6264 107.936 24.8947 107.348 23.9244C106.759 22.9381 106.465 21.7371 106.465 20.3214V10.0374H109.805Z" fill="#6DACE4"/>
<path d="M100.629 18.1501C101.567 18.325 102.339 18.7943 102.943 19.5578C103.547 20.3214 103.85 21.1963 103.85 22.1825C103.85 23.0733 103.627 23.8607 103.182 24.5447C102.752 25.2128 102.124 25.7378 101.297 26.1195C100.469 26.5013 99.4912 26.6922 98.3618 26.6922H91.1797V10.0374H98.0516C99.181 10.0374 100.151 10.2203 100.963 10.5862C101.79 10.9521 102.41 11.4611 102.824 12.1133C103.253 12.7655 103.468 13.5052 103.468 14.3323C103.468 15.3027 103.205 16.1139 102.681 16.7661C102.172 17.4183 101.488 17.8796 100.629 18.1501ZM94.5202 16.9093H97.5744C98.3697 16.9093 98.9821 16.7343 99.4116 16.3844C99.8411 16.0185 100.056 15.5015 100.056 14.8334C100.056 14.1653 99.8411 13.6483 99.4116 13.2825C98.9821 12.9166 98.3697 12.7337 97.5744 12.7337H94.5202V16.9093ZM97.8845 23.9721C98.6958 23.9721 99.3241 23.7812 99.7695 23.3994C100.231 23.0176 100.462 22.4768 100.462 21.7769C100.462 21.0611 100.223 20.5043 99.7457 20.1066C99.2685 19.693 98.6242 19.4863 97.813 19.4863H94.5202V23.9721H97.8845Z" fill="#6DACE4"/>
<path d="M76.1354 12.7337V16.9093H81.7427V19.5578H76.1354V23.9721H82.4585V26.6922H72.7949V10.0135H82.4585V12.7337H76.1354Z" fill="#6DACE4"/>
<path d="M65.1838 24.0437H70.6717V26.6922H61.8433V10.0374H65.1838V24.0437Z" fill="#6DACE4"/>
<path d="M59.4718 15.1913C59.4718 16.0821 59.257 16.9173 58.8275 17.6967C58.4139 18.4762 57.7538 19.1045 56.8471 19.5817C55.9563 20.0589 54.8269 20.2975 53.4589 20.2975H50.6672V26.6922H47.3267V10.0374H53.4589C54.7473 10.0374 55.8449 10.2601 56.7516 10.7055C57.6583 11.1509 58.3344 11.7633 58.7798 12.5428C59.2411 13.3222 59.4718 14.2051 59.4718 15.1913ZM53.3157 17.6013C54.2383 17.6013 54.9223 17.3945 55.3677 16.9809C55.8131 16.5514 56.0358 15.9549 56.0358 15.1913C56.0358 13.5688 55.1291 12.7575 53.3157 12.7575H50.6672V17.6013H53.3157Z" fill="#6DACE4"/>
<path d="M36.3229 26.8592C34.764 26.8592 33.3324 26.4933 32.028 25.7616C30.7236 25.0299 29.6896 24.0198 28.9261 22.7313C28.1625 21.4269 27.7808 19.9555 27.7808 18.317C27.7808 16.6945 28.1625 15.239 28.9261 13.9505C29.6896 12.6461 30.7236 11.6281 32.028 10.8964C33.3324 10.1646 34.764 9.79877 36.3229 9.79877C37.8977 9.79877 39.3293 10.1646 40.6178 10.8964C41.9222 11.6281 42.9482 12.6461 43.6959 13.9505C44.4594 15.239 44.8412 16.6945 44.8412 18.317C44.8412 19.9555 44.4594 21.4269 43.6959 22.7313C42.9482 24.0198 41.9222 25.0299 40.6178 25.7616C39.3134 26.4933 37.8818 26.8592 36.3229 26.8592ZM36.3229 23.8766C37.325 23.8766 38.2079 23.6539 38.9714 23.2085C39.735 22.7472 40.3315 22.095 40.761 21.2519C41.1905 20.4088 41.4052 19.4305 41.4052 18.317C41.4052 17.2035 41.1905 16.2332 40.761 15.406C40.3315 14.563 39.735 13.9187 38.9714 13.4733C38.2079 13.0279 37.325 12.8052 36.3229 12.8052C35.3207 12.8052 34.4299 13.0279 33.6505 13.4733C32.887 13.9187 32.2904 14.563 31.8609 15.406C31.4315 16.2332 31.2167 17.2035 31.2167 18.317C31.2167 19.4305 31.4315 20.4088 31.8609 21.2519C32.2904 22.095 32.887 22.7472 33.6505 23.2085C34.4299 23.6539 35.3207 23.8766 36.3229 23.8766Z" fill="#6DACE4"/>
<path d="M19.2333 12.7337V16.9093H24.8406V19.5578H19.2333V23.9721H25.5564V26.6922H15.8928V10.0135H25.5564V12.7337H19.2333Z" fill="#6DACE4"/>
<path d="M13.5211 15.1913C13.5211 16.0821 13.3063 16.9173 12.8768 17.6967C12.4633 18.4762 11.8031 19.1045 10.8964 19.5817C10.0056 20.0589 8.87619 20.2975 7.50818 20.2975H4.71648V26.6922H1.37598V10.0374H7.50818C8.79666 10.0374 9.89425 10.2601 10.801 10.7055C11.7077 11.1509 12.3837 11.7633 12.8291 12.5428C13.2904 13.3222 13.5211 14.2051 13.5211 15.1913ZM7.36502 17.6013C8.28763 17.6013 8.97164 17.3945 9.41704 16.9809C9.86244 16.5514 10.0851 15.9549 10.0851 15.1913C10.0851 13.5688 9.17843 12.7575 7.36502 12.7575H4.71648V17.6013H7.36502Z" fill="#6DACE4"/>
<path d="M76.6012 5.02667H78.5419V5.61523H75.8774V0.0715942H76.6012V5.02667Z" fill="#6D757E"/>
<path d="M73.7953 4.38241H71.3774L70.932 5.61522H70.1685L72.1728 0.103394H73.0079L75.0042 5.61522H74.2407L73.7953 4.38241ZM73.5885 3.79385L72.5863 0.994193L71.5842 3.79385H73.5885Z" fill="#6D757E"/>
<path d="M69.2843 5.61519H68.5606L65.6496 1.20096V5.61519H64.9258V0.0635986H65.6496L68.5606 4.46988V0.0635986H69.2843V5.61519Z" fill="#6D757E"/>
<path d="M61.1866 5.67094C60.6723 5.67094 60.203 5.55164 59.7788 5.31303C59.3546 5.06912 59.0179 4.73242 58.7687 4.30292C58.5248 3.86813 58.4028 3.38031 58.4028 2.83947C58.4028 2.29862 58.5248 1.81346 58.7687 1.38396C59.0179 0.949168 59.3546 0.612467 59.7788 0.37386C60.203 0.129951 60.6723 0.00799561 61.1866 0.00799561C61.7062 0.00799561 62.1781 0.129951 62.6023 0.37386C63.0265 0.612467 63.3606 0.946517 63.6045 1.37601C63.8484 1.8055 63.9703 2.29332 63.9703 2.83947C63.9703 3.38561 63.8484 3.87343 63.6045 4.30292C63.3606 4.73242 63.0265 5.06912 62.6023 5.31303C62.1781 5.55164 61.7062 5.67094 61.1866 5.67094ZM61.1866 5.04261C61.5737 5.04261 61.921 4.95247 62.2285 4.77218C62.5413 4.5919 62.7853 4.33474 62.9602 4.00069C63.1405 3.66664 63.2306 3.27956 63.2306 2.83947C63.2306 2.39407 63.1405 2.00699 62.9602 1.67825C62.7853 1.3442 62.544 1.08703 62.2365 0.906749C61.9289 0.726468 61.579 0.636328 61.1866 0.636328C60.7942 0.636328 60.4442 0.726468 60.1367 0.906749C59.8292 1.08703 59.5853 1.3442 59.405 1.67825C59.23 2.00699 59.1425 2.39407 59.1425 2.83947C59.1425 3.27956 59.23 3.66664 59.405 4.00069C59.5853 4.33474 59.8292 4.5919 60.1367 4.77218C60.4496 4.95247 60.7995 5.04261 61.1866 5.04261Z" fill="#6D757E"/>
<path d="M57.4396 0.0715942V5.61523H56.7158V0.0715942H57.4396Z" fill="#6D757E"/>
<path d="M55.8249 0.0715942V0.660158H54.3137V5.61523H53.5899V0.660158H52.0708V0.0715942H55.8249Z" fill="#6D757E"/>
<path d="M50.3304 4.38241H47.9126L47.4672 5.61522H46.7036L48.7079 0.103394H49.543L51.5394 5.61522H50.7758L50.3304 4.38241ZM50.1236 3.79385L49.1215 0.994193L48.1193 3.79385H50.1236Z" fill="#6D757E"/>
<path d="M45.8263 0.111328V5.6152H45.1025V1.51116L43.2732 5.6152H42.7642L40.9269 1.5032V5.6152H40.2031V0.111328H40.9826L43.0187 4.66077L45.0548 0.111328H45.8263Z" fill="#6D757E"/>
<path d="M38.2832 5.61523L36.9629 3.34847H36.088V5.61523H35.3643V0.0715942H37.1538C37.5727 0.0715942 37.9253 0.143176 38.2116 0.286341C38.5033 0.429505 38.7207 0.623042 38.8638 0.866951C39.007 1.11086 39.0786 1.38924 39.0786 1.70208C39.0786 2.08385 38.9672 2.42055 38.7445 2.71218C38.5271 3.00381 38.1984 3.19735 37.7583 3.29279L39.1502 5.61523H38.2832ZM36.088 2.76786H37.1538C37.5462 2.76786 37.8405 2.67241 38.0367 2.48153C38.2328 2.28534 38.3309 2.02552 38.3309 1.70208C38.3309 1.37333 38.2328 1.11881 38.0367 0.938534C37.8458 0.758253 37.5515 0.668112 37.1538 0.668112H36.088V2.76786Z" fill="#6D757E"/>
<path d="M31.6251 5.67094C31.1107 5.67094 30.6415 5.55164 30.2173 5.31303C29.7931 5.06912 29.4564 4.73242 29.2072 4.30292C28.9633 3.86813 28.8413 3.38031 28.8413 2.83947C28.8413 2.29862 28.9633 1.81346 29.2072 1.38396C29.4564 0.949168 29.7931 0.612467 30.2173 0.37386C30.6415 0.129951 31.1107 0.00799561 31.6251 0.00799561C32.1447 0.00799561 32.6166 0.129951 33.0408 0.37386C33.465 0.612467 33.799 0.946517 34.0429 1.37601C34.2869 1.8055 34.4088 2.29332 34.4088 2.83947C34.4088 3.38561 34.2869 3.87343 34.0429 4.30292C33.799 4.73242 33.465 5.06912 33.0408 5.31303C32.6166 5.55164 32.1447 5.67094 31.6251 5.67094ZM31.6251 5.04261C32.0121 5.04261 32.3594 4.95247 32.667 4.77218C32.9798 4.5919 33.2237 4.33474 33.3987 4.00069C33.579 3.66664 33.6691 3.27956 33.6691 2.83947C33.6691 2.39407 33.579 2.00699 33.3987 1.67825C33.2237 1.3442 32.9825 1.08703 32.6749 0.906749C32.3674 0.726468 32.0174 0.636328 31.6251 0.636328C31.2327 0.636328 30.8827 0.726468 30.5752 0.906749C30.2676 1.08703 30.0237 1.3442 29.8435 1.67825C29.6685 2.00699 29.581 2.39407 29.581 2.83947C29.581 3.27956 29.6685 3.66664 29.8435 4.00069C30.0237 4.33474 30.2676 4.5919 30.5752 4.77218C30.888 4.95247 31.238 5.04261 31.6251 5.04261Z" fill="#6D757E"/>
<path d="M28.2372 0.0715942V0.660158H25.8273V2.52925H27.7839V3.11781H25.8273V5.61523H25.1035V0.0715942H28.2372Z" fill="#6D757E"/>
<path d="M22.1937 5.6709C21.8278 5.6709 21.4991 5.60727 21.2074 5.48001C20.9211 5.34745 20.6957 5.16717 20.5314 4.93917C20.367 4.70586 20.2822 4.43809 20.2769 4.13586H21.0484C21.0749 4.39567 21.1809 4.61572 21.3665 4.796C21.5574 4.97098 21.8331 5.05847 22.1937 5.05847C22.5383 5.05847 22.8087 4.97363 23.0049 4.80396C23.2064 4.62898 23.3072 4.40628 23.3072 4.13586C23.3072 3.92376 23.2488 3.75143 23.1322 3.61888C23.0155 3.48632 22.8697 3.38557 22.6947 3.31664C22.5198 3.24771 22.2838 3.17348 21.9869 3.09394C21.621 2.9985 21.3267 2.90305 21.104 2.80761C20.8866 2.71217 20.6984 2.5637 20.5393 2.36221C20.3856 2.15542 20.3087 1.87969 20.3087 1.53504C20.3087 1.2328 20.3856 0.965033 20.5393 0.731729C20.6931 0.498424 20.9078 0.318143 21.1836 0.190886C21.4646 0.0636285 21.7854 0 22.1459 0C22.6656 0 23.0898 0.129908 23.4185 0.389725C23.7526 0.649542 23.9408 0.994197 23.9832 1.42369H23.1879C23.1614 1.21159 23.05 1.02601 22.8538 0.866939C22.6576 0.702566 22.3978 0.620379 22.0744 0.620379C21.7721 0.620379 21.5256 0.699914 21.3347 0.858986C21.1438 1.01275 21.0484 1.23015 21.0484 1.51118C21.0484 1.71267 21.104 1.87704 21.2154 2.0043C21.332 2.13156 21.4725 2.22965 21.6369 2.29858C21.8066 2.36221 22.0425 2.43644 22.3448 2.52128C22.7106 2.62203 23.0049 2.72277 23.2276 2.82352C23.4503 2.91896 23.6412 3.07008 23.8003 3.27687C23.9594 3.47836 24.0389 3.75409 24.0389 4.10404C24.0389 4.37446 23.9673 4.62898 23.8241 4.86759C23.681 5.10619 23.4689 5.29973 23.1879 5.4482C22.9068 5.59666 22.5754 5.6709 22.1937 5.6709Z" fill="#6D757E"/>
<path d="M19.2018 5.61519H18.478L15.567 1.20096V5.61519H14.8433V0.0635986H15.567L18.478 4.46988V0.0635986H19.2018V5.61519Z" fill="#6D757E"/>
<path d="M12.7609 4.38241H10.343L9.89758 5.61522H9.13403L11.1383 0.103394H11.9735L13.9698 5.61522H13.2063L12.7609 4.38241ZM12.5541 3.79385L11.5519 0.994193L10.5498 3.79385H12.5541Z" fill="#6D757E"/>
<path d="M7.56398 5.61523L6.24369 3.34847H5.36879V5.61523H4.64502V0.0715942H6.43457C6.85346 0.0715942 7.20607 0.143176 7.4924 0.286341C7.78403 0.429505 8.00143 0.623042 8.14459 0.866951C8.28776 1.11086 8.35934 1.38924 8.35934 1.70208C8.35934 2.08385 8.24799 2.42055 8.02529 2.71218C7.80789 3.00381 7.47914 3.19735 7.03905 3.29279L8.43092 5.61523H7.56398ZM5.36879 2.76786H6.43457C6.82695 2.76786 7.12123 2.67241 7.31742 2.48153C7.51361 2.28534 7.6117 2.02552 7.6117 1.70208C7.6117 1.37333 7.51361 1.11881 7.31742 0.938534C7.12653 0.758253 6.83225 0.668112 6.43457 0.668112H5.36879V2.76786Z" fill="#6D757E"/>
<path d="M3.75409 0.0715942V0.660158H2.24291V5.61523H1.51913V0.660158H0V0.0715942H3.75409Z" fill="#6D757E"/>
</svg>
