<svg width="752" height="614" viewBox="0 0 752 614" fill="none" xmlns="http://www.w3.org/2000/svg">
<g clip-path="url(#clip0_46_93)">
<path d="M671.626 552.409C650.462 551.681 609.701 559.688 615.438 576.467C621.175 593.246 637.294 584.492 648.641 580.835C659.987 577.177 694.173 599.033 707.378 586.294C720.582 573.555 696.45 553.847 667.983 554.939" fill="#EDEFF4"/>
<path d="M492.118 561.162C492.118 561.162 452.049 558.96 452.358 564.802C452.668 570.644 473.886 577.923 492.118 582.309C510.349 586.694 514.738 597.613 550.399 596.157C586.061 594.701 569.742 552.482 569.742 552.482C569.742 552.482 555.517 550.298 537.268 558.669C519.018 567.04 494.576 567.059 486.563 555.03L492.118 561.162Z" fill="#EDEFF4"/>
<path d="M34.9691 561.163C34.9691 561.163 32.4192 573.555 42.6368 577.195C52.8543 580.835 72.5427 593.974 100.281 591.044C128.02 588.114 94.8173 561.163 94.8173 561.163H34.9691Z" fill="#EDEFF4"/>
<path d="M319.549 48.9795C284.944 42.1916 230.159 42.0461 238.555 56.2587C246.951 70.4713 302.301 113.491 327.216 102.19C352.132 90.8895 353.115 55.5308 319.549 48.9795Z" fill="#EDEFF4"/>
<path opacity="0.75" d="M607.042 403.313C545.118 453.794 322.918 501 184.917 404.769C46.9169 308.538 50.2864 179.477 47.7365 160.915C45.1867 142.353 51.0148 47.9058 142.954 49.0159C234.894 50.126 264.618 188.922 364.79 119.005C460.372 52.2915 488.839 59.9347 521.677 97.1678C533.37 110.416 552.731 128.741 576.772 130.343C608.135 132.417 633.324 128.887 667.983 119.042C713.534 106.03 860.987 196.62 607.042 403.313Z" fill="#EDEFF4"/>
<path d="M657.31 298.893L667.856 288.92L689.074 298.893L685.376 399.928H667.746L657.31 298.893Z" fill="#EBEFF7"/>
<path d="M644.051 566.986C642.718 567.661 641.274 568.093 639.789 568.26L622.56 564.129C628.206 562.418 632.686 559.579 634.07 557.486C634.912 555.459 635.375 553.294 635.436 551.099C635.655 548.697 635.709 546.604 635.709 546.604L644.98 545.203C644.98 545.203 644.98 547.732 644.98 551.063C645.107 557.304 644.998 566.385 644.051 566.986Z" fill="#24246B"/>
<path d="M645.089 551.063C641.898 551.496 638.663 551.496 635.473 551.063C635.691 548.66 635.746 546.568 635.746 546.568L645.016 545.166C645.016 545.166 645.071 547.732 645.089 551.063Z" fill="url(#paint0_linear_46_93)"/>
<path d="M705.538 567.459C705.538 567.459 693.026 571.626 690.239 571.099C687.453 570.571 689.31 564.001 689.784 560.289C689.926 557.388 689.859 554.481 689.584 551.59C689.347 548.187 689.037 545.221 689.037 545.221H698.545C698.545 545.221 698.69 548.187 698.891 551.263C699.054 553.81 699.273 556.449 699.473 557.505C699.983 559.798 705.538 567.459 705.538 567.459Z" fill="#24246B"/>
<path d="M698.927 551.245C696.432 551.427 693.226 551.518 689.62 551.572C689.383 548.169 689.074 545.203 689.074 545.203H698.581C698.581 545.203 698.69 548.169 698.927 551.245Z" fill="url(#paint1_linear_46_93)"/>
<path d="M701.604 391.812V473.339C701.604 479.817 700.22 547.496 700.22 547.496H688.618C688.618 547.496 681.661 486.551 681.333 475.887C681.005 465.223 676.47 418.181 676.47 418.181L676.361 418.527L661.39 469.172C659.239 477.321 657.614 485.6 656.527 493.957C654.433 509.025 645.599 547.496 645.599 547.496H633.997L639.115 472.411L647.22 390.847C662.19 392.75 677.302 393.292 692.37 392.467C695.521 392.321 698.563 392.103 701.604 391.812Z" fill="url(#paint2_linear_46_93)"/>
<path d="M639.917 568.387C639.917 568.387 634.179 560.726 626.366 562.819C618.553 564.911 620.392 567.677 621.776 568.387C627.719 569.976 633.974 569.976 639.917 568.387Z" fill="#3535AA"/>
<path d="M705.083 570.462C703.262 570.844 689.547 571.626 688.855 570.462C688.163 569.297 689.311 565.603 693.263 564.911C697.215 564.22 705.083 566.731 706.249 567.914C707.414 569.097 706.249 570.225 705.083 570.462Z" fill="#3535AA"/>
<path d="M701.604 391.812V473.339C701.604 479.817 700.22 547.496 700.22 547.496H697.16C698.058 534.837 697.991 522.129 696.96 509.48C695.139 488.17 693.955 480.363 696.96 455.032C699.364 434.868 694.538 404.077 692.48 392.467C695.521 392.321 698.563 392.103 701.604 391.812Z" fill="url(#paint3_linear_46_93)"/>
<path d="M676.452 418.563L661.481 469.208C659.33 477.357 657.705 485.636 656.618 493.994C654.524 509.062 645.69 547.532 645.69 547.532H642.048C645.503 535.061 648.047 522.356 649.661 509.517C651.937 493.557 648.841 492.465 653.595 469.208C655.908 457.852 663.794 447.188 666.125 433.74C667.754 423.389 670.395 413.222 674.012 403.386L676.452 418.563Z" fill="url(#paint4_linear_46_93)"/>
<path d="M721.548 422.621C721.548 422.621 723.169 437.689 722.713 438.617C722.258 439.545 709.054 444.258 707.396 439.764C705.083 433.522 707.396 399.218 707.396 399.218C707.396 399.218 707.178 387.408 709.727 387.863C712.277 388.318 721.548 422.621 721.548 422.621Z" fill="#152C68"/>
<path d="M709.254 410.119C709.254 410.119 707.87 393.886 709.254 391.812C710.638 389.737 712.496 389.992 715.282 402.458C718.069 414.923 718.524 424.714 720.382 425.642C721.939 426.278 723.586 426.665 725.263 426.788C725.263 426.788 714.135 382.531 711.112 382.531C708.088 382.531 704.391 386.007 705.083 409.191C705.083 409.191 705.775 417.762 709.254 410.119Z" fill="#192EAD"/>
<path d="M678.874 272.233L678.601 280.331L678.419 285.699L678.182 293.088C669.076 306.299 662.647 293.088 662.647 293.088L661.736 284.589L661.426 281.823L661.244 280.112L678.874 272.233Z" fill="url(#paint5_linear_46_93)"/>
<path d="M678.656 280.331L678.474 285.699C676.179 288.593 673.174 291.705 670.806 291.705C667.728 291.705 663.83 287.246 661.79 284.589L661.481 281.823C665.652 279.257 673.975 279.785 678.656 280.331Z" fill="#4463C6"/>
<path d="M654.068 265.481C654.068 265.481 651.883 257.456 652.757 253.562C652.835 253.072 653.031 252.608 653.328 252.211C653.626 251.814 654.015 251.495 654.464 251.282C654.912 251.069 655.405 250.968 655.901 250.988C656.397 251.008 656.881 251.148 657.31 251.396C656.764 250.315 656.555 249.096 656.711 247.895C656.867 246.694 657.38 245.568 658.184 244.663C661.007 241.423 672.5 239.895 679.239 242.716C685.978 245.536 681.843 251.614 681.843 251.614C681.843 251.614 690.312 249.431 684.448 264.353L671.425 269.812L654.068 265.681V265.481Z" fill="#192EAD"/>
<path d="M657.966 265.263C657.966 265.263 654.706 261.805 653.631 263.971C652.557 266.136 654.924 274.162 660.133 273.725L657.966 265.263Z" fill="url(#paint6_linear_46_93)"/>
<path d="M680.714 265.263C680.714 265.263 683.974 261.805 685.049 263.971C686.123 266.136 683.756 274.162 678.547 273.725L680.714 265.263Z" fill="url(#paint7_linear_46_93)"/>
<path d="M681.406 264.408C681.406 264.899 680.532 278.766 679.894 281.314C678.575 284.384 676.215 286.89 673.228 288.393C672.599 288.704 671.909 288.878 671.207 288.902C668.528 288.715 666.013 287.549 664.14 285.626C663.101 284.679 662.194 283.595 661.445 282.405C659.623 279.585 657.31 264.408 657.31 264.408C658.81 262.09 659.625 259.397 659.66 256.637C659.66 256.018 659.66 255.345 659.66 254.635C659.66 254.635 671.389 250.086 679.202 254.854V254.963C679.17 258.242 679.926 261.481 681.406 264.408Z" fill="url(#paint8_linear_46_93)"/>
<path d="M681.406 264.408C681.406 264.899 680.532 278.766 679.894 281.314C678.575 284.384 676.215 286.89 673.228 288.393C678.966 284.535 681.333 264.917 681.406 264.408Z" fill="#4864D8"/>
<path d="M679.239 254.854V254.963C671.188 253.143 662.574 255.654 659.66 256.673C659.66 256.036 659.66 255.363 659.66 254.653C659.696 254.635 671.371 250.086 679.239 254.854Z" fill="#4864D8"/>
<path d="M671.462 394.578C667.588 394.645 663.716 394.413 659.878 393.886C655.745 393.385 651.689 392.377 647.803 390.884L645.472 331.795C645.472 331.795 641.829 343.66 640.682 348.719C640.5 349.397 640.396 350.093 640.372 350.794C640.609 352.613 643.395 365.625 643.395 365.625L629.936 370.72C629.936 370.72 623.215 357.509 623.215 353.105C623.215 348.701 632.959 306.299 635.035 303.06C637.112 299.821 662.647 293.179 662.647 293.179L671.462 394.578Z" fill="url(#paint9_linear_46_93)"/>
<path d="M701.55 352.395C701.675 351.325 701.675 350.244 701.55 349.174C701.076 346.845 697.907 336.89 697.907 336.89C698.381 342.441 701.55 395.743 701.55 395.743C698.472 395.834 694.902 395.743 691.624 395.488C685.959 395.142 681.133 394.578 681.133 394.578L678.656 293.179C688.23 294.274 697.558 296.936 706.267 301.058C707.651 301.986 717.395 347.627 717.395 349.483C717.395 351.339 713.443 364.788 713.443 364.788L700.348 361.148H700.238C700.238 361.148 700.238 361.021 700.238 360.766C700.457 359.565 701.149 355.762 701.459 352.759V352.559L701.55 352.395Z" fill="url(#paint10_linear_46_93)"/>
<path d="M659.878 393.886C655.745 393.385 651.689 392.377 647.803 390.884L645.472 331.795C645.472 331.795 641.829 343.66 640.682 348.719L637.585 357.818L647.329 314.252C650.214 326.068 651.155 338.275 650.116 350.393C648.859 366.553 659.641 378.964 659.878 393.886Z" fill="url(#paint11_linear_46_93)"/>
<path d="M697.889 336.854C698.362 342.404 701.531 395.706 701.531 395.706C698.453 395.797 694.884 395.706 691.605 395.451C697.379 384.005 695.503 360.529 693.645 349.137C691.551 336.399 693.645 311.122 693.645 311.122C693.645 311.122 702.224 343.332 702.224 344.497C702.224 345.662 701.604 351.23 701.477 352.359C701.602 351.288 701.602 350.208 701.477 349.137C701.131 346.845 697.889 336.854 697.889 336.854Z" fill="url(#paint12_linear_46_93)"/>
<path d="M655.452 400.838C655.147 401.781 654.637 402.645 653.959 403.368C652.676 404.745 651.135 405.858 649.424 406.643C642.922 396.434 629.936 370.72 629.936 370.72L639.042 367.226L643.304 365.625C643.869 366.917 645.963 374.724 648.641 383.222C651.318 391.721 655.452 400.838 655.452 400.838Z" fill="url(#paint13_linear_46_93)"/>
<path d="M655.452 400.838C655.147 401.781 654.637 402.645 653.959 403.368C652.138 395.015 647.985 392.449 645.708 383.004C644.34 377.439 642.122 372.117 639.133 367.226L643.395 365.625C643.96 366.917 646.054 374.724 648.732 383.222C651.409 391.721 655.452 400.838 655.452 400.838Z" fill="#4864D8"/>
<path d="M645.472 369.792C645.472 369.792 631.338 374.888 630.628 375.361C629.918 375.834 626.002 367.936 626.002 367.936L644.324 361.458C644.324 361.458 646.492 368.264 645.472 369.792Z" fill="#FCA229"/>
<path d="M689.074 294.252C689.074 294.252 686.287 362.64 705.192 379.656L702.333 385.988C702.333 385.988 680.313 363.969 683.792 293.761C683.756 293.779 685.595 292.633 689.074 294.252Z" fill="#192EAD"/>
<path d="M710.419 403.622C710.875 405.005 711.348 412.885 709.254 413.813C706.981 414.383 704.625 414.543 702.296 414.286C702.296 414.286 710.183 422.858 709.017 423.094C707.851 423.331 700.675 417.071 700.22 415.669C699.765 414.268 696.741 402.694 696.96 396.671C697.179 390.647 700.22 360.529 700.22 360.529L708.361 363.095L713.425 364.697C711.931 369.355 703.917 397.126 703.917 397.126V397.235C705.538 401.02 708.034 410.119 708.034 410.119C708.034 410.119 709.946 402.239 710.419 403.622Z" fill="url(#paint14_linear_46_93)"/>
<path d="M703.917 397.126V397.235L701.55 399.91C704.336 392.74 702.934 385.079 706.194 376.253C707.758 372.042 708.476 367.565 708.307 363.077L713.37 364.679C711.931 369.356 703.917 397.126 703.917 397.126Z" fill="#4864D8"/>
<path d="M698.362 358.892L716.685 364.005C715.755 366.463 714.666 368.858 713.425 371.175C708.39 370.217 703.43 368.903 698.581 367.245C698.362 366.771 698.362 358.892 698.362 358.892Z" fill="#FCA229"/>
<path d="M491.954 560.962C491.872 562.112 491.633 563.245 491.243 564.329C491.243 564.329 467.329 565.02 458.733 564.329C450.136 563.637 454.781 554.811 458.041 552.955C458.444 552.734 458.881 552.58 459.334 552.5C462.886 551.863 468.641 554.466 471.519 553.647C474.857 552.285 478.043 550.577 481.026 548.551L490.606 549.498C491.663 553.223 492.118 557.093 491.954 560.962Z" fill="#24246B"/>
<path d="M491.954 560.962C491.872 562.112 491.633 563.244 491.243 564.329C491.243 564.329 467.329 565.02 458.733 564.329C450.136 563.637 454.781 554.811 458.041 552.955C458.444 552.734 458.881 552.58 459.334 552.5C461.155 552.992 463.304 555.375 465.016 562C465.016 562 483.029 562.618 491.954 560.962Z" fill="#EBF0F2"/>
<path d="M564.296 568.933C564.296 568.933 549.197 569.17 547.121 568.933C545.409 568.751 546.793 564.056 548.633 560.962C548.991 560.312 549.418 559.701 549.908 559.143C550.655 558.395 551.571 557.839 552.58 557.522C553.588 557.206 554.659 557.137 555.699 557.323C555.699 557.323 558.049 550.044 555.699 545.348L565.443 540.835C566.886 543.866 568.104 546.998 569.086 550.207C569.314 551.02 569.49 551.847 569.614 552.682C570.343 557.341 564.296 568.933 564.296 568.933Z" fill="#24246B"/>
<path d="M564.296 568.933C564.296 568.933 549.197 569.17 547.121 568.933C545.409 568.751 546.793 564.056 548.633 560.962C555.736 551.354 563.367 563.838 563.367 563.838C566.318 560.198 568.23 553.738 569.104 550.226C569.332 551.039 569.508 551.865 569.632 552.7C570.343 557.341 564.296 568.933 564.296 568.933Z" fill="#EBF0F2"/>
<path d="M497.654 464.549C497.418 468.298 497.035 472.556 496.434 476.978C494.613 490.445 490.424 549.243 490.424 549.243C488.768 550.424 486.785 551.059 484.75 551.059C482.716 551.059 480.732 550.424 479.077 549.243L475.525 466.642L475.234 459.599L497.982 451.501C497.982 451.501 498.128 456.961 497.654 464.549Z" fill="url(#paint15_linear_46_93)"/>
<path d="M565.425 540.799C564.26 544.984 555.845 545.476 555.845 545.476C555.845 545.476 515.776 469.809 513.554 465.405C512.819 463.968 512.181 462.485 511.642 460.964C510.203 456.997 509.128 452.866 509.128 452.866L510.531 453.321L536.029 440.801L536.193 458.744V464.094C540.674 472.212 544.194 480.823 546.684 489.753C550.472 503.675 565.425 540.799 565.425 540.799Z" fill="url(#paint16_linear_46_93)"/>
<path d="M497.982 451.501C497.982 451.501 498.128 456.961 497.654 464.586L475.525 466.678L475.234 459.636L497.982 451.501Z" fill="url(#paint17_linear_46_93)"/>
<path d="M536.23 458.78L511.642 461.001C510.203 457.033 509.128 452.903 509.128 452.903L510.531 453.357L536.029 440.837L536.23 458.78Z" fill="url(#paint18_linear_46_93)"/>
<path d="M465.126 365.261C465.126 365.261 460.955 370.138 460.245 370.611C459.534 371.084 447.951 372.303 447.495 372.995C447.04 373.687 455.181 375.07 455.181 375.07C455.181 375.07 448.898 379.219 448.661 380.365C448.424 381.512 450.173 393.104 454.125 392.631C458.077 392.158 466.419 376.908 466.419 376.908L470.626 372.304L465.126 365.261Z" fill="url(#paint19_linear_46_93)"/>
<path d="M482.191 365.843L469.661 374.669L462.23 365.843C462.23 365.843 479.642 345.825 480.807 343.805C482.122 340.834 483.283 337.797 484.286 334.706L482.191 365.843Z" fill="url(#paint20_linear_46_93)"/>
<path d="M519.801 296.545C519.801 296.545 529.8 299.712 533.061 300.64C541.53 303.078 542.695 307.264 543.278 316.417C543.861 325.571 527.943 374.651 527.943 374.651L480.133 373.505C480.133 373.505 482.228 352.85 482.465 348.027C482.701 343.205 479.441 310.685 480.133 307.883C480.825 305.08 488.675 299.057 497.636 297.091L519.801 296.545Z" fill="url(#paint21_linear_46_93)"/>
<path d="M524.792 315.617C524.792 315.617 524.118 340.912 522.479 345.316C520.839 349.72 514.356 370.793 514.356 370.793L528.817 371.903L538.288 345.28L524.792 315.617Z" fill="url(#paint22_linear_46_93)"/>
<path d="M523.062 268.848C524.897 265.108 525.624 260.922 525.156 256.783C525.156 256.783 530.274 251.451 520.985 246.119C511.697 240.787 500.313 242.479 496.598 244.717C492.882 246.956 494.267 251.906 494.267 251.906C494.267 251.906 488.693 261.896 496.816 269.558L519.583 272.797L523.062 268.848Z" fill="#192EAD"/>
<path d="M500.35 296.127L494.503 298.092L502.626 345.443L522.606 297.164L517.27 296.017L500.35 296.127Z" fill="url(#paint23_linear_46_93)"/>
<path d="M508.2 300.658L502.535 344.879L509.602 300.658H508.2Z" fill="#D0D1D8"/>
<path d="M521.914 276.509C521.681 276.674 521.411 276.782 521.129 276.824C520.846 276.866 520.557 276.841 520.285 276.751C520.014 276.66 519.768 276.507 519.567 276.304C519.365 276.101 519.215 275.853 519.127 275.581C517.962 281.386 517.306 293.688 517.306 293.688C517.306 293.688 512.88 300.967 509.165 300.64C505.449 300.312 502.426 295.308 502.426 295.308L502.845 293.342L503.592 289.703C502.48 290.151 501.251 290.221 500.095 289.903C499.465 289.771 498.853 289.563 498.273 289.284C497.84 289.061 497.42 288.812 497.017 288.538C494.139 286.555 495.851 268.211 496.725 260.386C496.962 258.22 497.144 256.874 497.144 256.874C498.182 258.602 500.277 259.294 506.779 258.839C510.199 258.483 513.655 258.717 516.996 259.531C516.996 259.531 516.996 259.676 516.996 259.749C516.072 263.845 516.337 268.119 517.761 272.069C517.761 272.069 519.856 266.264 522.406 266.5C524.956 266.737 523.845 275.345 521.914 276.509Z" fill="url(#paint24_linear_46_93)"/>
<path d="M517.033 259.567C517.033 259.567 517.033 259.712 517.033 259.785C512.542 259.857 508.062 260.252 503.628 260.968C501.359 261.446 498.999 261.256 496.835 260.422C497.071 258.257 497.254 256.91 497.254 256.91C498.292 258.639 500.386 259.33 506.888 258.875C510.285 258.528 513.715 258.762 517.033 259.567Z" fill="#4864D8"/>
<path d="M511.46 284.626C511.46 284.626 509.22 292.378 502.809 293.342L503.555 289.703C502.443 290.151 501.214 290.221 500.058 289.903C502.153 290.303 506.05 289.885 511.46 284.626Z" fill="#4864D8"/>
<path d="M502.863 293.452C501.66 294.262 500.698 295.381 500.077 296.691C499.385 298.511 505.65 307.828 505.65 307.828L508.2 300.549C506.85 299.821 505.674 298.81 504.753 297.585C503.832 296.359 503.187 294.949 502.863 293.452Z" fill="#A7B3C6"/>
<path d="M517.27 293.452C518.193 294.415 518.825 295.62 519.091 296.927C519.31 298.747 511.423 307.846 511.423 307.846L509.602 300.658C512.604 298.779 515.209 296.33 517.27 293.452Z" fill="#A7B3C6"/>
<path d="M588.173 356.872L603.582 429.518C603.813 430.656 603.768 431.834 603.452 432.951C603.135 434.069 602.555 435.094 601.76 435.942C600.998 436.793 600.042 437.448 598.974 437.853C598.615 437.998 598.243 438.107 597.863 438.18L476.072 463.949C475.51 464.075 474.935 464.13 474.36 464.113C473.262 464.074 472.186 463.794 471.209 463.294C470.243 462.799 469.399 462.094 468.741 461.231C468.082 460.368 467.625 459.369 467.402 458.307L452.012 385.661C451.72 384.295 451.828 382.873 452.322 381.566C452.745 380.388 453.465 379.338 454.413 378.519C455.36 377.7 456.503 377.138 457.731 376.889L579.504 351.121C580.444 350.919 581.415 350.904 582.361 351.078C583.307 351.253 584.209 351.613 585.015 352.137C585.821 352.662 586.515 353.34 587.057 354.134C587.599 354.928 587.979 355.821 588.173 356.762V356.872Z" fill="url(#paint25_linear_46_93)"/>
<path d="M588.173 356.872L591.707 373.541C575.57 386.607 537.067 417.526 532.733 419.036C527.706 420.747 463.887 391.502 452.158 386.098V385.697C451.866 384.331 451.973 382.91 452.468 381.603C452.873 380.435 453.568 379.39 454.489 378.566C455.41 377.741 456.526 377.164 457.731 376.889L579.504 351.121C580.444 350.919 581.415 350.904 582.361 351.078C583.307 351.253 584.209 351.613 585.015 352.137C585.821 352.662 586.515 353.34 587.057 354.134C587.599 354.928 587.979 355.821 588.173 356.762V356.872Z" fill="url(#paint26_linear_46_93)"/>
<path d="M584.604 440.91L594.821 388.136L603.582 429.391C603.813 430.529 603.768 431.706 603.452 432.824C603.135 433.941 602.555 434.967 601.76 435.815C600.998 436.665 600.042 437.32 598.974 437.725C598.615 437.87 598.243 437.98 597.863 438.053L584.604 440.91Z" fill="url(#paint27_linear_46_93)"/>
<path d="M586.334 353.232L532.332 407.408C531.846 407.892 531.302 408.314 530.711 408.663C530.338 408.886 529.948 409.081 529.545 409.246C528.39 409.707 527.144 409.9 525.903 409.81L525.101 409.719C524.536 409.62 523.981 409.468 523.444 409.264L508.874 403.55L506.069 402.458L452.395 381.439C452.829 380.293 453.546 379.275 454.479 378.48C455.412 377.685 456.53 377.138 457.731 376.889L579.504 351.121C580.728 350.857 581.999 350.912 583.196 351.282C584.392 351.652 585.473 352.323 586.334 353.232Z" fill="url(#paint28_linear_46_93)"/>
<path d="M452.468 381.403C452.468 381.403 457.112 382.331 459.206 382.549C461.301 382.767 460.135 383.95 457.804 384.187C455.473 384.423 457.421 391.703 453.67 393.049C453.67 393.049 449.171 385.807 452.468 381.403Z" fill="url(#paint29_linear_46_93)"/>
<path d="M521.677 392.758C521.677 392.758 520.512 394.105 519.219 395.67C518.363 396.707 517.397 397.872 516.796 398.8C515.175 401.111 514.702 407.899 512.844 408.554C510.986 409.209 505.559 408.317 504.721 409.009C503.883 409.7 499.84 411.338 499.148 410.829C498.456 410.319 502.39 408.044 504.247 405.715C506.105 403.386 508.436 399 506.579 399.218C504.721 399.437 500.313 400.856 501.698 399.692C503.082 398.527 509.128 395.288 509.839 394.578C510.185 394.232 511.187 392.976 512.097 391.83L513.773 389.719L521.677 392.758Z" fill="url(#paint30_linear_46_93)"/>
<path d="M521.677 392.758C521.677 392.758 520.512 394.105 519.219 395.67L512.097 391.866L513.773 389.755L521.677 392.758Z" fill="#4864D8"/>
<path d="M545.828 347.773C545.136 352.177 541.184 361.694 534.208 373.523C527.232 385.352 522.606 394.633 522.606 394.633L517.142 392.212L511.678 389.774C511.678 389.774 516.213 380.384 520.038 372.358C524.446 363.077 528.853 350.32 528.853 345.061C528.853 339.802 522.588 321.859 525.375 312.578C526.031 310.201 527.513 308.135 529.556 306.751C531.598 305.367 534.068 304.755 536.521 305.026C537.577 305.048 538.612 305.323 539.54 305.826C540.468 306.329 541.263 307.047 541.857 307.919C544.207 312.25 546.52 343.332 545.828 347.773Z" fill="url(#paint31_linear_46_93)"/>
<path d="M545.828 347.773C545.136 352.177 541.184 361.694 534.208 373.523C527.232 385.352 522.606 394.633 522.606 394.633L517.142 392.212C535.574 375.834 538.871 350.612 541.53 340.002C544.316 328.847 536.539 304.953 536.539 304.953C537.595 304.975 538.63 305.25 539.558 305.753C540.487 306.257 541.281 306.974 541.876 307.846C544.207 312.25 546.52 343.332 545.828 347.773Z" fill="url(#paint32_linear_46_93)"/>
<path d="M261.176 332.959H223.238V532.737H261.176V332.959Z" fill="#1E46C4"/>
<path d="M235.641 332.959H223.238V532.737H235.641V332.959Z" fill="#1631A4"/>
<path d="M292.338 502.456C292.338 502.456 283.942 439.745 274.453 438.29C264.964 436.834 260.229 452.848 263.871 502.456L279.935 528.697L292.338 502.456Z" fill="url(#paint33_linear_46_93)"/>
<path d="M274.453 532.719C278.209 518.705 281.015 504.454 282.849 490.063C286.965 457.67 283.268 432.139 297.42 410.592C303.685 401.075 310.406 399.2 313.811 399.291C320.022 399.491 326.943 403.677 328.382 414.614C333.19 450.61 298.458 532.719 298.458 532.719H274.453Z" fill="url(#paint34_linear_46_93)"/>
<path d="M292.338 532.719C292.338 532.719 297.42 459.927 324.812 443.403C352.205 426.879 355.064 453.321 339.765 478.798C315.687 518.834 316.78 532.755 316.78 532.755L292.338 532.719Z" fill="url(#paint35_linear_46_93)"/>
<path d="M317.053 513.72C317.053 513.72 340.858 482.784 354.354 485.695C367.85 488.607 349.254 532.719 349.254 532.719H303.139L317.053 513.72Z" fill="url(#paint36_linear_46_93)"/>
<path d="M354.335 532.719C354.335 532.719 364.207 504.658 375.882 504.658C387.556 504.658 382.092 532.719 382.092 532.719H354.335Z" fill="url(#paint37_linear_46_93)"/>
<path d="M286.492 532.719C286.492 532.719 284.67 493.357 274.453 475.122C264.235 456.888 246.204 464.658 251.832 485.331C255.997 500.907 259.286 516.703 261.686 532.646L286.492 532.719Z" fill="url(#paint38_linear_46_93)"/>
<path d="M375.517 515.959L369.762 532.737" stroke="#405CC6" stroke-miterlimit="10" stroke-linecap="round"/>
<path d="M351.804 494.812C351.804 494.812 338.071 513.375 334.884 532.719" stroke="#405CC6" stroke-miterlimit="10" stroke-linecap="round"/>
<path d="M336.25 453.703C321.355 478.231 310.265 504.872 303.357 532.719" stroke="#405CC6" stroke-miterlimit="10" stroke-linecap="round"/>
<path d="M263.871 482.784C263.871 482.784 274.089 513.72 274.453 532.719" stroke="#405CC6" stroke-miterlimit="10" stroke-linecap="round"/>
<path d="M186.01 502.456C186.01 502.456 194.406 439.745 203.896 438.29C213.385 436.834 218.12 452.848 214.477 502.456L198.413 528.697L186.01 502.456Z" fill="url(#paint39_linear_46_93)"/>
<path d="M203.895 532.719C200.139 518.705 197.334 504.454 195.499 490.063C191.401 457.67 195.08 432.139 180.929 410.592C174.663 401.075 167.943 399.2 164.537 399.291C158.326 399.491 151.405 403.677 149.966 414.614C145.158 450.61 179.891 532.719 179.891 532.719H203.895Z" fill="url(#paint40_linear_46_93)"/>
<path d="M143.701 532.719C143.701 532.719 146.251 451.065 128.001 429.555C109.752 408.044 94.0342 435.414 102.831 457.634C115.963 490.791 121.445 532.719 121.445 532.719H143.701Z" fill="url(#paint41_linear_46_93)"/>
<path d="M371.328 160.915C353.166 161.385 335.906 168.926 323.229 181.929C310.552 194.933 303.46 212.37 303.466 230.523V332.959H142.954V230.523C142.952 221.376 144.753 212.319 148.255 203.869C151.757 195.418 156.891 187.739 163.364 181.272C169.837 174.804 177.522 169.675 185.98 166.176C194.437 162.676 203.502 160.877 212.656 160.879H369.525L371.328 160.915Z" fill="#FF911E"/>
<path d="M439.227 230.523V332.959H303.466V230.523C303.458 213.504 309.689 197.071 320.981 184.33C332.273 171.589 347.845 163.421 364.753 161.37C366.903 161.116 369.088 160.952 371.292 160.897C389.468 161.353 406.747 168.889 419.439 181.898C432.131 194.906 439.232 212.356 439.227 230.523Z" fill="#294DC1"/>
<path d="M426.077 230.523V332.959H303.466V230.523C303.458 213.504 309.689 197.071 320.981 184.33C332.273 171.589 347.845 163.421 364.753 161.37C381.669 163.413 397.249 171.577 408.549 184.319C419.848 197.061 426.084 213.498 426.077 230.523Z" fill="#1631A4"/>
<path d="M371.328 160.915C369.125 160.915 366.939 161.134 364.79 161.389C347.882 163.443 332.313 171.612 321.022 184.352C309.73 197.093 303.498 213.523 303.503 230.541V286.3H142.954V230.523C142.952 221.376 144.753 212.319 148.255 203.869C151.757 195.418 156.891 187.739 163.364 181.272C169.837 174.804 177.522 169.675 185.98 166.176C194.437 162.676 203.502 160.877 212.656 160.879H369.525L371.328 160.915Z" fill="url(#paint42_linear_46_93)"/>
<path d="M198.413 309.247C198.417 310.548 198.034 311.821 197.313 312.904C196.592 313.987 195.565 314.832 194.363 315.332C193.161 315.831 191.837 315.963 190.56 315.71C189.283 315.457 188.11 314.831 187.189 313.911C186.269 312.991 185.642 311.819 185.389 310.543C185.136 309.267 185.267 307.944 185.767 306.743C186.267 305.542 187.113 304.516 188.197 303.796C189.281 303.075 190.555 302.693 191.857 302.696C192.718 302.696 193.57 302.866 194.366 303.195C195.161 303.524 195.884 304.007 196.493 304.615C197.102 305.223 197.585 305.946 197.914 306.74C198.244 307.535 198.413 308.387 198.413 309.247Z" fill="#EF6520"/>
<path d="M223.329 309.247C223.332 310.547 222.95 311.819 222.23 312.902C221.509 313.985 220.484 314.83 219.283 315.33C218.082 315.83 216.759 315.962 215.482 315.711C214.206 315.46 213.032 314.835 212.111 313.917C211.19 312.999 210.562 311.829 210.307 310.554C210.051 309.279 210.181 307.957 210.678 306.756C211.175 305.554 212.018 304.527 213.099 303.805C214.181 303.082 215.453 302.696 216.754 302.696C218.495 302.696 220.164 303.386 221.397 304.614C222.629 305.842 223.324 307.508 223.329 309.247Z" fill="#EF6520"/>
<path d="M245.184 309.247C245.188 310.548 244.805 311.821 244.084 312.904C243.363 313.987 242.336 314.832 241.134 315.332C239.932 315.831 238.608 315.963 237.331 315.71C236.054 315.457 234.881 314.831 233.96 313.911C233.04 312.991 232.413 311.819 232.16 310.543C231.907 309.267 232.039 307.944 232.539 306.743C233.038 305.542 233.884 304.516 234.968 303.796C236.052 303.075 237.326 302.693 238.628 302.696C239.489 302.696 240.341 302.866 241.137 303.195C241.932 303.524 242.655 304.007 243.264 304.615C243.873 305.223 244.356 305.946 244.685 306.74C245.015 307.535 245.184 308.387 245.184 309.247Z" fill="#EF6520"/>
<path d="M439.227 332.959V417.526C439.231 425.572 437.649 433.54 434.57 440.975C431.491 448.41 426.976 455.166 421.283 460.856C415.589 466.547 408.829 471.06 401.389 474.139C393.949 477.217 385.974 478.801 377.921 478.798H364.79C356.735 478.805 348.757 477.226 341.314 474.149C333.871 471.072 327.107 466.559 321.412 460.868C315.716 455.177 311.199 448.419 308.12 440.982C305.04 433.545 303.459 425.574 303.466 417.526V332.959H439.227Z" fill="#294DC1"/>
<path d="M439.227 332.959V417.526C439.234 425.573 437.653 433.542 434.575 440.978C431.497 448.414 426.982 455.171 421.288 460.862C415.594 466.552 408.833 471.066 401.392 474.144C393.951 477.221 385.975 478.803 377.921 478.798H369.889C353.635 478.798 338.047 472.347 326.553 460.863C315.059 449.379 308.602 433.803 308.602 417.562V332.959H439.227Z" fill="#E0E3EA"/>
<path d="M186.01 532.719C186.01 532.719 180.947 459.927 153.536 443.403C126.126 426.879 123.284 453.321 138.583 478.798C162.661 518.834 161.568 532.755 161.568 532.755L186.01 532.719Z" fill="url(#paint43_linear_46_93)"/>
<path d="M161.295 513.72C161.295 513.72 137.491 482.784 123.995 485.695C110.499 488.607 129.094 532.719 129.094 532.719H175.21L161.295 513.72Z" fill="url(#paint44_linear_46_93)"/>
<path d="M124.013 532.719C124.013 532.719 114.141 504.658 102.467 504.658C90.7923 504.658 96.2561 532.719 96.2561 532.719H124.013Z" fill="url(#paint45_linear_46_93)"/>
<path d="M191.857 532.719C191.857 532.719 193.678 493.357 203.895 475.122C214.113 456.888 232.162 464.658 226.516 485.331C222.352 500.907 219.062 516.703 216.663 532.646L191.857 532.719Z" fill="url(#paint46_linear_46_93)"/>
<path d="M102.831 515.959L108.586 532.737" stroke="#405CC6" stroke-miterlimit="10" stroke-linecap="round"/>
<path d="M126.544 494.812C126.544 494.812 140.332 513.393 143.483 532.719" stroke="#405CC6" stroke-miterlimit="10" stroke-linecap="round"/>
<path d="M142.19 453.703C157.042 478.24 168.095 504.88 174.973 532.719" stroke="#405CC6" stroke-miterlimit="10" stroke-linecap="round"/>
<path d="M214.477 482.784C214.477 482.784 204.26 513.72 203.896 532.719" stroke="#405CC6" stroke-miterlimit="10" stroke-linecap="round"/>
<path d="M364.79 161.389C347.882 163.443 332.313 171.612 321.022 184.352C309.73 197.093 303.498 213.523 303.503 230.541V286.3H225.35C234.621 279.73 242.198 266.555 242.198 241.096V223.844C242.198 207.28 248.783 191.394 260.506 179.681C272.228 167.969 288.127 161.389 304.705 161.389H364.79Z" fill="url(#paint47_linear_46_93)"/>
<path d="M273.579 241.078C271.838 241.078 270.169 240.388 268.936 239.16C267.704 237.932 267.009 236.266 267.004 234.526V70.4713H280.154V234.526C280.149 236.266 279.454 237.932 278.221 239.16C276.989 240.388 275.319 241.078 273.579 241.078Z" fill="#1631A4"/>
<path d="M280.154 70.4895H230.887L280.154 110.944V70.4895Z" fill="#FF911E"/>
<path d="M406.243 471.847C397.501 476.407 387.783 478.78 377.921 478.762H369.889C353.635 478.762 338.047 472.31 326.553 460.826C315.059 449.342 308.602 433.766 308.602 417.526V332.959H318.183L406.243 471.847Z" fill="#CED1D8"/>
<path d="M66.1499 544.784C66.1499 544.784 65.0207 550.244 66.1499 553.101C67.2791 555.958 74.9104 554.666 74.9104 554.666L74.2365 545.221L66.1499 544.784Z" fill="url(#paint48_linear_46_93)"/>
<path d="M94.7991 560.689C94.8368 560.857 94.8368 561.031 94.7991 561.199C94.3984 562.236 86.8582 562.072 79.2815 562.109C71.4317 562.109 63.5273 562.327 63.7641 561.199C63.7641 560.89 63.6547 560.58 63.6183 560.271C63.4695 556.587 63.8997 552.903 64.8933 549.352H66.0042C66.9149 555.63 74.5644 553.174 74.4369 549.352H75.6754C75.4568 553.392 79.4455 555.485 86.0386 556.085C92.6318 556.686 94.7809 559.143 94.7991 560.689Z" fill="#D9E0E2"/>
<path d="M94.7991 560.689C94.8367 560.857 94.8367 561.031 94.7991 561.199C94.3984 562.236 86.8581 562.072 79.2815 562.109C71.4317 562.109 63.5273 562.327 63.764 561.199C63.764 560.889 63.6547 560.58 63.6183 560.271C72.3606 560.18 88.552 560.526 94.7991 560.689Z" fill="#486CD3"/>
<path d="M37.5553 544.784C37.5553 544.784 36.4261 550.244 37.5553 553.101C38.6845 555.958 46.3341 554.666 46.3341 554.666L45.6602 545.221L37.5553 544.784Z" fill="url(#paint49_linear_46_93)"/>
<path d="M66.1499 561.181C65.731 562.218 58.209 562.054 50.6141 562.091C43.0193 562.127 34.8599 562.309 35.0967 561.181C34.9839 560.525 34.9109 559.862 34.8781 559.197C34.8862 555.846 35.3394 552.511 36.2259 549.279H37.3551C38.9214 554.884 45.6785 553.538 45.7877 549.279H47.0262C46.7894 553.319 50.7781 555.412 57.3712 556.012C63.1448 556.54 65.5853 558.524 66.1135 560.052C66.2607 560.412 66.2736 560.812 66.1499 561.181Z" fill="#EBF0F2"/>
<path d="M53.0912 386.534C56.497 417.835 55.2949 429.827 58.9375 462.511C61.287 483.512 59.1743 518.033 64.4014 547.914H76.3129C76.3129 525.44 77.697 521.764 79.2451 478.234C80.0101 456.579 79.6458 434.432 81.0665 424.514C83.2158 408.126 83.941 391.583 83.2338 375.07L53.0912 386.534Z" fill="#24246B"/>
<path d="M60.5221 425.642C55.2403 450.974 47.2448 547.914 47.2448 547.914H35.7341C32.5832 519.38 35.7341 494.358 33.9128 473.303C31.4358 442.512 26.2633 412.612 29.8695 386.534L42.309 385.115L66.9877 381.366C65.5816 396.224 63.4237 411.002 60.5221 425.642Z" fill="url(#paint50_linear_46_93)"/>
<path d="M39.5952 492.629C37.4643 507.77 37.6282 534.812 40.2691 547.914H35.7341C32.5832 519.38 35.7341 494.358 33.9128 473.303C31.4358 442.511 26.2633 412.612 29.8695 386.534L42.309 385.115C41.2526 391.047 35.0237 427.425 37.0636 451.72C39.3767 478.234 42.0722 475.159 39.5952 492.629Z" fill="url(#paint51_linear_46_93)"/>
<path d="M74.5826 356.144C72.6137 356.911 70.5587 357.437 68.4629 357.709C68.9183 356.035 69.319 354.379 69.6651 352.759C71.2634 352.517 72.8092 352.007 74.2366 351.248L74.4187 351.649L73.7265 333.451L73.5627 329.192L59.1743 301.095H39.5952L55.0399 382.076L56.6974 390.793C63.1171 392.301 69.8589 391.589 75.8211 388.773L74.5826 356.144ZM59.2836 377.199C60.3852 375.724 61.4007 374.187 62.3251 372.595C69.6104 372.595 72.8888 370.575 72.8888 370.575L74.7101 374.851C69.8504 376.928 64.5418 377.736 59.2836 377.199Z" fill="#EBEFF7"/>
<path d="M63.4362 311.904C63.4362 311.904 58.5005 315.053 47.0444 313.488L48.8657 318.437C54.4332 319.143 60.0884 318.364 65.2575 316.181L63.4362 311.904Z" fill="#4561D8"/>
<path d="M73.1256 331.686C73.1256 331.686 68.1716 334.834 56.7338 333.269L58.5551 338.2C64.121 338.917 69.7775 338.144 74.9469 335.962L73.1256 331.686Z" fill="#4561D8"/>
<path d="M69.6651 352.759C69.319 354.379 68.9183 356.035 68.4629 357.709C65.5244 358.085 62.5499 358.085 59.6114 357.709L57.7901 352.759C61.722 353.405 65.7331 353.405 69.6651 352.759Z" fill="#4561D8"/>
<path d="M76.0396 355.525C75.5661 355.743 75.0744 355.962 74.5826 356.144L74.4186 351.649L76.0396 355.525Z" fill="#242528"/>
<path d="M62.3251 372.595C61.4007 374.187 60.3851 375.724 59.2836 377.199L58.2636 377.09L56.4423 372.158C58.3925 372.423 60.3571 372.569 62.3251 372.595Z" fill="#4561D8"/>
<path d="M74.6919 374.851C69.8377 376.925 64.5358 377.733 59.2836 377.199C60.3851 375.724 61.4007 374.187 62.3251 372.595C69.6104 372.595 72.8888 370.575 72.8888 370.575L74.6919 374.851Z" fill="#3C53A0"/>
<path d="M74.5826 356.144C72.6137 356.911 70.5587 357.437 68.4629 357.709C68.9182 356.035 69.319 354.379 69.665 352.759C71.2634 352.517 72.8091 352.007 74.2365 351.248L74.4186 351.649L74.5826 356.144Z" fill="#3C53A0"/>
<path d="M69.665 352.759C71.2611 345.017 71.873 337.105 71.4863 329.211L73.6719 333.469L74.364 351.667L74.1818 351.267C72.7702 352.013 71.2435 352.517 69.665 352.759Z" fill="#CCD2DB"/>
<path d="M75.8029 388.791C69.8407 391.607 63.0988 392.319 56.6791 390.811L55.0218 382.094C56.5568 380.571 57.9752 378.934 59.2654 377.199C64.5175 377.733 69.8195 376.925 74.6737 374.851L72.8524 370.575C72.8524 370.575 69.6105 372.631 62.2888 372.595C64.9613 367.914 67.0239 362.912 68.4266 357.709C70.5223 357.437 72.5772 356.911 74.5462 356.144L75.8029 388.791Z" fill="#CCD2DB"/>
<path d="M84.9094 382.494C81.7585 389.901 71.6321 392.376 71.6321 392.376C71.6321 392.376 72.6885 374.833 72.8888 358.655C73.0345 347.864 72.7977 337.673 71.6321 333.706C69.8371 328.504 67.6827 323.432 65.1846 318.528C60.6677 309.284 55.6592 300.221 55.6592 300.221L56.7156 298.165L71.6321 304.934C71.6321 304.934 72.1785 308.574 72.8888 313.706C74.2184 322.896 76.1489 336.544 76.5314 340.457C76.8775 343.533 78.9901 354.233 81.0118 364.114C83.0334 373.996 84.9094 382.494 84.9094 382.494Z" fill="url(#paint52_linear_46_93)"/>
<path d="M50.3956 246.282C42.2908 232.561 30.1427 239.003 27.9025 242.461C15.9729 261.114 39.5953 284.935 26.5547 289.885C26.5547 289.885 40.7973 296.891 44.9135 280.24C47.2449 270.585 50.6667 261.225 55.1128 252.342L50.3956 246.282Z" fill="#1C3391"/>
<path d="M70.6486 272.578C70.6486 272.578 74.2913 267.119 73.3442 257.292C72.3971 247.465 65.9132 245.154 62.7624 248.066C62.7624 248.066 54.2204 239.749 44.5493 246.501C35.7888 252.597 35.3152 264.699 38.4661 273.252C41.6169 281.805 42.6551 285.608 42.819 289.776L56.6974 276.163L70.6486 272.578Z" fill="#192EAD"/>
<path d="M71.541 267.701V267.883C71.4317 270.013 70.2478 291.14 62.999 292.432C61.3169 292.795 59.5618 292.591 58.0086 291.85C57.5124 291.602 57.0675 291.262 56.6974 290.849C56.4432 292.792 56.37 294.753 56.4788 296.709C56.566 298.461 56.8656 300.197 57.3712 301.877C57.3712 301.877 49.7217 308.156 39.5952 299.402C42.5109 292.114 44.4759 284.481 45.4417 276.691C45.4417 276.691 41.6169 275.126 42.2907 269.721C43.0375 263.862 49.0478 268.156 48.374 273.106C52.1161 271.227 55.3908 268.536 57.959 265.23C60.5271 261.924 62.3238 258.087 63.2177 253.998C63.2177 253.998 63.6729 259.767 71.541 267.701Z" fill="url(#paint53_linear_46_93)"/>
<path d="M71.5409 267.701V267.883C67.4199 266.036 63.94 263.009 61.542 259.185C62.2682 257.515 62.8295 255.778 63.2176 253.998C63.2176 253.998 63.6729 259.767 71.5409 267.701Z" fill="#4864D8"/>
<path d="M58.0086 291.777C57.5123 291.529 57.0675 291.19 56.6973 290.776C56.4431 292.719 56.37 294.68 56.4788 296.636C53.0054 292.849 50.8687 288.03 50.3956 282.915C52.3082 286.352 54.8979 289.367 58.0086 291.777Z" fill="#4864D8"/>
<path d="M59.1743 393.268C55.9505 393.545 52.7087 393.545 49.4849 393.268C40.2282 392.533 31.215 389.939 22.9849 385.643C22.9849 385.643 27.2467 374.396 30.8165 364.242C32.0368 360.748 33.1842 357.399 34.0403 354.651C34.8486 352.623 35.3696 350.491 35.5883 348.319C35.5883 348.046 35.133 347.245 34.5502 346.026L34.4409 345.789C30.0333 336.69 14.6433 306.481 16.0093 304.716C16.7196 303.806 23.4402 300.676 40.4148 297.437C40.4148 297.437 59.4293 328.192 60.3217 332.905C61.2142 337.618 59.1743 393.268 59.1743 393.268Z" fill="url(#paint54_linear_46_93)"/>
<path d="M34.0038 354.651C34.8121 352.623 35.3332 350.491 35.552 348.319C35.552 348.046 35.0967 347.245 34.5138 346.026L42.5275 362.258L34.0038 354.651Z" fill="url(#paint55_linear_46_93)"/>
<path d="M49.4849 393.268C40.2282 392.533 31.2151 389.939 22.9849 385.643C22.9849 385.643 27.2468 374.396 30.8165 364.242C32.3464 372.467 36.8086 385.988 49.4849 393.268Z" fill="url(#paint56_linear_46_93)"/>
<path d="M39.8138 396.416C37.5736 397.544 35.8616 393.959 35.1512 390.574C34.4409 387.189 34.4228 386.079 36.0073 386.753C35.7142 385.348 35.7142 383.899 36.0073 382.494L32.0004 379.674L29.9241 378.218L36.6812 372.158L38.0107 373.559L39.832 375.379C40.7427 376.289 41.7626 377.199 42.7461 378.181C45.0409 380.292 46.5709 387.171 47.0262 390.101C47.4815 393.031 42.0722 395.306 39.8138 396.416Z" fill="url(#paint57_linear_46_93)"/>
<path d="M27.2104 329.702C27.2104 329.702 15.9729 344.952 15.9729 346.299C15.9729 347.645 39.8138 371.776 39.8138 371.776L29.2502 382.567C29.2502 382.567 -0.509926 348.61 4.07477e-05 346.371C2.69558 334.452 16.2097 306.591 16.2097 306.591C16.2097 306.591 26.2997 316.69 27.2104 329.702Z" fill="url(#paint58_linear_46_93)"/>
<path d="M72.7976 358.691C72.9433 347.9 72.7066 337.709 71.5409 333.742C69.7459 328.54 67.5916 323.469 65.0935 318.565C65.7841 314.717 66.7025 310.913 67.8437 307.173C67.8437 307.173 69.9018 309.611 72.7976 313.742C74.1272 322.932 76.0578 336.581 76.4403 340.493C76.7863 343.569 78.8991 354.269 80.9207 364.151C77.9176 362.814 75.1692 360.967 72.7976 358.691Z" fill="url(#paint59_linear_46_93)"/>
<path d="M76.495 305.389L71.0311 308.137L68.4266 309.429L65.731 298.201C65.731 298.201 63.4726 296.855 61.9063 291.45C61.9063 291.45 61.3418 292.305 60.7043 292.36C60.0668 292.414 59.9757 292.159 59.6479 291.45C58.7555 289.43 59.4294 288.301 60.1032 285.99C60.7771 283.679 61.451 282.169 64.1465 282.351C66.842 282.533 68.4448 281.04 69.5011 282.351C72.4699 285.99 73.5991 297.2 73.5991 297.2L76.495 305.389Z" fill="url(#paint60_linear_46_93)"/>
<path d="M70.9946 308.137L68.3901 309.429L65.6946 298.201C65.6946 298.201 63.4361 296.855 61.8698 291.45C61.8698 291.45 61.3052 292.305 60.6678 292.36C60.7963 291.817 60.973 291.287 61.1959 290.776L60.7406 286.3C61.4306 288.803 62.5725 291.159 64.1101 293.251C65.6144 294.792 66.9011 296.531 67.9348 298.42C68.5176 299.712 70.1568 305.153 70.9946 308.137Z" fill="#4864D8"/>
<path d="M64.1101 304.097L78.6805 301.168C78.6805 301.168 87.2407 340.057 88.3517 344.843C89.4627 349.629 88.1331 361.221 84.7091 362.367C81.285 363.514 75.7118 357.654 74.8011 353.596C73.8905 349.538 64.1101 304.097 64.1101 304.097Z" fill="url(#paint61_linear_46_93)"/>
<path d="M39.832 375.415L32.0004 379.674L38.0107 373.559L39.832 375.415Z" fill="#4864D8"/>
<path d="M66.1499 561.181C65.731 562.218 58.209 562.054 50.6141 562.091C43.0193 562.127 34.8599 562.309 35.0967 561.181C34.9839 560.524 34.9109 559.862 34.8781 559.197C39.14 559.907 49.0478 561.017 66.1135 560.052C66.2607 560.412 66.2736 560.812 66.1499 561.181Z" fill="#5F80F6"/>
<path d="M412.963 325.789C412.97 326.946 412.701 328.087 412.178 329.119C411.656 330.15 410.895 331.043 409.958 331.722C409.036 332.407 407.961 332.856 406.826 333.032C406.446 333.091 406.062 333.122 405.678 333.123L321.024 333.56V244.699L405.223 244.262C407.155 244.262 409.008 245.029 410.374 246.394C411.741 247.759 412.508 249.611 412.508 251.542V255.946L412.963 325.789Z" fill="url(#paint62_linear_46_93)"/>
<path d="M412.745 255.891H412.654C394.149 265.499 350.329 300.585 345.775 301.149C343.663 301.404 333.354 294.926 321.078 286.591V244.736L405.278 244.299C407.21 244.299 409.063 245.066 410.429 246.431C411.795 247.796 412.563 249.647 412.563 251.578L412.745 255.891Z" fill="url(#paint63_linear_46_93)"/>
<path d="M411.488 247.684L347.633 289.83C347.062 290.201 346.451 290.506 345.812 290.74C345.401 290.877 344.981 290.986 344.555 291.068C343.342 291.275 342.099 291.213 340.913 290.886C340.652 290.817 340.397 290.732 340.148 290.631C339.617 290.425 339.11 290.163 338.636 289.848L325.486 281.314L322.973 279.676L321.151 278.438V244.699L405.35 244.262C406.579 244.269 407.786 244.586 408.86 245.185C409.933 245.783 410.837 246.642 411.488 247.684Z" fill="url(#paint64_linear_46_93)"/>
<path d="M395.078 325.407C395.101 327.152 394.495 328.847 393.372 330.183C392.249 331.519 390.682 332.407 388.959 332.686C388.579 332.744 388.195 332.774 387.811 332.777L303.139 333.214V244.335L387.338 243.898C389.27 243.898 391.123 244.665 392.489 246.03C393.855 247.396 394.623 249.247 394.623 251.178V255.581L395.078 325.407Z" fill="url(#paint65_linear_46_93)"/>
<path d="M394.823 255.527H394.714C376.209 265.135 332.407 300.203 327.835 300.785C325.741 301.04 315.414 294.562 303.139 286.227V244.372L387.338 243.935C389.27 243.935 391.123 244.702 392.489 246.067C393.855 247.432 394.623 249.283 394.623 251.214L394.823 255.527Z" fill="url(#paint66_linear_46_93)"/>
<path d="M393.621 247.356L329.766 289.539C329.195 289.909 328.584 290.215 327.945 290.449C327.527 290.586 327.101 290.695 326.67 290.776C325.457 290.986 324.213 290.924 323.027 290.594C322.767 290.526 322.512 290.441 322.262 290.34C321.728 290.141 321.221 289.878 320.751 289.557L307.601 281.022L305.087 279.385L303.266 278.147V244.335L387.465 243.898C388.7 243.906 389.914 244.227 390.99 244.832C392.067 245.437 392.973 246.305 393.621 247.356Z" fill="url(#paint67_linear_46_93)"/>
<path d="M421.341 252.743C422.834 252.483 424.312 252.143 425.767 251.724" stroke="#18317F" stroke-width="1.6" stroke-miterlimit="10" stroke-linecap="round"/>
<path d="M435.803 248.066C453.415 240.131 479.514 219.768 468.04 170.36C451.265 98.1869 453.469 39.8623 496.142 16.5324C527.924 -0.846677 563.531 11.6918 579.686 19.2439" stroke="#18317F" stroke-width="1.6" stroke-miterlimit="10" stroke-linecap="round" stroke-dasharray="4.88 5.86"/>
<path d="M584.458 21.6097C587.026 22.9382 588.446 23.8116 588.446 23.8116" stroke="#18317F" stroke-width="1.6" stroke-miterlimit="10" stroke-linecap="round"/>
<path d="M591.834 27.2511L581.143 40.4446L633.324 59.9165L609.756 7.77921L598.755 21.9191L612.579 38.8796L591.834 27.2511Z" fill="url(#paint68_linear_46_93)"/>
<path d="M29.0499 50.5627L45.0774 56.1495L45.7695 0.5L4.64435 40.3172L21.6736 45.8676L32.9657 27.1237L29.0499 50.5627Z" fill="url(#paint69_linear_46_93)"/>
<path d="M303.466 267.811C303.466 267.811 364.498 259.294 343.226 217.384C292.229 116.767 138.292 227.848 76.1672 176.93C11.2557 123.701 22.9849 48.9795 22.9849 48.9795" stroke="#18317F" stroke-width="1.6" stroke-miterlimit="10" stroke-linecap="round" stroke-dasharray="5.01 6.01"/>
<path d="M558.158 70.4713C551.729 57.2596 530.073 66.1038 543.205 83.6103C556.337 101.117 570.197 95.2752 558.158 70.4713Z" fill="#EDEFF4"/>
<path d="M633.688 78.8606C622.76 77.4412 591.798 85.9215 591.798 104.01C591.798 114.219 615.475 122.208 639.152 110.944C662.829 99.6792 664.322 82.8824 633.688 78.8606Z" fill="#EDEFF4"/>
<path d="M94.7991 532.719C94.7991 532.719 95.8919 551.681 134.868 551.681C173.844 551.681 208.922 547.296 250.521 582.309C292.12 617.322 394.277 623.127 421.269 598.341C448.26 573.555 383.331 532.719 383.331 532.719H94.7991Z" fill="#EDEFF4"/>
</g>
<defs>
<linearGradient id="paint0_linear_46_93" x1="635.473" y1="548.296" x2="645.089" y2="548.296" gradientUnits="userSpaceOnUse">
<stop stop-color="#546AEA"/>
<stop offset="1" stop-color="#658BFD"/>
</linearGradient>
<linearGradient id="paint1_linear_46_93" x1="689.074" y1="548.387" x2="698.927" y2="548.387" gradientUnits="userSpaceOnUse">
<stop stop-color="#546AEA"/>
<stop offset="1" stop-color="#658BFD"/>
</linearGradient>
<linearGradient id="paint2_linear_46_93" x1="667.856" y1="364.333" x2="667.856" y2="492.956" gradientUnits="userSpaceOnUse">
<stop stop-color="#24247F"/>
<stop offset="1" stop-color="#2D2D96"/>
</linearGradient>
<linearGradient id="paint3_linear_46_93" x1="755.733" y1="471.228" x2="556.047" y2="465.668" gradientUnits="userSpaceOnUse">
<stop stop-color="#242463"/>
<stop offset="1" stop-color="#242463" stop-opacity="0"/>
</linearGradient>
<linearGradient id="paint4_linear_46_93" x1="683.464" y1="485.259" x2="537.372" y2="428.873" gradientUnits="userSpaceOnUse">
<stop stop-color="#242463"/>
<stop offset="1" stop-color="#242463" stop-opacity="0"/>
</linearGradient>
<linearGradient id="paint5_linear_46_93" x1="670.569" y1="289.867" x2="671.224" y2="307.009" gradientUnits="userSpaceOnUse">
<stop stop-color="#546AEA"/>
<stop offset="1" stop-color="#658BFD"/>
</linearGradient>
<linearGradient id="paint6_linear_46_93" x1="661.627" y1="268.83" x2="650.59" y2="268.009" gradientUnits="userSpaceOnUse">
<stop stop-color="#546AEA"/>
<stop offset="1" stop-color="#658BFD"/>
</linearGradient>
<linearGradient id="paint7_linear_46_93" x1="678.547" y1="268.502" x2="685.304" y2="268.502" gradientUnits="userSpaceOnUse">
<stop stop-color="#546AEA"/>
<stop offset="1" stop-color="#658BFD"/>
</linearGradient>
<linearGradient id="paint8_linear_46_93" x1="686.214" y1="288.975" x2="663.508" y2="259.931" gradientUnits="userSpaceOnUse">
<stop stop-color="#546AEA"/>
<stop offset="1" stop-color="#658BFD"/>
</linearGradient>
<linearGradient id="paint9_linear_46_93" x1="642.303" y1="417.671" x2="655.504" y2="302.257" gradientUnits="userSpaceOnUse">
<stop stop-color="#F4BA38"/>
<stop offset="1" stop-color="#FFD349"/>
</linearGradient>
<linearGradient id="paint10_linear_46_93" x1="678.966" y1="402.658" x2="713.007" y2="257.334" gradientUnits="userSpaceOnUse">
<stop stop-color="#F4BA38"/>
<stop offset="1" stop-color="#FFD349"/>
</linearGradient>
<linearGradient id="paint11_linear_46_93" x1="630.737" y1="401.73" x2="686.34" y2="285.572" gradientUnits="userSpaceOnUse">
<stop stop-color="#FF911E"/>
<stop offset="1" stop-color="#FE931E" stop-opacity="0"/>
</linearGradient>
<linearGradient id="paint12_linear_46_93" x1="716.193" y1="396.507" x2="636.504" y2="249.775" gradientUnits="userSpaceOnUse">
<stop stop-color="#FF911E"/>
<stop offset="1" stop-color="#FE931E" stop-opacity="0"/>
</linearGradient>
<linearGradient id="paint13_linear_46_93" x1="629.936" y1="386.134" x2="655.452" y2="386.134" gradientUnits="userSpaceOnUse">
<stop stop-color="#546AEA"/>
<stop offset="1" stop-color="#658BFD"/>
</linearGradient>
<linearGradient id="paint14_linear_46_93" x1="696.96" y1="391.812" x2="713.425" y2="391.812" gradientUnits="userSpaceOnUse">
<stop stop-color="#546AEA"/>
<stop offset="1" stop-color="#658BFD"/>
</linearGradient>
<linearGradient id="paint15_linear_46_93" x1="486.799" y1="452.866" x2="483.599" y2="540.381" gradientUnits="userSpaceOnUse">
<stop stop-color="#24247F"/>
<stop offset="1" stop-color="#2D2D96"/>
</linearGradient>
<linearGradient id="paint16_linear_46_93" x1="516.159" y1="435.451" x2="556.52" y2="517.896" gradientUnits="userSpaceOnUse">
<stop stop-color="#24247F"/>
<stop offset="1" stop-color="#2D2D96"/>
</linearGradient>
<linearGradient id="paint17_linear_46_93" x1="486.617" y1="452.83" x2="486.617" y2="480.891" gradientUnits="userSpaceOnUse">
<stop stop-color="#242463"/>
<stop offset="1" stop-color="#242463" stop-opacity="0"/>
</linearGradient>
<linearGradient id="paint18_linear_46_93" x1="522.679" y1="442.602" x2="522.679" y2="479.89" gradientUnits="userSpaceOnUse">
<stop stop-color="#242463"/>
<stop offset="1" stop-color="#242463" stop-opacity="0"/>
</linearGradient>
<linearGradient id="paint19_linear_46_93" x1="447.477" y1="378.964" x2="470.59" y2="378.964" gradientUnits="userSpaceOnUse">
<stop stop-color="#546AEA"/>
<stop offset="1" stop-color="#658BFD"/>
</linearGradient>
<linearGradient id="paint20_linear_46_93" x1="491.462" y1="344.606" x2="456.093" y2="369.292" gradientUnits="userSpaceOnUse">
<stop stop-color="#E1E1E1"/>
<stop offset="1" stop-color="white"/>
</linearGradient>
<linearGradient id="paint21_linear_46_93" x1="527.906" y1="370.848" x2="486.16" y2="295.642" gradientUnits="userSpaceOnUse">
<stop stop-color="#F4BA38"/>
<stop offset="1" stop-color="#FFD349"/>
</linearGradient>
<linearGradient id="paint22_linear_46_93" x1="526.704" y1="376.562" x2="525.322" y2="310.43" gradientUnits="userSpaceOnUse">
<stop stop-color="#FF911E"/>
<stop offset="1" stop-color="#FE931E" stop-opacity="0"/>
</linearGradient>
<linearGradient id="paint23_linear_46_93" x1="510.476" y1="404.023" x2="508.385" y2="288.447" gradientUnits="userSpaceOnUse">
<stop stop-color="#E1E1E1"/>
<stop offset="1" stop-color="white"/>
</linearGradient>
<linearGradient id="paint24_linear_46_93" x1="495.45" y1="278.784" x2="523.845" y2="278.784" gradientUnits="userSpaceOnUse">
<stop stop-color="#546AEA"/>
<stop offset="1" stop-color="#658BFD"/>
</linearGradient>
<linearGradient id="paint25_linear_46_93" x1="588.519" y1="364.114" x2="480.831" y2="441.231" gradientUnits="userSpaceOnUse">
<stop stop-color="#DFE1E5"/>
<stop offset="1" stop-color="#F3F3F3"/>
</linearGradient>
<linearGradient id="paint26_linear_46_93" x1="520.548" y1="281.823" x2="522.403" y2="424.769" gradientUnits="userSpaceOnUse">
<stop stop-color="#B9BEC6"/>
<stop offset="1" stop-color="#B9BEC6" stop-opacity="0"/>
</linearGradient>
<linearGradient id="paint27_linear_46_93" x1="667.309" y1="467.042" x2="578.185" y2="406.629" gradientUnits="userSpaceOnUse">
<stop stop-color="#B9BEC6"/>
<stop offset="1" stop-color="#B9BEC6" stop-opacity="0"/>
</linearGradient>
<linearGradient id="paint28_linear_46_93" x1="532.551" y1="321.058" x2="505.655" y2="415.736" gradientUnits="userSpaceOnUse">
<stop stop-color="#DFE1E5"/>
<stop offset="1" stop-color="#F3F3F3"/>
</linearGradient>
<linearGradient id="paint29_linear_46_93" x1="451.284" y1="387.226" x2="460.299" y2="387.226" gradientUnits="userSpaceOnUse">
<stop stop-color="#546AEA"/>
<stop offset="1" stop-color="#658BFD"/>
</linearGradient>
<linearGradient id="paint30_linear_46_93" x1="499.057" y1="400.347" x2="521.677" y2="400.347" gradientUnits="userSpaceOnUse">
<stop stop-color="#546AEA"/>
<stop offset="1" stop-color="#658BFD"/>
</linearGradient>
<linearGradient id="paint31_linear_46_93" x1="559.925" y1="353.359" x2="523.026" y2="349.003" gradientUnits="userSpaceOnUse">
<stop stop-color="#E1E1E1"/>
<stop offset="1" stop-color="white"/>
</linearGradient>
<linearGradient id="paint32_linear_46_93" x1="589.794" y1="367.536" x2="488.78" y2="337.554" gradientUnits="userSpaceOnUse">
<stop stop-color="#BCCACE"/>
<stop offset="1" stop-color="#BCCACE" stop-opacity="0"/>
</linearGradient>
<linearGradient id="paint33_linear_46_93" x1="277.604" y1="502.401" x2="277.058" y2="429.682" gradientUnits="userSpaceOnUse">
<stop stop-color="#404FD9"/>
<stop offset="1" stop-color="#658BFD"/>
</linearGradient>
<linearGradient id="paint34_linear_46_93" x1="301.481" y1="481.765" x2="313.228" y2="378.325" gradientUnits="userSpaceOnUse">
<stop stop-color="#4F6AD9"/>
<stop offset="1" stop-color="#658BFD"/>
</linearGradient>
<linearGradient id="paint35_linear_46_93" x1="314.595" y1="542.055" x2="323.323" y2="469.88" gradientUnits="userSpaceOnUse">
<stop stop-color="#546AEA"/>
<stop offset="1" stop-color="#658BFD"/>
</linearGradient>
<linearGradient id="paint36_linear_46_93" x1="327.726" y1="543.656" x2="336.472" y2="471.463" gradientUnits="userSpaceOnUse">
<stop stop-color="#546AEA"/>
<stop offset="1" stop-color="#658BFD"/>
</linearGradient>
<linearGradient id="paint37_linear_46_93" x1="366.393" y1="548.333" x2="375.121" y2="476.14" gradientUnits="userSpaceOnUse">
<stop stop-color="#546AEA"/>
<stop offset="1" stop-color="#658BFD"/>
</linearGradient>
<linearGradient id="paint38_linear_46_93" x1="264.836" y1="536.031" x2="273.583" y2="463.838" gradientUnits="userSpaceOnUse">
<stop stop-color="#546AEA"/>
<stop offset="1" stop-color="#658BFD"/>
</linearGradient>
<linearGradient id="paint39_linear_46_93" x1="200.763" y1="502.401" x2="201.308" y2="429.682" gradientUnits="userSpaceOnUse">
<stop stop-color="#404FD9"/>
<stop offset="1" stop-color="#658BFD"/>
</linearGradient>
<linearGradient id="paint40_linear_46_93" x1="176.867" y1="481.765" x2="165.121" y2="378.325" gradientUnits="userSpaceOnUse">
<stop stop-color="#4F6AD9"/>
<stop offset="1" stop-color="#658BFD"/>
</linearGradient>
<linearGradient id="paint41_linear_46_93" x1="124.468" y1="492.483" x2="113.958" y2="399.853" gradientUnits="userSpaceOnUse">
<stop stop-color="#4F6AD9"/>
<stop offset="1" stop-color="#658BFD"/>
</linearGradient>
<linearGradient id="paint42_linear_46_93" x1="334.866" y1="223.589" x2="105.745" y2="223.589" gradientUnits="userSpaceOnUse">
<stop stop-color="#F4BA38"/>
<stop offset="1" stop-color="#FFD349"/>
</linearGradient>
<linearGradient id="paint43_linear_46_93" x1="163.772" y1="542.055" x2="155.026" y2="469.88" gradientUnits="userSpaceOnUse">
<stop stop-color="#546AEA"/>
<stop offset="1" stop-color="#658BFD"/>
</linearGradient>
<linearGradient id="paint44_linear_46_93" x1="150.622" y1="543.656" x2="141.876" y2="471.463" gradientUnits="userSpaceOnUse">
<stop stop-color="#546AEA"/>
<stop offset="1" stop-color="#658BFD"/>
</linearGradient>
<linearGradient id="paint45_linear_46_93" x1="111.974" y1="548.333" x2="103.228" y2="476.14" gradientUnits="userSpaceOnUse">
<stop stop-color="#546AEA"/>
<stop offset="1" stop-color="#658BFD"/>
</linearGradient>
<linearGradient id="paint46_linear_46_93" x1="213.512" y1="536.031" x2="204.784" y2="463.838" gradientUnits="userSpaceOnUse">
<stop stop-color="#546AEA"/>
<stop offset="1" stop-color="#658BFD"/>
</linearGradient>
<linearGradient id="paint47_linear_46_93" x1="441.503" y1="246.082" x2="167.935" y2="204.469" gradientUnits="userSpaceOnUse">
<stop stop-color="#FF911E"/>
<stop offset="1" stop-color="#FE931E" stop-opacity="0"/>
</linearGradient>
<linearGradient id="paint48_linear_46_93" x1="70.43" y1="546.276" x2="70.0845" y2="559.434" gradientUnits="userSpaceOnUse">
<stop stop-color="#546AEA"/>
<stop offset="1" stop-color="#658BFD"/>
</linearGradient>
<linearGradient id="paint49_linear_46_93" x1="41.8718" y1="545.549" x2="41.5446" y2="558.706" gradientUnits="userSpaceOnUse">
<stop stop-color="#546AEA"/>
<stop offset="1" stop-color="#658BFD"/>
</linearGradient>
<linearGradient id="paint50_linear_46_93" x1="47.9368" y1="389.046" x2="45.2276" y2="542.055" gradientUnits="userSpaceOnUse">
<stop stop-color="#24247F"/>
<stop offset="1" stop-color="#2D2D96"/>
</linearGradient>
<linearGradient id="paint51_linear_46_93" x1="23.5132" y1="389.501" x2="60.7908" y2="574.277" gradientUnits="userSpaceOnUse">
<stop stop-color="#242463"/>
<stop offset="1" stop-color="#242463" stop-opacity="0"/>
</linearGradient>
<linearGradient id="paint52_linear_46_93" x1="78.0431" y1="389.792" x2="62.5505" y2="294.03" gradientUnits="userSpaceOnUse">
<stop stop-color="#FFA322"/>
<stop offset="1" stop-color="#FCEA34"/>
</linearGradient>
<linearGradient id="paint53_linear_46_93" x1="38.9031" y1="307.555" x2="61.3677" y2="266.63" gradientUnits="userSpaceOnUse">
<stop stop-color="#546AEA"/>
<stop offset="1" stop-color="#658BFD"/>
</linearGradient>
<linearGradient id="paint54_linear_46_93" x1="46.7165" y1="404.969" x2="36.3884" y2="311.921" gradientUnits="userSpaceOnUse">
<stop stop-color="#F4BA38"/>
<stop offset="1" stop-color="#FFD349"/>
</linearGradient>
<linearGradient id="paint55_linear_46_93" x1="26.7004" y1="340.839" x2="54.5563" y2="375.929" gradientUnits="userSpaceOnUse">
<stop stop-color="#FF911E"/>
<stop offset="1" stop-color="#FE931E" stop-opacity="0"/>
</linearGradient>
<linearGradient id="paint56_linear_46_93" x1="41.2344" y1="377.727" x2="18.103" y2="398.837" gradientUnits="userSpaceOnUse">
<stop stop-color="#FF911E"/>
<stop offset="1" stop-color="#FE931E" stop-opacity="0"/>
</linearGradient>
<linearGradient id="paint57_linear_46_93" x1="34.6959" y1="372.777" x2="41.5523" y2="391.197" gradientUnits="userSpaceOnUse">
<stop stop-color="#546AEA"/>
<stop offset="1" stop-color="#658BFD"/>
</linearGradient>
<linearGradient id="paint58_linear_46_93" x1="27.8114" y1="311.977" x2="17.9376" y2="370.869" gradientUnits="userSpaceOnUse">
<stop stop-color="#F4BA38"/>
<stop offset="1" stop-color="#FFD349"/>
</linearGradient>
<linearGradient id="paint59_linear_46_93" x1="75.7846" y1="371.703" x2="65.1838" y2="254.306" gradientUnits="userSpaceOnUse">
<stop stop-color="#FF911E"/>
<stop offset="1" stop-color="#FE931E" stop-opacity="0"/>
</linearGradient>
<linearGradient id="paint60_linear_46_93" x1="63.2177" y1="296.873" x2="78.3495" y2="290.986" gradientUnits="userSpaceOnUse">
<stop stop-color="#546AEA"/>
<stop offset="1" stop-color="#658BFD"/>
</linearGradient>
<linearGradient id="paint61_linear_46_93" x1="81.5218" y1="373.796" x2="74.7758" y2="309.738" gradientUnits="userSpaceOnUse">
<stop stop-color="#F4BA38"/>
<stop offset="1" stop-color="#FFD349"/>
</linearGradient>
<linearGradient id="paint62_linear_46_93" x1="412.18" y1="254.835" x2="328.192" y2="314.973" gradientUnits="userSpaceOnUse">
<stop stop-color="#546AEA"/>
<stop offset="1" stop-color="#658BFD"/>
</linearGradient>
<linearGradient id="paint63_linear_46_93" x1="351.403" y1="235.054" x2="412.297" y2="366.628" gradientUnits="userSpaceOnUse">
<stop stop-color="#4864D8"/>
<stop offset="1" stop-color="#4864D8" stop-opacity="0"/>
</linearGradient>
<linearGradient id="paint64_linear_46_93" x1="373.405" y1="221.096" x2="350" y2="303.489" gradientUnits="userSpaceOnUse">
<stop stop-color="#546AEA"/>
<stop offset="1" stop-color="#658BFD"/>
</linearGradient>
<linearGradient id="paint65_linear_46_93" x1="394.295" y1="254.471" x2="310.307" y2="314.609" gradientUnits="userSpaceOnUse">
<stop stop-color="#FCEA45"/>
<stop offset="1" stop-color="#F9C53F"/>
</linearGradient>
<linearGradient id="paint66_linear_46_93" x1="333.518" y1="234.69" x2="394.412" y2="366.264" gradientUnits="userSpaceOnUse">
<stop stop-color="#F9A82C"/>
<stop offset="1" stop-color="#FAA72C" stop-opacity="0"/>
</linearGradient>
<linearGradient id="paint67_linear_46_93" x1="355.519" y1="220.732" x2="332.115" y2="303.125" gradientUnits="userSpaceOnUse">
<stop stop-color="#FCEA45"/>
<stop offset="1" stop-color="#F9C53F"/>
</linearGradient>
<linearGradient id="paint68_linear_46_93" x1="581.143" y1="33.857" x2="633.324" y2="33.857" gradientUnits="userSpaceOnUse">
<stop stop-color="#546AEA"/>
<stop offset="1" stop-color="#658BFD"/>
</linearGradient>
<linearGradient id="paint69_linear_46_93" x1="39.1635" y1="58.0937" x2="21.5371" y2="9.04035" gradientUnits="userSpaceOnUse">
<stop stop-color="#546AEA"/>
<stop offset="1" stop-color="#658BFD"/>
</linearGradient>
<clipPath id="clip0_46_93">
<rect width="752" height="613" fill="white" transform="translate(0 0.5)"/>
</clipPath>
</defs>
</svg>
