<svg width="689" height="601" viewBox="0 0 689 601" fill="none" xmlns="http://www.w3.org/2000/svg">
<g clip-path="url(#clip0_46_1211)">
<path d="M288.911 40.2517L306.572 37.6732L288.911 35.0947L293.27 28.196L286.363 32.5675L283.781 14.928L281.2 32.5675L274.292 28.196L278.669 35.0947L261.008 37.6732L278.669 40.2517L274.292 47.1504L281.2 42.796L283.781 60.4355L286.363 42.796L293.27 47.1504L288.911 40.2517Z" fill="#F5F5F5"/>
<path d="M466.432 87.33L484.094 84.7516L466.432 82.1731L470.809 75.2744L463.902 79.6459L461.32 62.0063L458.738 79.6459L451.831 75.2744L456.191 82.1731L438.546 84.7516L456.191 87.33L451.831 94.2288L458.738 89.8744L461.32 107.497L463.902 89.8744L470.809 94.2288L466.432 87.33Z" fill="#F5F5F5"/>
<path d="M218.145 163.831L235.806 161.252L218.145 158.674L222.522 151.775L215.614 156.146L213.033 138.507L210.451 156.146L203.544 151.775L207.903 158.674L190.242 161.252L207.903 163.831L203.544 170.729L210.451 166.358L213.033 183.997L215.614 166.358L222.522 170.729L218.145 163.831Z" fill="#F5F5F5"/>
<path d="M68.8509 163.831L86.5125 161.252L68.8509 158.674L73.2278 151.775L66.3205 156.146L63.7388 138.507L61.1571 156.146L54.2498 151.775L58.6096 158.674L40.9481 161.252L58.6096 163.831L54.2498 170.729L61.1571 166.358L63.7388 183.997L66.3205 166.358L73.2278 170.729L68.8509 163.831Z" fill="#F5F5F5"/>
<path d="M153.431 268.831L171.093 266.252L153.431 263.674L157.808 256.775L150.901 261.129L148.319 243.507L145.72 261.129L138.83 256.775L143.19 263.674L125.529 266.252L143.19 268.831L138.83 275.729L145.72 271.358L148.319 288.998L150.901 271.358L157.808 275.729L153.431 268.831Z" fill="#F5F5F5"/>
<path d="M500.353 212.309L518.015 209.731L500.353 207.135L504.73 200.254L497.823 204.608L495.241 186.969L492.659 204.608L485.752 200.254L490.112 207.135L472.45 209.731L490.112 212.309L485.752 219.191L492.659 214.837L495.241 232.476L497.823 214.837L504.73 219.191L500.353 212.309Z" fill="#F5F5F5"/>
<path d="M624.907 368.589L642.569 366.01L624.907 363.432L629.284 356.533L622.377 360.888L619.795 343.248L617.213 360.888L610.306 356.533L614.666 363.432L597.021 366.01L614.666 368.589L610.306 375.488L617.213 371.116L619.795 388.756L622.377 371.116L629.284 375.488L624.907 368.589Z" fill="#F5F5F5"/>
<path d="M477.579 363.159L495.241 360.58L477.579 358.002L481.939 351.103L475.049 355.474L472.45 337.835L469.869 355.474L462.978 351.103L467.338 358.002L449.677 360.58L467.338 363.159L462.978 370.057L469.869 365.703L472.45 383.325L475.049 365.703L481.939 370.057L477.579 363.159Z" fill="#F5F5F5"/>
<path d="M153.431 399.906L171.093 397.328L153.431 394.732L157.808 387.851L150.901 392.205L148.319 374.565L145.72 392.205L138.83 387.851L143.19 394.732L125.529 397.328L143.19 399.906L138.83 406.805L145.72 402.433L148.319 420.073L150.901 402.433L157.808 406.805L153.431 399.906Z" fill="#F5F5F5"/>
<path d="M345.332 319.734L362.993 317.156L345.332 314.577L349.709 307.679L342.801 312.05L340.22 294.411L337.621 312.05L330.731 307.679L335.09 314.577L317.429 317.156L335.09 319.734L330.731 326.633L337.621 322.279L340.22 339.918L342.801 322.279L349.709 326.633L345.332 319.734Z" fill="#F5F5F5"/>
<path d="M245.141 509.688L262.803 507.092L245.141 504.514L249.501 497.615L242.594 501.986L240.012 484.347L237.431 501.986L230.523 497.615L234.9 504.514L217.239 507.092L234.9 509.688L230.523 516.569L237.431 512.215L240.012 529.854L242.594 512.215L249.501 516.569L245.141 509.688Z" fill="#F5F5F5"/>
<path d="M441.607 498.179L459.268 495.583L441.607 493.005L445.967 486.123L439.059 490.477L436.478 472.838L433.896 490.477L426.989 486.123L431.365 493.005L413.704 495.583L431.365 498.179L426.989 505.06L433.896 500.706L436.478 518.345L439.059 500.706L445.967 505.06L441.607 498.179Z" fill="#F5F5F5"/>
<path d="M443.829 179.762C433.332 164.24 428.835 139.89 419.209 130.242C426.662 124.529 434.57 119.434 442.855 115.01C448.753 131.967 452.258 158.281 467.475 164.531C460.023 170.244 452.114 175.338 443.829 179.762Z" fill="#EBEBEB"/>
<path d="M461.611 167.434C460.14 166.46 460.516 164.548 462.312 163.352C451.78 154.9 448.001 135.228 443.231 120.509C442.842 120.685 442.421 120.775 441.994 120.774C441.567 120.773 441.146 120.68 440.758 120.502C440.371 120.324 440.026 120.064 439.748 119.742C439.469 119.419 439.264 119.04 439.145 118.63C434.145 121.397 429.294 124.424 424.612 127.698C424.976 128.559 425.002 129.525 424.685 130.405C424.368 131.284 423.732 132.012 422.902 132.445C430.032 142.503 434.375 161.064 442.171 174.93C443.047 174.605 444.005 174.574 444.9 174.842C445.794 175.11 446.577 175.663 447.129 176.416C452.11 173.677 456.944 170.679 461.611 167.434ZM435.965 150.204C434.409 146.054 435.845 141.546 439.025 140.078C442.205 138.609 445.864 141.051 447.317 145.303C448.771 149.555 447.642 153.961 444.479 155.361C441.316 156.761 437.589 154.388 436.016 150.204H435.965Z" fill="#E0E0E0"/>
<path d="M438.974 149.862L438.119 150.221C438.119 149.948 437.931 149.675 437.828 149.384L438.666 149.026C438.366 148.142 438.278 147.2 438.41 146.276L439.333 146.396C439.218 147.155 439.271 147.93 439.487 148.667L440.974 148.035C440.786 146.806 440.632 145.474 441.692 145.03C442.462 144.688 443.402 145.167 444.052 146.738L444.89 146.362L445.197 147.199L444.359 147.557C444.596 148.29 444.689 149.061 444.633 149.828L443.727 149.726C443.762 149.116 443.699 148.505 443.539 147.916L442.034 148.565C442.222 149.777 442.41 151.126 441.367 151.57C440.598 151.877 439.658 151.399 438.974 149.862ZM441.897 147.643L443.231 147.062C442.889 146.379 442.513 146.191 442.188 146.328C441.863 146.464 441.812 146.994 441.897 147.643ZM440.82 150.272C441.196 150.119 441.214 149.589 441.111 148.923L439.794 149.504C440.136 150.204 440.513 150.409 440.82 150.272Z" fill="#E0E0E0"/>
<path d="M205.065 128.825C190.037 136.919 167.246 137.926 157.74 145.986C152.947 137.913 148.764 129.494 145.225 120.799C161.279 117.384 185.814 117.623 192.55 103.638C197.356 111.704 201.54 120.124 205.065 128.825Z" fill="#EBEBEB"/>
<path d="M194.909 109.768C193.918 111.066 192.157 110.434 191.182 108.504C182.634 117.606 164.254 118.579 150.32 121.192C150.471 121.566 150.538 121.968 150.516 122.371C150.494 122.773 150.384 123.166 150.193 123.521C150.002 123.876 149.735 124.185 149.411 124.426C149.088 124.667 148.715 124.834 148.319 124.914C150.354 129.764 152.765 134.87 155.705 140.283C157.022 139.617 158.954 140.658 159.98 142.605C169.742 137.055 187.164 135.382 200.517 129.696C200.261 128.844 200.289 127.931 200.597 127.096C200.906 126.261 201.478 125.549 202.227 125.068C200.21 120.236 197.833 115.147 194.927 109.7L194.909 109.768ZM177.265 132.411C175.465 132.896 173.55 132.718 171.87 131.909C170.19 131.1 168.859 129.714 168.118 128.005C166.99 124.675 169.486 121.499 173.504 120.645C177.521 119.792 181.522 121.516 182.599 124.795C183.677 128.073 181.215 131.455 177.265 132.411Z" fill="#E0E0E0"/>
<path d="M177.128 129.422C177.231 129.713 177.316 130.003 177.419 130.293L176.632 130.464C176.53 130.174 176.444 129.884 176.359 129.593C175.506 129.766 174.624 129.719 173.794 129.457C173.794 129.166 173.914 128.876 173.965 128.569C174.647 128.8 175.374 128.864 176.085 128.757C175.914 128.244 175.743 127.715 175.59 127.203C174.444 127.203 173.213 127.203 172.854 126.093C172.615 125.29 173.11 124.385 174.564 124.026C174.564 123.736 174.376 123.446 174.29 123.156L175.077 122.985C175.179 123.258 175.265 123.548 175.35 123.839C176.044 123.701 176.759 123.701 177.453 123.839C177.453 124.129 177.368 124.419 177.316 124.727C176.75 124.633 176.173 124.633 175.607 124.727C175.761 125.256 175.931 125.768 176.102 126.298C177.231 126.298 178.496 126.298 178.821 127.356C179.112 128.108 178.599 128.996 177.128 129.422ZM175.282 126.263C175.145 125.802 174.991 125.324 174.854 124.88C174.188 125.102 173.982 125.444 174.102 125.785C174.222 126.127 174.683 126.246 175.282 126.263ZM177.658 127.664C177.539 127.271 177.043 127.203 176.427 127.186C176.581 127.647 176.718 128.108 176.872 128.569C177.539 128.33 177.71 127.988 177.71 127.664H177.658Z" fill="#E0E0E0"/>
<path d="M354.222 106.114C341.451 94.7581 332.697 73.6693 321.874 67.5731C327.825 60.3241 334.317 53.5368 341.297 47.2698C349.999 61.1696 358.189 84.2735 373.645 85.7932C367.69 93.0433 361.197 99.8359 354.222 106.114Z" fill="#EBEBEB"/>
<path d="M368.67 90.0452C367.114 89.55 367.097 87.6887 368.584 86.1177C357.095 81.1828 349.88 64.2946 342.647 52.1536C342.348 52.4261 341.992 52.6288 341.604 52.747C341.217 52.8652 340.808 52.8961 340.407 52.8372C340.006 52.7784 339.624 52.6314 339.287 52.4069C338.95 52.1823 338.667 51.8858 338.459 51.5388C334.595 55.1248 330.611 59.1205 326.491 63.7652C327.568 64.7727 327.243 66.9413 325.755 68.5636C334.304 75.8379 341.861 91.6162 351.795 102.186C352.507 101.653 353.374 101.364 354.265 101.364C355.156 101.364 356.023 101.653 356.736 102.186C360.583 98.6344 364.549 94.6557 368.704 90.0623L368.67 90.0452ZM341.314 81.2169C340.237 79.6974 339.747 77.8397 339.936 75.9874C340.124 74.1352 340.978 72.4138 342.34 71.1421C345.075 68.9222 348.905 70.1858 351.111 73.6693C353.316 77.1528 353.026 81.4901 350.307 83.6246C347.589 85.7591 343.554 84.5979 341.365 81.1827L341.314 81.2169Z" fill="#E0E0E0"/>
<path d="M344.101 80.09L343.366 80.6535L342.938 79.9875L343.656 79.424C343.208 78.6845 342.949 77.8456 342.904 76.9822L343.793 76.8285C343.817 77.5463 344.011 78.2482 344.357 78.8776L345.657 77.8872C345.246 76.8285 344.853 75.6502 345.759 74.9501C346.665 74.25 347.469 74.6257 348.29 75.8552L349.025 75.2916L349.452 75.9747L348.734 76.5211C349.085 77.1384 349.317 77.8161 349.418 78.519L348.546 78.6898C348.473 78.0958 348.299 77.5184 348.033 76.9822L346.734 77.9897C347.144 79.0484 347.571 80.2266 346.734 80.9096C345.896 81.5927 345.041 81.3194 344.101 80.09ZM346.426 77.2724L347.589 76.4016C347.144 75.8552 346.751 75.7868 346.46 76.0088C346.17 76.2308 346.238 76.7089 346.426 77.2724ZM345.93 79.9875C346.238 79.7314 346.152 79.2533 345.93 78.6727L344.785 79.5606C345.263 80.107 345.64 80.1924 345.93 79.9875Z" fill="#E0E0E0"/>
<path d="M394.298 284.199C388.468 268.165 390.879 245.505 384.211 234.935C392.903 231.399 401.847 228.517 410.968 226.312C412.011 242.67 408.199 266.884 421.056 275.593C412.366 279.129 403.421 282.006 394.298 284.199Z" fill="#EBEBEB"/>
<path d="M414.661 276.942C413.516 275.781 414.405 274.141 416.371 273.527C408.609 263.759 410.336 245.437 409.789 231.298C409.394 231.397 408.982 231.407 408.583 231.328C408.184 231.249 407.808 231.083 407.481 230.841C407.154 230.6 406.885 230.289 406.692 229.93C406.5 229.572 406.39 229.176 406.369 228.771C401.24 230.085 395.854 231.708 390.007 233.808C390.469 235.208 389.152 236.967 387.066 237.684C391.135 248.152 390.246 265.621 393.905 279.623C394.786 279.499 395.684 279.662 396.466 280.086C397.247 280.51 397.872 281.174 398.248 281.979C403.377 280.682 408.729 279.076 414.559 276.993L414.661 276.942ZM394.846 256.212C394.623 254.363 395.076 252.497 396.122 250.956C397.169 249.415 398.737 248.304 400.539 247.827C403.958 247.178 406.762 250.115 407.036 254.214C407.31 258.312 405.001 262 401.599 262.598C398.197 263.196 395.17 260.259 394.846 256.212Z" fill="#E0E0E0"/>
<path d="M397.786 256.519L396.88 256.673C396.88 256.4 396.88 256.126 396.88 255.87L397.786 255.717C397.748 254.85 397.924 253.988 398.299 253.206L399.154 253.514C398.828 254.148 398.658 254.85 398.658 255.563L400.283 255.307C400.419 254.18 400.642 252.967 401.77 252.78C402.591 252.643 403.343 253.258 403.48 254.777L404.386 254.641V255.443L403.497 255.58C403.521 256.29 403.405 256.998 403.155 257.663L402.3 257.39C402.509 256.845 402.619 256.266 402.625 255.682L400.915 255.939C400.761 257.066 400.59 258.312 399.462 258.483C398.795 258.671 398.026 258.039 397.786 256.519ZM401.206 255.153L402.642 254.914C402.505 254.231 402.197 253.992 401.838 254.043C401.479 254.094 401.291 254.555 401.189 255.153H401.206ZM399.496 257.288C399.889 257.288 400.043 256.758 400.146 256.143L398.71 256.365C398.812 257.066 399.103 257.339 399.445 257.288H399.496Z" fill="#E0E0E0"/>
<path d="M621.402 218.867C608.631 207.528 599.877 186.422 589.037 180.326C594.996 173.085 601.489 166.299 608.459 160.023C617.179 173.923 625.369 197.026 640.825 198.546C634.87 205.796 628.377 212.589 621.402 218.867Z" fill="#EBEBEB"/>
<path d="M635.918 202.798C634.362 202.303 634.345 200.442 635.918 198.871C624.428 193.987 617.111 177.048 609.981 164.872C609.682 165.145 609.325 165.347 608.938 165.466C608.551 165.584 608.142 165.615 607.741 165.556C607.34 165.497 606.958 165.35 606.621 165.126C606.284 164.901 606.001 164.605 605.792 164.258C601.928 167.844 597.945 171.839 593.824 176.484C594.901 177.491 594.576 179.66 593.089 181.282C601.638 188.557 609.195 204.335 619.128 214.905C619.841 214.372 620.708 214.083 621.599 214.083C622.49 214.083 623.356 214.372 624.069 214.905C627.916 211.353 631.883 207.374 636.037 202.781L635.918 202.798ZM608.562 193.97C607.485 192.45 606.995 190.593 607.184 188.74C607.372 186.888 608.227 185.167 609.588 183.895C612.306 181.675 616.153 182.939 618.342 186.422C620.53 189.906 620.274 194.243 617.555 196.378C614.837 198.512 610.768 197.385 608.562 193.97Z" fill="#E0E0E0"/>
<path d="M611.281 192.843L610.545 193.406L610.118 192.74L610.836 192.177C610.387 191.437 610.129 190.598 610.084 189.735L610.973 189.598C611 190.31 611.193 191.006 611.537 191.63L612.819 190.64C612.426 189.581 612.033 188.403 612.939 187.703C613.845 187.003 614.649 187.378 615.469 188.608L616.205 188.044C616.341 188.283 616.495 188.505 616.632 188.727L615.914 189.291C616.267 189.901 616.499 190.574 616.598 191.272L615.726 191.442C615.643 190.878 615.47 190.33 615.213 189.82L613.914 190.828C614.324 191.886 614.751 193.065 613.914 193.748C613.076 194.431 612.204 194.072 611.281 192.843ZM613.606 190.025L614.768 189.154C614.324 188.608 613.931 188.54 613.64 188.762C613.349 188.984 613.418 189.462 613.691 190.025H613.606ZM613.093 192.74C613.418 192.484 613.332 192.006 613.093 191.425L611.947 192.313C612.443 192.86 612.819 192.945 613.093 192.74Z" fill="#E0E0E0"/>
<path d="M318.54 185.193C307.068 199.981 296.587 215.776 291.954 232.664C284.226 229.471 276.293 226.26 268.548 222.521C274.617 204.95 285.098 189.547 295.134 175.05C302.862 178.243 310.795 181.453 318.54 185.193Z" fill="#EBEBEB"/>
<path d="M298.724 177.987C298.149 178.759 297.338 179.325 296.413 179.599C295.488 179.873 294.5 179.841 293.595 179.506C285.32 191.579 277.045 204.335 271.471 218.44C272.316 218.888 272.974 219.623 273.325 220.512C273.676 221.401 273.698 222.386 273.386 223.289C278.225 225.509 283.115 227.575 287.953 229.59C288.074 229.17 288.284 228.78 288.569 228.448C288.853 228.115 289.206 227.848 289.603 227.663C290 227.479 290.433 227.382 290.871 227.378C291.308 227.375 291.742 227.465 292.142 227.644C296.844 213.983 305.102 200.937 314.266 188.642C313.866 188.467 313.513 188.199 313.236 187.862C312.959 187.524 312.766 187.126 312.673 186.7C312.579 186.273 312.588 185.831 312.699 185.409C312.809 184.987 313.018 184.597 313.308 184.271C308.453 182.051 303.58 179.984 298.741 177.969L298.724 177.987ZM297.22 205.838C296.309 207.518 294.81 208.806 293.01 209.454C291.209 210.103 289.233 210.068 287.457 209.355C286.631 208.961 285.897 208.396 285.304 207.698C284.711 207.001 284.273 206.186 284.018 205.307C283.763 204.428 283.696 203.505 283.824 202.599C283.951 201.693 284.269 200.824 284.756 200.049C285.733 198.369 287.285 197.099 289.126 196.471C290.967 195.844 292.973 195.901 294.775 196.634C295.597 197.019 296.326 197.58 296.908 198.277C297.49 198.973 297.913 199.789 298.146 200.666C298.379 201.543 298.417 202.461 298.257 203.354C298.097 204.248 297.743 205.095 297.22 205.838Z" fill="#E0E0E0"/>
<path d="M294.689 203.891L295.613 204.318L295.219 205.001L294.296 204.574C293.85 205.302 293.211 205.893 292.45 206.282L291.817 205.513C292.457 205.196 293.004 204.719 293.407 204.13L291.697 203.361C290.945 204.198 289.988 205.069 288.928 204.523C288.09 204.13 287.697 203.157 288.329 201.791L287.406 201.364L287.799 200.681L288.723 201.107C289.103 200.513 289.619 200.015 290.227 199.656L290.86 200.373C290.375 200.672 289.952 201.061 289.612 201.517L291.321 202.303C292.091 201.466 293.031 200.595 294.142 201.125C294.98 201.551 295.339 202.508 294.689 203.891ZM290.757 202.935L289.287 202.252C289.03 202.883 289.184 203.276 289.543 203.447C289.902 203.618 290.33 203.361 290.757 202.935ZM293.578 202.269C293.168 202.081 292.757 202.269 292.33 202.798L293.8 203.464C294.057 202.815 293.971 202.422 293.578 202.269Z" fill="#E0E0E0"/>
<path d="M610.067 272.758C598.577 287.529 588.114 303.341 583.48 320.23C575.752 317.036 567.819 313.826 560.074 310.086C566.144 292.515 576.624 277.096 586.643 262.615C594.389 265.808 602.322 269.019 610.067 272.758Z" fill="#EBEBEB"/>
<path d="M590.251 265.604C589.679 266.382 588.869 266.953 587.944 267.23C587.018 267.507 586.028 267.476 585.122 267.14C576.847 279.213 568.571 291.952 562.998 306.074C563.843 306.522 564.5 307.257 564.851 308.146C565.202 309.035 565.224 310.02 564.913 310.923C569.751 313.143 574.641 315.209 579.48 317.224C579.598 316.802 579.806 316.411 580.091 316.077C580.375 315.743 580.728 315.474 581.126 315.289C581.524 315.104 581.957 315.008 582.396 315.006C582.835 315.003 583.269 315.096 583.668 315.278C588.37 301.531 596.628 288.554 605.792 276.276C605.393 276.1 605.042 275.832 604.765 275.495C604.489 275.158 604.295 274.761 604.201 274.336C604.106 273.911 604.112 273.469 604.219 273.047C604.327 272.625 604.532 272.233 604.818 271.905C599.979 269.685 595.107 267.618 590.268 265.604H590.251ZM588.746 293.54C587.835 295.221 586.337 296.508 584.536 297.157C582.736 297.805 580.76 297.77 578.984 297.058C578.154 296.663 577.418 296.098 576.824 295.399C576.229 294.7 575.79 293.883 575.535 293.002C575.28 292.121 575.214 291.196 575.343 290.288C575.472 289.38 575.792 288.509 576.282 287.734C577.269 286.056 578.831 284.792 580.68 284.176C582.529 283.561 584.538 283.636 586.336 284.387C587.137 284.778 587.846 285.338 588.412 286.026C588.979 286.715 589.39 287.518 589.619 288.379C589.848 289.241 589.888 290.142 589.737 291.02C589.587 291.899 589.249 292.735 588.746 293.472V293.54Z" fill="#E0E0E0"/>
<path d="M586.216 291.457L587.139 291.883L586.746 292.566L585.823 292.14C585.361 292.861 584.719 293.45 583.959 293.847L583.344 293.079C583.983 292.761 584.531 292.285 584.934 291.696L583.224 290.927C582.472 291.747 581.514 292.635 580.454 292.088C579.616 291.696 579.223 290.722 579.856 289.356L578.933 288.929C579.052 288.69 579.189 288.468 579.326 288.246L580.249 288.673C580.624 288.074 581.141 287.576 581.753 287.222L582.369 287.939C581.893 288.243 581.476 288.631 581.138 289.083L582.848 289.851C583.617 289.032 584.557 288.144 585.669 288.69C586.507 289.117 586.849 290.073 586.216 291.457ZM582.284 290.5L580.813 289.817C580.557 290.449 580.711 290.842 581.07 291.013C581.429 291.183 581.856 290.927 582.284 290.5ZM585.105 289.834C584.694 289.646 584.284 289.92 583.857 290.364L585.31 291.03C585.583 290.381 585.464 289.988 585.105 289.834Z" fill="#E0E0E0"/>
<path d="M536.36 73.806C535.454 55.1761 518.784 42.352 517.861 23.7221L541.797 14.928C542.72 33.5579 559.39 46.382 560.313 65.0119L536.36 73.806Z" fill="#EBEBEB"/>
<path d="M555.56 65.251C555.461 64.2778 555.674 63.2984 556.169 62.4542C556.664 61.61 557.415 60.945 558.313 60.5551C555.424 46.0576 543.866 34.7703 541.011 20.2728C540.614 20.4473 540.18 20.5231 539.747 20.4937C539.314 20.4643 538.895 20.3306 538.525 20.104C538.156 19.8774 537.846 19.5647 537.624 19.1926C537.402 18.8205 537.273 18.4001 537.249 17.9675L522.374 23.4489C522.475 24.4201 522.264 25.3981 521.773 26.242C521.281 27.086 520.534 27.7522 519.639 28.1448C522.494 42.6424 534.069 53.9467 536.941 68.4442C537.336 68.2694 537.767 68.1929 538.198 68.2213C538.629 68.2496 539.046 68.382 539.415 68.6071C539.783 68.8321 540.091 69.1431 540.312 69.5133C540.534 69.8835 540.662 70.3018 540.686 70.7324L555.543 65.251H555.56ZM532.565 46.4674C532.1 45.7026 531.815 44.843 531.73 43.9528C531.645 43.0625 531.762 42.1646 532.072 41.3258C532.383 40.487 532.879 39.7291 533.524 39.1085C534.169 38.4879 534.945 38.0206 535.796 37.7415C537.657 37.1327 539.67 37.1804 541.5 37.8766C543.33 38.5728 544.865 39.8754 545.849 41.5666C546.317 42.3295 546.606 43.1882 546.694 44.0785C546.782 44.9687 546.667 45.8673 546.357 46.7068C546.048 47.5464 545.553 48.3051 544.908 48.9261C544.263 49.547 543.486 50.0142 542.635 50.2924C540.773 50.8822 538.766 50.8175 536.946 50.1092C535.126 49.4008 533.604 48.0915 532.633 46.3991L532.565 46.4674Z" fill="#E0E0E0"/>
<path d="M536.121 45.9208L535.129 46.2793L534.753 45.6134L535.728 45.2377C535.339 44.5421 535.195 43.7366 535.317 42.9495H536.412C536.301 43.5927 536.39 44.2542 536.668 44.845L538.378 44.1961C538.104 43.1886 537.882 42.0786 539.096 41.6347C539.643 41.4793 540.227 41.5166 540.75 41.7405C541.273 41.9644 541.703 42.3611 541.968 42.8641L542.96 42.5056L543.353 43.1886L542.361 43.5472C542.66 44.1266 542.802 44.7743 542.772 45.4255H541.695C541.721 44.9047 541.627 44.3849 541.421 43.9058L539.711 44.5717C539.985 45.5792 540.241 46.6892 539.01 47.1331C538.462 47.2977 537.875 47.2667 537.347 47.0454C536.82 46.8242 536.386 46.4266 536.121 45.9208ZM539.54 43.8546L541.096 43.274C540.669 42.7275 540.224 42.5909 539.831 42.7275C539.438 42.8641 539.386 43.3252 539.506 43.8546H539.54ZM538.36 46.1427C538.788 45.9891 538.788 45.5451 538.668 44.9986L537.112 45.5622C537.506 46.1427 537.95 46.2793 538.326 46.1427H538.36Z" fill="#E0E0E0"/>
<path d="M51.8391 294.462C50.9158 275.832 34.2459 263.008 33.3227 244.378L57.2589 235.584C58.1822 254.214 74.8521 267.038 75.7753 285.651L51.8391 294.462Z" fill="#EBEBEB"/>
<path d="M71.1078 285.907C71.0072 284.936 71.2178 283.958 71.7094 283.114C72.201 282.27 72.9483 281.604 73.8433 281.211C70.971 266.714 59.4132 255.426 56.5408 240.912C56.1454 241.09 55.7123 241.169 55.2792 241.143C54.8461 241.116 54.426 240.985 54.0555 240.759C53.6849 240.534 53.375 240.221 53.1526 239.849C52.9302 239.477 52.8021 239.056 52.7794 238.624L37.9218 244.105C38.0158 245.077 37.8003 246.055 37.3061 246.898C36.812 247.741 36.0642 248.407 35.1692 248.801C38.0415 263.298 49.5993 274.603 52.4717 289.1C52.8671 288.922 53.3002 288.842 53.7333 288.869C54.1664 288.896 54.5864 289.027 54.957 289.253C55.3275 289.478 55.6376 289.791 55.8599 290.163C56.0823 290.535 56.2104 290.956 56.2331 291.388L71.1078 285.907ZM48.0948 267.123C47.6306 266.359 47.3454 265.499 47.2601 264.609C47.1749 263.719 47.2919 262.821 47.6025 261.982C47.9131 261.143 48.4094 260.385 49.0541 259.764C49.6988 259.144 50.4755 258.677 51.3262 258.398C53.1923 257.768 55.2188 257.802 57.063 258.492C58.9073 259.183 60.4562 260.489 61.4478 262.188C61.9155 262.951 62.2043 263.81 62.2923 264.7C62.3804 265.591 62.2654 266.489 61.9562 267.329C61.6469 268.168 61.1513 268.927 60.5066 269.548C59.8619 270.169 59.0847 270.636 58.2335 270.914C56.3574 271.542 54.3214 271.501 52.4725 270.797C50.6236 270.093 49.0765 268.771 48.0948 267.055V267.123Z" fill="#E0E0E0"/>
<path d="M51.5826 266.577L50.591 266.935L50.2148 266.252L51.1894 265.894C50.814 265.194 50.676 264.391 50.7962 263.606H51.8903C51.7693 264.254 51.8592 264.924 52.1468 265.518L53.8566 264.869C53.5659 263.862 53.3436 262.752 54.5746 262.308C55.122 262.156 55.705 262.195 56.2273 262.418C56.7495 262.642 57.1798 263.036 57.447 263.537L58.4387 263.179L58.8148 263.862L57.8403 264.22C58.1484 264.796 58.2849 265.448 58.2335 266.099H57.1564C57.1825 265.578 57.089 265.058 56.8828 264.579L55.1731 265.245C55.4638 266.252 55.7031 267.362 54.4892 267.806C53.9371 267.971 53.3451 267.938 52.8147 267.713C52.2843 267.489 51.8486 267.087 51.5826 266.577ZM55.0021 264.511L56.5751 263.93C56.4513 263.711 56.2586 263.538 56.0267 263.44C55.7949 263.341 55.537 263.321 55.2928 263.384C54.8483 263.537 54.8483 263.981 54.9679 264.511H55.0021ZM53.8224 266.799C54.2669 266.645 54.2669 266.201 54.1301 265.655L52.5743 266.218C52.9846 266.799 53.4121 266.935 53.7882 266.799H53.8224Z" fill="#E0E0E0"/>
<path d="M112.911 73.4302C106.397 91.3941 83.8453 91.0355 76.4251 106.267C69.4835 100.171 62.7472 94.3141 56.028 89.0889C62.5249 71.1249 85.0933 71.4835 92.5136 56.2517C99.438 62.3991 106.277 68.1537 112.911 73.4302Z" fill="#EBEBEB"/>
<path d="M95.8305 60.811C94.9585 62.4162 92.8043 62.3991 91.2313 60.9988C83.1272 71.5518 66.6796 73.2936 59.2252 85.6225C59.9527 86.2665 60.4534 87.1272 60.6536 88.0773C60.8537 89.0275 60.7425 90.0167 60.3364 90.8989C64.5196 94.3141 68.7711 97.9229 73.0911 101.725C73.963 100.137 76.1173 100.137 77.6731 101.537C85.7773 90.9843 102.225 89.2426 109.696 76.9137C108.968 76.274 108.466 75.4163 108.266 74.4684C108.066 73.5205 108.178 72.5334 108.585 71.6543C104.379 68.2391 100.122 64.6303 95.8134 60.8281L95.8305 60.811ZM89.761 86.425C86.4783 88.1326 81.2978 87.1763 78.0493 84.2563C74.8008 81.3363 74.6299 77.4259 78.0493 75.7183C81.4688 74.0107 86.598 74.967 89.7781 77.9041C92.9582 80.8411 93.0265 84.7345 89.761 86.4592V86.425Z" fill="#E0E0E0"/>
<path d="M87.6238 83.6075C87.9315 83.8808 88.2222 84.1369 88.4958 84.4101L87.8632 84.7516L86.9912 83.9661C86.1909 84.3173 85.314 84.4584 84.4437 84.3759C84.2898 84.0856 84.153 83.7783 83.9992 83.4709C84.7288 83.5522 85.4673 83.4586 86.1534 83.1977L84.5975 81.7633C84.0363 81.9938 83.4239 82.071 82.823 81.987C82.2221 81.903 81.6543 81.6607 81.1781 81.2852C80.9686 81.1499 80.7996 80.9607 80.6889 80.7374C80.5783 80.5142 80.5301 80.2653 80.5493 80.0169C80.5686 79.7685 80.6546 79.53 80.7984 79.3264C80.9422 79.1228 81.1384 78.9619 81.3662 78.8604L80.4771 78.0578L81.1097 77.7163L81.9817 78.5018C82.6327 78.2163 83.3399 78.0821 84.0504 78.1091L84.5121 78.997C83.9305 78.9869 83.3517 79.0794 82.8023 79.2702L84.3924 80.7217C84.9494 80.4759 85.5638 80.3889 86.1673 80.4703C86.7708 80.5516 87.34 80.7982 87.8118 81.1827C88.0164 81.3214 88.1807 81.5116 88.288 81.7341C88.3953 81.9566 88.4417 82.2035 88.4226 82.4497C88.4035 82.6959 88.3195 82.9326 88.1793 83.136C88.039 83.3393 87.8473 83.502 87.6238 83.6075ZM83.6743 80.9095L82.2723 79.6288C82.1804 79.6854 82.1045 79.7645 82.0518 79.8587C81.9992 79.9528 81.9716 80.0589 81.9716 80.1667C81.9716 80.2745 81.9992 80.3806 82.0518 80.4747C82.1045 80.5689 82.1804 80.648 82.2723 80.7046C82.4742 80.8447 82.7059 80.9361 82.9491 80.9716C83.1924 81.0072 83.4407 80.9859 83.6743 80.9095ZM86.9228 81.7804C86.7048 81.6328 86.4555 81.5375 86.1946 81.502C85.9336 81.4664 85.6679 81.4916 85.4183 81.5755L86.8031 82.8391C87.2648 82.4634 87.2477 82.0878 86.9057 81.7804H86.9228Z" fill="#E0E0E0"/>
<path d="M130.435 327.487C123.938 345.451 101.37 345.092 93.9498 360.324C87.1109 354.228 80.272 348.371 73.5527 343.146C80.0668 325.182 102.618 325.54 110.038 310.308C116.98 316.404 123.802 322.21 130.435 327.487Z" fill="#EBEBEB"/>
<path d="M113.355 314.868C112.483 316.456 110.346 316.456 108.773 315.055C100.669 325.608 84.2214 327.35 76.7499 339.679C77.4826 340.319 77.9884 341.179 78.1918 342.13C78.3951 343.081 78.2851 344.072 77.8783 344.956C82.0614 348.371 86.313 351.979 90.6329 355.782C91.5049 354.194 93.642 354.194 95.215 355.594C103.302 345.041 119.767 343.299 127.221 330.97C126.493 330.331 125.991 329.473 125.791 328.525C125.59 327.577 125.702 326.59 126.11 325.711C121.915 322.296 117.664 318.687 113.355 314.885V314.868ZM107.286 340.482C104.02 342.189 98.8225 341.233 95.5911 338.313C92.3597 335.393 92.1716 331.483 95.5911 329.775C99.0106 328.067 104.14 329.024 107.303 331.961C110.466 334.898 110.551 338.791 107.286 340.516V340.482Z" fill="#E0E0E0"/>
<path d="M105.166 337.664L106.038 338.467L105.405 338.808L104.533 338.006C103.731 338.373 102.846 338.521 101.968 338.433C101.832 338.125 101.678 337.835 101.541 337.528C102.272 337.61 103.012 337.511 103.695 337.237L102.122 335.82C101.562 336.059 100.946 336.14 100.343 336.052C99.7397 335.965 99.1722 335.713 98.7028 335.325C98.4977 335.188 98.3328 335 98.225 334.778C98.1172 334.557 98.0704 334.311 98.0895 334.066C98.1087 333.82 98.1931 333.585 98.3339 333.383C98.4748 333.181 98.6671 333.02 98.891 332.917L98.019 332.114L98.6516 331.773L99.5236 332.558C100.17 332.276 100.87 332.136 101.575 332.149L102.054 333.054C101.472 333.033 100.891 333.126 100.344 333.327L101.917 334.761C102.478 334.531 103.091 334.454 103.692 334.538C104.293 334.622 104.86 334.864 105.337 335.239C105.542 335.377 105.707 335.566 105.816 335.787C105.925 336.009 105.973 336.255 105.955 336.501C105.938 336.747 105.856 336.985 105.717 337.189C105.578 337.393 105.388 337.557 105.166 337.664ZM101.182 334.949L99.7971 333.685C99.3183 334.061 99.3696 334.437 99.7971 334.761C99.9983 334.896 100.228 334.983 100.468 335.015C100.708 335.048 100.952 335.025 101.182 334.949ZM104.448 335.837C104.228 335.687 103.975 335.59 103.711 335.554C103.447 335.519 103.178 335.545 102.926 335.632L104.311 336.896C104.79 336.52 104.772 336.144 104.448 335.837Z" fill="#E0E0E0"/>
<path d="M331.5 575.669C514.582 575.669 663 567.015 663 556.339C663 545.664 514.582 537.009 331.5 537.009C148.418 537.009 0 545.664 0 556.339C0 567.015 148.418 575.669 331.5 575.669Z" fill="#F5F5F5"/>
<path d="M198.004 58.0106C181.642 48.8578 166.665 29.118 153.773 24.8319C157.852 16.3852 162.628 8.29176 168.05 0.635254C180.941 13.1178 195.918 35.0775 212.28 33.7627C208.196 42.223 203.421 50.333 198.004 58.0106Z" fill="#407BFF"/>
<path opacity="0.5" d="M198.004 58.0106C181.642 48.8578 166.665 29.118 153.773 24.8319C157.852 16.3852 162.628 8.29176 168.05 0.635254C180.941 13.1178 195.918 35.0775 212.28 33.7627C208.196 42.223 203.421 50.333 198.004 58.0106Z" fill="white"/>
<path opacity="0.2" d="M208.348 39.0222C206.638 38.8173 206.074 36.939 207.134 35.0606C193.935 32.226 181.693 16.277 170.819 5.3313C170.555 5.668 170.22 5.94285 169.837 6.13661C169.455 6.33036 169.035 6.43834 168.607 6.45298C168.179 6.46762 167.752 6.38855 167.358 6.22134C166.963 6.05413 166.61 5.80282 166.323 5.48498C163.105 10.2075 160.131 15.092 157.415 20.1191C158.127 20.724 158.586 21.5741 158.7 22.5009C158.814 23.4276 158.575 24.3633 158.031 25.1224C168.922 30.9282 181.146 45.6136 194.362 54.4418C194.998 53.7476 195.845 53.2826 196.773 53.1189C197.701 52.9552 198.656 53.1022 199.492 53.5368C202.705 48.8497 205.672 43.9993 208.382 39.0052L208.348 39.0222ZM177.71 35.0777C174.461 32.0552 173.709 27.3935 175.897 24.6613C178.086 21.9292 182.411 22.4756 185.66 25.6005C188.908 28.7254 189.832 33.1822 187.643 35.8461C185.455 38.5099 180.958 38.1684 177.71 35.0777Z" fill="#1E1E1E"/>
<g opacity="0.2">
<path d="M180.206 33.4723L179.624 34.1725L178.975 33.5748C179.18 33.3357 179.368 33.0967 179.573 32.8747C178.904 32.2158 178.4 31.4084 178.103 30.5182L178.992 30.2108C179.219 30.9489 179.611 31.626 180.137 32.1916C180.479 31.7647 180.838 31.3549 181.18 30.9451C180.462 29.9376 179.727 28.8106 180.462 27.9397C181.197 27.0688 182.052 27.3079 183.335 28.3837C183.54 28.1617 183.728 27.9226 183.933 27.6836L184.566 28.2983L183.984 28.9984C184.522 29.5381 184.952 30.1757 185.249 30.8768L184.395 31.2183C184.156 30.6514 183.827 30.1267 183.42 29.6644L182.36 30.928C183.078 31.9355 183.847 33.0454 183.112 33.9163C182.377 34.7872 181.522 34.5481 180.206 33.4723ZM181.83 30.1767L182.753 29.0667C182.155 28.6057 181.727 28.6057 181.505 28.8789C181.283 29.1521 181.471 29.6302 181.83 30.1767ZM182.069 33.0113C182.326 32.7039 182.069 32.2429 181.71 31.6793L180.787 32.7893C181.42 33.2674 181.83 33.3699 182.069 33.0113Z" fill="#1E1E1E"/>
</g>
<path d="M338.424 130.276C323.379 138.387 300.605 139.395 291.099 147.455C286.299 139.385 282.116 130.965 278.584 122.268C294.638 118.852 319.173 119.074 325.909 105.089C330.709 113.159 334.892 121.578 338.424 130.276Z" fill="#407BFF"/>
<path opacity="0.5" d="M338.424 130.276C323.379 138.387 300.605 139.395 291.099 147.455C286.299 139.385 282.116 130.965 278.584 122.268C294.638 118.852 319.173 119.074 325.909 105.089C330.709 113.159 334.892 121.578 338.424 130.276Z" fill="white"/>
<path opacity="0.2" d="M328.166 111.219C327.174 112.517 325.431 111.885 324.456 109.973C315.907 119.074 297.511 120.048 283.593 122.643C283.744 123.019 283.811 123.424 283.788 123.829C283.765 124.233 283.653 124.628 283.461 124.985C283.268 125.341 283 125.651 282.674 125.893C282.348 126.135 281.973 126.302 281.576 126.383C283.628 131.233 286.021 136.338 288.962 141.751C290.295 141.102 292.227 142.127 293.236 144.091C303.016 138.541 320.438 136.868 333.774 131.181C333.522 130.326 333.552 129.413 333.86 128.577C334.168 127.74 334.737 127.025 335.484 126.537C333.449 121.687 331.073 116.615 328.166 111.168V111.219ZM310.556 133.811C308.758 134.307 306.841 134.133 305.161 133.323C303.482 132.512 302.154 131.12 301.426 129.405C300.28 126.093 302.777 122.917 306.812 122.046C310.846 121.175 314.813 122.934 315.89 126.212C316.967 129.491 314.488 132.906 310.556 133.811Z" fill="#1E1E1E"/>
<g opacity="0.2">
<path d="M310.436 130.874C310.539 131.164 310.624 131.455 310.71 131.745L309.923 131.933C309.838 131.642 309.735 131.352 309.65 131.062C308.796 131.223 307.916 131.177 307.085 130.925C307.085 130.618 307.205 130.327 307.273 130.037C307.949 130.268 308.67 130.332 309.376 130.225C309.222 129.696 309.051 129.183 308.88 128.654C307.752 128.654 306.504 128.654 306.162 127.561C305.905 126.759 306.401 125.854 307.872 125.495C307.769 125.188 307.683 124.897 307.581 124.607L308.384 124.436C308.384 124.727 308.555 125.017 308.658 125.307C309.352 125.162 310.068 125.162 310.761 125.307L310.607 126.178C310.041 126.083 309.463 126.083 308.897 126.178C309.068 126.69 309.239 127.22 309.393 127.749C310.539 127.749 311.787 127.749 312.129 128.808C312.419 129.559 311.907 130.413 310.436 130.874ZM308.59 127.715C308.436 127.254 308.299 126.793 308.145 126.332C307.495 126.571 307.29 126.912 307.393 127.254C307.495 127.595 307.991 127.698 308.59 127.715ZM310.949 129.115C310.829 128.739 310.351 128.654 309.735 128.654C309.872 129.115 310.026 129.576 310.163 130.037C310.846 129.781 311.069 129.457 310.949 129.115Z" fill="#1E1E1E"/>
</g>
<path d="M461.32 22.6804C443.573 28.657 426.117 36.0509 412.9 47.5772C408.216 40.6444 403.394 33.592 399 26.2151C413.789 14.9108 431.041 7.84137 447.42 1.30127C452.105 8.23412 456.926 15.2865 461.32 22.6804Z" fill="#407BFF"/>
<path opacity="0.5" d="M461.32 22.6804C443.573 28.657 426.117 36.0509 412.9 47.5772C408.216 40.6444 403.394 33.592 399 26.2151C413.789 14.9108 431.041 7.84137 447.42 1.30127C452.105 8.23412 456.926 15.2865 461.32 22.6804Z" fill="white"/>
<path opacity="0.2" d="M448.788 5.72384C447.88 6.05747 446.888 6.08625 445.962 5.80582C445.036 5.52538 444.228 4.95103 443.658 4.16992C430.083 9.65132 416.132 15.7133 403.685 24.405C404.149 25.2463 404.295 26.2259 404.098 27.1659C403.9 28.106 403.371 28.944 402.608 29.5278C405.412 34.0529 408.335 38.4585 411.259 42.8129C411.592 42.5276 411.983 42.3176 412.404 42.1973C412.826 42.0769 413.269 42.049 413.703 42.1155C414.136 42.182 414.55 42.3413 414.916 42.5825C415.283 42.8237 415.592 43.1411 415.824 43.513C427.348 34.6335 441.47 28.3837 455.832 23.2097C455.597 22.8413 455.451 22.4228 455.408 21.988C455.365 21.5533 455.425 21.1145 455.583 20.7071C455.741 20.2998 455.993 19.9354 456.319 19.6433C456.644 19.3513 457.034 19.1398 457.456 19.0261C454.652 14.518 451.728 10.1124 448.805 5.758L448.788 5.72384ZM432.101 28.2471C430.41 29.1461 428.448 29.3924 426.587 28.9388C424.727 28.4853 423.099 27.3638 422.013 25.7881C421.541 25.0023 421.241 24.1255 421.133 23.2156C421.025 22.3056 421.111 21.3831 421.386 20.5087C421.66 19.6344 422.117 18.828 422.726 18.1428C423.336 17.4575 424.083 16.9089 424.92 16.533C426.673 15.6701 428.68 15.4732 430.567 15.979C432.455 16.4848 434.093 17.6588 435.178 19.2822C435.637 20.0578 435.922 20.9234 436.013 21.8195C436.104 22.7156 436 23.6209 435.708 24.4729C435.415 25.325 434.941 26.1036 434.319 26.7552C433.696 27.4067 432.939 27.9157 432.101 28.2471Z" fill="#1E1E1E"/>
<g opacity="0.2">
<path d="M431.109 25.1052L431.639 25.976L430.921 26.3175L430.391 25.4637C429.607 25.8287 428.739 25.9761 427.878 25.8906C427.878 25.5662 427.878 25.2247 427.792 24.9002C428.499 24.991 429.218 24.8968 429.878 24.627L428.921 23.0731C427.826 23.3463 426.63 23.5854 425.98 22.5096C425.484 21.7241 425.706 20.6995 426.989 19.914L426.441 19.0261L427.16 18.6846L427.69 19.5384C428.337 19.2607 429.038 19.1323 429.741 19.1627C429.741 19.4871 429.827 19.7945 429.878 20.119C429.297 20.0973 428.717 20.1841 428.168 20.3751C428.493 20.9045 428.801 21.4338 429.126 21.9461C430.22 21.69 431.451 21.4509 432.118 22.5267C432.631 23.3122 432.46 24.3026 431.109 25.1052ZM428.356 22.1339L427.501 20.7508C426.937 21.1435 426.852 21.5533 427.057 21.8949C427.262 22.2364 427.758 22.2535 428.356 22.1339ZM431.075 23.1414C430.835 22.7487 430.34 22.7657 429.741 22.8853L430.579 24.2514C431.16 23.8586 431.28 23.4659 431.075 23.1243V23.1414Z" fill="#1E1E1E"/>
</g>
<path d="M148.866 204.728C135.941 191.272 114.928 192.535 102.003 179.114C106.072 171.691 110.147 164.263 114.227 156.829C127.153 170.285 148.165 169.039 161.091 182.443C157.022 189.866 152.947 197.294 148.866 204.728Z" fill="#407BFF"/>
<path opacity="0.5" d="M148.866 204.728C135.941 191.272 114.928 192.535 102.003 179.114C106.072 171.691 110.147 164.263 114.227 156.829C127.153 170.285 148.165 169.039 161.091 182.443C157.022 189.866 152.947 197.294 148.866 204.728Z" fill="white"/>
<path opacity="0.2" d="M157.791 185.654C157.072 184.988 156.585 184.111 156.4 183.149C156.216 182.188 156.344 181.193 156.765 180.309C145.071 171.259 128.931 170.32 117.236 161.252C117.053 161.645 116.777 161.986 116.431 162.248C116.086 162.51 115.682 162.684 115.254 162.754C114.827 162.825 114.388 162.79 113.977 162.654C113.565 162.517 113.194 162.282 112.894 161.969L105.285 175.869C105.998 176.536 106.479 177.411 106.661 178.369C106.842 179.326 106.714 180.317 106.294 181.197C117.989 190.264 134.128 191.203 145.823 200.271C146.005 199.877 146.28 199.534 146.624 199.27C146.969 199.007 147.373 198.831 147.8 198.759C148.228 198.687 148.667 198.72 149.079 198.855C149.492 198.991 149.865 199.225 150.166 199.537L157.774 185.654H157.791ZM128.042 186.508C127.19 186.233 126.41 185.77 125.762 185.153C125.113 184.537 124.612 183.782 124.295 182.946C123.978 182.109 123.854 181.212 123.931 180.321C124.008 179.43 124.286 178.568 124.742 177.799C125.749 176.121 127.301 174.839 129.141 174.168C130.98 173.497 132.994 173.476 134.847 174.11C135.699 174.379 136.48 174.837 137.131 175.449C137.781 176.062 138.285 176.813 138.604 177.647C138.923 178.481 139.049 179.377 138.973 180.266C138.896 181.156 138.62 182.017 138.163 182.785C137.165 184.454 135.626 185.733 133.801 186.41C131.976 187.087 129.975 187.121 128.127 186.508H128.042Z" fill="#1E1E1E"/>
<g opacity="0.2">
<path d="M130.35 183.861C130.196 184.168 130.025 184.475 129.854 184.783L129.119 184.51L129.615 183.605C128.871 183.318 128.236 182.804 127.802 182.136L128.657 181.453C129.003 182.011 129.509 182.452 130.111 182.717C130.401 182.17 130.709 181.624 131.017 181.009C130.145 180.428 129.307 179.745 129.871 178.601C130.18 178.123 130.646 177.768 131.189 177.596C131.732 177.425 132.318 177.448 132.846 177.662L133.359 176.723L134.094 176.996L133.581 177.901C134.189 178.143 134.721 178.544 135.12 179.062L134.299 179.745C133.974 179.344 133.566 179.018 133.103 178.789L132.197 180.497C133.068 181.077 133.906 181.76 133.359 182.904C133.045 183.386 132.574 183.744 132.025 183.918C131.477 184.092 130.885 184.072 130.35 183.861ZM131.547 180.087C131.82 179.592 132.094 179.114 132.35 178.618C131.666 178.482 131.239 178.618 131.051 179.045C130.863 179.472 131.119 179.762 131.547 180.087ZM132.179 182.58C132.402 182.17 132.179 181.846 131.649 181.504L130.846 182.956C131.547 183.109 131.974 182.921 132.179 182.58Z" fill="#1E1E1E"/>
</g>
<path d="M571.769 136.27C559.561 150.989 538.532 143.1 526.324 154.866C521.862 146.789 517.399 139.019 512.937 131.813C525.144 117.094 546.174 124.983 558.382 113.217C562.844 121.294 567.306 128.996 571.769 136.27Z" fill="#407BFF"/>
<path opacity="0.5" d="M571.769 136.27C559.561 150.989 538.532 143.1 526.324 154.866C521.862 146.789 517.399 139.019 512.937 131.813C525.144 117.094 546.174 124.983 558.382 113.217C562.844 121.294 567.306 128.996 571.769 136.27Z" fill="white"/>
<path opacity="0.2" d="M559.954 118.63C558.604 119.843 556.535 119.109 555.578 117.264C544.379 124.453 528.222 120.543 517.126 129.627C517.591 130.48 517.771 131.459 517.639 132.421C517.506 133.383 517.069 134.277 516.39 134.972C519.16 139.634 521.947 144.484 524.734 149.47C526.085 148.257 528.153 148.992 529.111 150.836C540.293 143.63 556.364 147.54 567.563 138.473C567.093 137.624 566.911 136.647 567.043 135.687C567.176 134.727 567.616 133.835 568.298 133.145C565.511 128.483 562.724 123.617 559.954 118.63ZM545.576 140.727C541.917 141.222 537.352 138.575 535.317 134.733C533.283 130.891 534.497 127.168 538.138 126.639C541.78 126.11 546.379 128.808 548.397 132.65C550.414 136.492 549.234 140.215 545.576 140.727Z" fill="#1E1E1E"/>
<g opacity="0.2">
<path d="M544.533 137.329L545.08 138.37L544.379 138.473C544.191 138.131 544.003 137.79 543.832 137.431C542.951 137.505 542.067 137.346 541.267 136.97L541.164 135.963C541.822 136.29 542.55 136.449 543.285 136.424L542.31 134.562C541.713 134.583 541.122 134.447 540.594 134.169C540.066 133.89 539.62 133.478 539.301 132.974C539.149 132.777 539.054 132.542 539.025 132.295C538.996 132.048 539.034 131.797 539.136 131.57C539.237 131.343 539.398 131.147 539.602 131.003C539.805 130.86 540.044 130.774 540.292 130.754L539.728 129.696L540.447 129.593L540.994 130.635C541.703 130.585 542.415 130.69 543.079 130.942C543.079 131.284 543.079 131.608 543.216 131.95C542.671 131.741 542.091 131.636 541.507 131.642L542.515 133.521C543.112 133.5 543.704 133.636 544.232 133.914C544.76 134.193 545.205 134.605 545.524 135.109C545.67 135.308 545.761 135.542 545.787 135.787C545.813 136.033 545.774 136.281 545.673 136.506C545.573 136.731 545.414 136.926 545.214 137.071C545.013 137.215 544.779 137.304 544.533 137.329ZM541.712 133.435L540.823 131.728C540.258 131.933 540.173 132.308 540.395 132.718C540.539 132.937 540.734 133.116 540.963 133.242C541.193 133.367 541.45 133.433 541.712 133.435ZM544.481 135.365C544.332 135.146 544.13 134.967 543.894 134.845C543.659 134.723 543.396 134.661 543.131 134.665L544.003 136.372C544.584 136.116 544.687 135.826 544.481 135.365Z" fill="#1E1E1E"/>
</g>
<path d="M497.43 251.174C448.581 345.191 383.793 430.044 305.94 501.969L186.412 410.988C264.271 339.061 329.059 254.201 377.902 160.176L497.43 251.174Z" fill="#407BFF"/>
<path opacity="0.2" d="M497.43 251.157C493.417 258.91 489.28 266.594 485.017 274.21C437.789 359.129 377.341 436.009 305.94 501.969L186.412 410.988C264.271 339.061 329.059 254.201 377.902 160.176L497.43 251.157Z" fill="white"/>
<path opacity="0.2" d="M396.641 184.475C395.502 186.775 393.86 188.789 391.835 190.367C389.81 191.946 387.455 193.048 384.945 193.593C382.435 194.137 379.835 194.11 377.337 193.513C374.839 192.916 372.507 191.765 370.516 190.145C328.137 265.877 275.212 335.22 213.323 396.098C215.428 397.575 217.17 399.509 218.417 401.755C219.665 404.001 220.386 406.5 220.526 409.065C220.666 411.63 220.221 414.193 219.225 416.561C218.229 418.929 216.708 421.041 214.777 422.737L289.27 479.446C293.459 475.639 298.826 473.376 304.479 473.034C310.133 472.693 315.734 474.292 320.353 477.568C382.246 416.694 435.172 347.35 477.545 271.614C468.569 264.784 465.817 251.226 471.134 241.185L471.219 241.031L396.709 184.322L396.641 184.475ZM382.963 364.678C368.892 383.069 341.793 386.023 323.447 372.055C305.102 358.087 302.366 332.439 316.454 313.997C330.543 295.555 356.069 291.457 374.448 305.459C392.828 319.461 397.137 346.305 383.031 364.644L382.963 364.678Z" fill="#1E1E1E"/>
<g opacity="0.2">
<path d="M370.174 349.276L375.115 353.033L372.346 356.653L367.49 352.913C364.405 356.724 360.23 359.506 355.522 360.887C354.564 359.094 353.59 357.319 352.615 355.526C356.566 354.482 360.129 352.317 362.874 349.293L353.812 342.582C348.888 346.578 343.195 350.574 337.074 345.912C332.577 342.497 331.226 336.281 335.843 328.836L330.867 325.045C331.791 323.85 332.714 322.637 333.62 321.425L338.51 325.147C341.045 322.085 344.291 319.688 347.965 318.163L351.059 323.389C348.121 324.623 345.472 326.455 343.28 328.768L352.171 335.598C357.095 331.585 362.634 327.35 368.755 332.012C373.303 335.444 374.739 341.779 370.174 349.276ZM348.563 338.552L340.716 332.575C338.801 336.076 339.348 338.603 341.297 340.072C343.246 341.54 345.845 340.516 348.563 338.535V338.552ZM364.977 338.057C362.822 336.349 360.343 337.596 357.573 339.764L365.37 345.69C367.336 342.001 366.874 339.491 364.977 338.04V338.057Z" fill="#1E1E1E"/>
</g>
<path opacity="0.2" d="M484.983 274.142C437.771 359.083 377.335 435.986 305.939 501.969C305.939 501.969 255.297 424.803 234.285 410.459C234.336 410.459 397.479 349.993 484.983 274.142Z" fill="#1E1E1E"/>
<path d="M611.486 376.751C531.975 446.829 440.914 502.627 342.34 541.671L263.692 413.721C362.263 374.687 453.319 318.895 532.821 248.818C559.06 291.474 585.281 334.118 611.486 376.751Z" fill="#407BFF"/>
<path opacity="0.3" d="M611.486 376.751C531.974 446.824 440.913 502.616 342.34 541.654L308.367 486.362C293.55 462.171 278.681 437.963 263.76 413.738C362.331 374.704 453.387 318.912 532.889 248.835C559.082 291.479 585.281 334.118 611.486 376.751Z" fill="white"/>
<path opacity="0.2" d="M541.609 278.24C539.727 279.991 537.472 281.293 535.013 282.047C532.554 282.801 529.955 282.988 527.413 282.594C524.871 282.199 522.453 281.233 520.339 279.769C518.225 278.305 516.472 276.381 515.211 274.142C448.319 329.497 373.898 375.089 294.177 409.554C295.588 411.696 296.498 414.127 296.84 416.667C297.182 419.208 296.946 421.793 296.151 424.23C295.357 426.667 294.022 428.895 292.248 430.747C290.474 432.599 288.304 434.029 285.901 434.929L334.885 514.657C340.168 512.614 345.992 512.439 351.388 514.16C356.785 515.881 361.429 519.395 364.549 524.117C444.271 489.658 518.691 444.072 585.583 388.722C579.668 379.108 582.01 365.464 590.593 357.985L590.73 357.865L541.746 278.12L541.609 278.24ZM463.816 441.486C444.035 453.559 417.653 446.609 405.685 426.903C393.717 407.198 400.351 382.369 420.132 370.279C439.914 358.19 465.218 363.534 477.306 383.223C489.394 402.912 483.615 429.345 463.816 441.486Z" fill="#1E1E1E"/>
<g opacity="0.2">
<path d="M457.387 422.378C458.465 424.086 459.542 425.913 460.636 427.672L456.738 430.045C455.678 428.338 454.601 426.63 453.523 424.82C448.702 427.364 443.265 428.56 439.452 427.911C439.196 425.896 438.94 423.881 438.666 421.866C442.701 422.288 446.773 421.541 450.395 419.714C448.468 416.572 446.542 413.43 444.616 410.288C438.563 412.235 431.827 413.909 427.792 407.334C424.834 402.519 425.809 396.269 432.784 391.044L429.519 385.716L433.4 383.343L436.614 388.568C440.084 386.628 443.975 385.561 447.95 385.46C448.292 387.458 448.617 389.456 448.959 391.437C445.768 391.546 442.633 392.301 439.743 393.656L445.59 403.185C451.643 401.221 458.328 399.274 462.346 405.814C465.304 410.63 464.346 417.033 457.387 422.378ZM441.111 404.585C439.39 401.785 437.68 398.984 435.982 396.184C432.921 398.762 432.562 401.306 433.81 403.39C435.058 405.473 437.862 405.456 441.111 404.585ZM456.499 410.049C455.08 407.727 452.344 407.949 449.01 408.888L454.139 417.238C457.371 414.592 457.832 412.064 456.584 410.049H456.499Z" fill="#1E1E1E"/>
</g>
<path opacity="0.2" d="M611.486 376.751C531.974 446.824 440.913 502.616 342.34 541.654L308.367 486.362L302.383 400.709C302.383 400.709 491.018 414.284 611.486 376.751Z" fill="#1E1E1E"/>
<path d="M634.294 542.559C531.08 566.843 424.435 573.088 319.087 561.018C316.158 511.076 313.229 461.129 310.299 411.176C415.645 423.267 522.292 417.033 625.506 392.751C628.446 442.681 631.376 492.617 634.294 542.559Z" fill="#407BFF"/>
<path opacity="0.4" d="M634.294 542.559C531.08 566.843 424.435 573.088 319.087 561.018C316.158 511.076 313.229 461.129 310.299 411.176C415.645 423.267 522.292 417.033 625.506 392.751C628.446 442.681 631.376 492.617 634.294 542.559Z" fill="white"/>
<path opacity="0.2" d="M619.282 422.703C616.794 423.337 614.195 423.403 611.677 422.897C609.16 422.39 606.789 421.324 604.741 419.777C602.693 418.23 601.019 416.242 599.846 413.961C598.672 411.68 598.028 409.164 597.962 406.6C512.828 423.847 425.674 428.935 339.108 421.712C339.359 424.269 339.025 426.848 338.132 429.257C337.239 431.666 335.81 433.841 333.953 435.619C332.096 437.396 329.86 438.729 327.412 439.518C324.964 440.306 322.369 440.53 319.823 440.171C321.658 471.307 323.481 502.442 325.294 533.577C330.917 534.263 336.134 536.853 340.079 540.913C344.023 544.974 346.456 550.261 346.973 555.895C433.539 563.118 520.693 558.03 605.827 540.783C605.16 529.53 613.674 518.584 624.77 516.091H624.941L619.453 422.685L619.282 422.703ZM473.579 529.82C450.429 531.152 430.528 512.539 429.126 489.538C427.724 466.537 445.488 447.753 468.638 446.438C491.787 445.123 511.569 461.807 512.92 484.808C514.27 507.809 496.712 528.574 473.579 529.889V529.82Z" fill="#1E1E1E"/>
<g opacity="0.2">
<path d="M476.913 510.097L477.272 516.296L472.724 516.552L472.365 510.422C467.447 510.56 462.603 509.196 458.482 506.512C459.217 504.616 459.935 502.721 460.653 500.825C464.014 503.091 467.952 504.353 472.006 504.462C471.801 500.774 471.578 497.103 471.356 493.414C465.116 492.27 458.379 490.563 457.935 482.878C457.61 477.243 461.354 472.189 470.04 470.925L469.681 464.692L474.229 464.419L474.588 470.549C478.563 470.467 482.497 471.364 486.043 473.162L484.094 478.9C481.235 477.486 478.116 476.672 474.929 476.509L475.596 487.677C481.837 488.787 488.659 490.221 489.12 497.922C489.428 503.472 485.564 508.68 476.913 510.097ZM470.98 486.738C470.775 483.459 470.581 480.18 470.399 476.902C466.483 477.721 464.945 479.788 465.081 482.229C465.218 484.671 467.68 485.969 470.963 486.738H470.98ZM482.042 498.844C481.888 496.146 479.375 495.036 475.989 494.302L476.554 504.087C480.555 503.216 482.162 501.252 482.042 498.844Z" fill="#1E1E1E"/>
</g>
<path d="M388.673 542.713C389.118 547.824 389.648 553.021 390.264 558.303H30.6726C41.9226 463.395 30.6726 422.242 30.6726 422.242C150.833 413.191 390.229 422.242 390.229 422.242C390.229 422.242 382.997 467.954 387.87 533.44C388.126 536.497 388.383 539.571 388.673 542.713Z" fill="#407BFF"/>
<path opacity="0.2" d="M390.264 422.242C374.517 429.567 297.493 430.609 253.177 427.86C208.861 425.11 150.867 433.495 150.867 433.495C117.288 421.917 30.7068 422.242 30.7068 422.242C150.867 413.191 390.264 422.242 390.264 422.242Z" fill="white"/>
<path opacity="0.2" d="M30.6726 558.303C41.9226 463.395 30.6726 422.242 30.6726 422.242C30.6726 422.242 101.951 420.671 150.833 433.495C150.833 433.495 152.542 447.975 150.833 455.42C150.833 455.42 209.63 445.892 261.965 447.155C261.965 447.155 180.958 456.479 150.833 463.395C150.833 463.395 102.379 455.83 71.7233 455.42C71.7233 455.42 135.479 463.702 150.833 468.654C150.833 468.654 169.058 465.341 178.599 465.341C178.599 465.341 155.774 469.491 150.833 473.213V499.425C150.833 499.425 99.951 500.432 74.4247 496.795C86.5467 498.691 135.975 506.29 150.833 506.29C150.833 506.29 206.98 504.223 239.585 506.29C239.585 506.29 165.297 510.558 150.833 514.008H87.0938L150.867 519.37V524.663H178.222L150.867 529.376C150.867 529.376 71.7574 524.356 49.0009 529.376C49.0009 529.376 142.369 533.611 150.764 536.907L150.867 544.762C150.867 544.762 255.571 530.947 348.17 542.832C348.17 542.832 212.947 537.47 150.867 552.497C150.867 552.497 345.109 548.279 390.229 558.303H30.6726Z" fill="#1E1E1E"/>
<path d="M32.8097 433.495L23.3207 436.807C23.3207 436.807 80.4771 438.771 117.356 444.406C117.322 444.406 60.5074 434.314 32.8097 433.495Z" fill="#407BFF"/>
<path opacity="0.2" d="M159.193 444.406L173.658 447.156C173.658 447.156 241.004 439.864 320.695 438.959C320.609 438.959 205.63 433.392 159.193 444.406Z" fill="white"/>
<path opacity="0.2" d="M204.826 459.86C204.826 459.86 245.21 448.88 280.618 449.41C316.027 449.939 383.425 444.406 383.425 444.406L386.075 449.41C386.075 449.41 333.227 452.5 289.612 452.142C261.176 452.196 232.802 454.779 204.826 459.86Z" fill="white"/>
<path opacity="0.2" d="M164.75 476.304C164.75 476.304 212.896 466.059 260.102 466.998C307.307 467.937 366.755 471.625 366.755 471.625C366.755 471.625 237.738 471.625 204.826 478.456L164.75 476.304Z" fill="white"/>
<path d="M248.031 461.414C248.031 461.414 289.492 457.999 325.277 459.86C361.061 461.721 398.641 463.395 398.641 463.395L386.075 466.947C386.075 466.947 299.921 458.323 248.031 461.414Z" fill="#407BFF"/>
<path opacity="0.2" d="M248.031 461.414C248.031 461.414 289.492 457.999 325.277 459.86C361.061 461.721 398.641 463.395 398.641 463.395L386.075 466.947C386.075 466.947 299.921 458.323 248.031 461.414Z" fill="#1E1E1E"/>
<path opacity="0.2" d="M166.306 484.996C166.306 484.996 238.114 484.108 272.702 482.383C307.29 480.659 353.675 490.238 353.675 490.238C353.675 490.238 296.451 489.026 278.738 491.826L166.306 484.996Z" fill="#1E1E1E"/>
<path opacity="0.2" d="M159.193 495.856L204.826 491.826L302.041 495.856L203.578 499.886L159.193 495.856Z" fill="white"/>
<path opacity="0.2" d="M193.319 517.252C193.319 517.252 259.674 511.071 285.525 510.746C311.376 510.422 380.945 505.777 380.945 505.777L373.217 516.023C373.217 516.023 242.406 513.205 193.319 517.252Z" fill="white"/>
<path d="M361.574 482.469L386.075 484.774L392.743 482.469C382.376 481.5 371.941 481.5 361.574 482.469Z" fill="#407BFF"/>
<path d="M389.169 430.729L398.641 432.265L388.383 437.559L328.542 436.295C328.542 436.295 373.491 435.698 389.169 430.729Z" fill="#407BFF"/>
<path opacity="0.2" d="M361.574 482.469L386.075 484.774L392.743 482.469C382.376 481.5 371.941 481.5 361.574 482.469Z" fill="white"/>
<path opacity="0.2" d="M389.169 430.729L398.641 432.265L388.383 437.559L328.542 436.295C328.542 436.295 373.491 435.698 389.169 430.729Z" fill="#1E1E1E"/>
<path opacity="0.2" d="M388.673 542.713C372.602 541.671 259.982 527.532 259.982 527.532C267.488 526.661 365.797 532.467 387.904 533.441C388.126 536.497 388.383 539.571 388.673 542.713Z" fill="#1E1E1E"/>
<path d="M219.102 525.603C219.102 525.603 324.405 525.329 354.53 527.498C384.656 529.667 387.357 525.603 387.357 525.603L402.368 532.826C402.368 532.826 403.138 539.998 363.626 534.994C324.114 529.991 219.102 525.603 219.102 525.603Z" fill="#407BFF"/>
<path d="M133.068 472.718C133.068 472.718 71.3984 462.951 35.4427 465.444C40.8467 466.671 45.8809 469.164 50.1294 472.718H133.068Z" fill="#407BFF"/>
<path d="M35.3744 499.425C36.7763 499.271 81.5371 505.163 98.6345 505.777L28.9629 508.578L35.3744 499.425Z" fill="#407BFF"/>
<path d="M32.8439 538.068L100.447 540.459L23.3207 546.145L32.8439 538.068Z" fill="#407BFF"/>
<path d="M156.013 417.58C156.013 417.58 252.032 433.973 307.718 368.35L412.627 395.381C412.627 395.381 393.324 435.373 248.339 430.062C103.353 424.752 156.013 417.58 156.013 417.58Z" fill="#407BFF"/>
<path opacity="0.5" d="M156.013 417.58C156.013 417.58 252.032 433.973 307.718 368.35L412.627 395.381C412.627 395.381 393.324 435.373 248.339 430.062C103.353 424.752 156.013 417.58 156.013 417.58Z" fill="white"/>
<path opacity="0.2" d="M210.844 421.149C210.844 421.149 269.539 418.058 302.725 380.559C305.771 381.5 309.03 381.506 312.079 380.574C315.128 379.642 317.826 377.816 319.823 375.334L396.401 395.603C396.401 395.603 388.161 398.506 391.05 408.017C390.982 408.017 290.449 448.692 210.844 421.149Z" fill="#1E1E1E"/>
<path d="M298.451 230.956L300.161 221.445C300.161 221.445 296.45 217.928 296.878 214.615C297.305 211.302 313.821 206.077 316.745 205.786C319.669 205.496 318.557 217.449 317.668 219.618C316.779 221.787 306.863 224.399 306.863 224.399L305.615 234.423L298.451 230.956Z" fill="#EBB376"/>
<path d="M108.038 277.71L101.49 270.59C101.49 270.59 102.772 265.638 100.686 263.11C98.6002 260.583 81.7593 264.733 79.1605 266.099C76.5617 267.465 83.7768 276.942 85.6917 278.308C87.6066 279.674 97.3863 276.6 97.3863 276.6L103.746 284.472L108.038 277.71Z" fill="#EBB376"/>
<path d="M238.268 262.376C256.682 261.369 273.369 265.194 281.935 262.376C290.501 259.559 298.81 223.972 298.81 223.972L307.82 227.012C307.82 227.012 304.401 264.05 289.594 273.971C274.788 283.892 240.474 283.807 240.474 283.807L238.268 262.376Z" fill="#407BFF"/>
<path opacity="0.7" d="M307.82 227.012C307.82 227.012 304.401 264.05 289.594 273.971C281.046 279.606 266.393 282.014 255.263 283.055C246.834 283.824 240.474 283.807 240.474 283.807L239.448 273.8L238.268 262.376C256.682 261.352 273.369 265.194 281.935 262.376C290.501 259.559 298.81 223.972 298.81 223.972L307.82 227.012Z" fill="white"/>
<path opacity="0.2" d="M255.263 283.055C246.834 283.824 240.474 283.807 240.474 283.807L239.448 273.8C245.179 276.025 250.518 279.149 255.263 283.055Z" fill="#1E1E1E"/>
<path d="M355.983 550.056L367.9 546.777L365.763 517.714L353.863 520.992L355.983 550.056Z" fill="#B97964"/>
<path d="M368.635 545.189L354.787 546.145C354.554 546.154 354.334 546.254 354.174 546.423C354.014 546.592 353.927 546.818 353.932 547.05V558.03C353.971 558.604 354.236 559.139 354.668 559.52C355.1 559.9 355.665 560.095 356.24 560.062C361.061 559.652 363.352 559.208 369.439 558.747C374.868 558.59 380.278 558.048 385.63 557.125C390.759 555.964 389.391 550.995 387.135 551.046C381.295 550.724 375.64 548.894 370.721 545.735C370.1 545.34 369.371 545.149 368.635 545.189Z" fill="#263238"/>
<path d="M373.149 546.982C372.039 547.033 370.927 546.964 369.832 546.777C369.777 546.769 369.725 546.746 369.682 546.71C369.64 546.673 369.609 546.625 369.593 546.572C369.572 546.523 369.561 546.471 369.561 546.418C369.561 546.365 369.572 546.313 369.593 546.265C369.969 545.957 373.303 543.345 374.859 543.823C375.034 543.879 375.192 543.979 375.318 544.113C375.444 544.248 375.533 544.412 375.577 544.591C375.715 544.866 375.766 545.177 375.723 545.482C375.68 545.787 375.546 546.072 375.338 546.299C374.709 546.771 373.935 547.012 373.149 546.982ZM374.859 544.42C374.038 544.164 372.055 545.342 370.687 546.35C372.927 546.623 374.534 546.452 375.081 545.838C375.19 545.693 375.259 545.523 375.283 545.343C375.307 545.164 375.285 544.981 375.218 544.813C375.192 544.724 375.147 544.643 375.084 544.575C375.022 544.507 374.945 544.454 374.859 544.42Z" fill="#263238"/>
<path d="M369.883 546.777C369.865 546.786 369.844 546.791 369.824 546.791C369.803 546.791 369.782 546.786 369.764 546.777C369.723 546.756 369.687 546.727 369.657 546.692C369.628 546.657 369.606 546.616 369.593 546.572C369.593 546.452 369.063 542.901 370.208 541.603C370.361 541.441 370.547 541.314 370.753 541.231C370.96 541.148 371.183 541.112 371.405 541.125C371.651 541.117 371.892 541.19 372.093 541.331C372.293 541.473 372.442 541.676 372.516 541.91C372.875 543.242 371.217 545.94 370.054 546.76L369.883 546.777ZM371.251 541.757C371.135 541.762 371.022 541.792 370.918 541.845C370.815 541.898 370.724 541.973 370.653 542.064C370.052 543.286 369.866 544.671 370.123 546.009C371.19 544.986 371.842 543.605 371.952 542.132C371.952 541.962 371.798 541.774 371.388 541.757H371.251Z" fill="#263238"/>
<path opacity="0.2" d="M353.863 520.992L365.78 517.731L366.994 534.346L355.009 537.01L353.863 520.992Z" fill="#1E1E1E"/>
<path d="M340.391 549.629L329.123 554.751L326.251 542.679L322.404 526.422L333.637 521.265L337.501 537.505L340.391 549.629Z" fill="#B97964"/>
<path opacity="0.2" d="M337.501 537.505L326.251 542.679L322.404 526.422L333.637 521.265L337.501 537.505Z" fill="#1E1E1E"/>
<path d="M340.852 547.938L327.345 551.097C327.232 551.118 327.123 551.16 327.026 551.223C326.929 551.286 326.845 551.367 326.78 551.463C326.715 551.558 326.669 551.666 326.646 551.779C326.623 551.892 326.622 552.008 326.644 552.122L328.491 562.965C328.546 563.248 328.657 563.516 328.817 563.756C328.977 563.995 329.183 564.2 329.423 564.359C329.664 564.518 329.933 564.628 330.216 564.681C330.5 564.735 330.791 564.732 331.073 564.673C335.774 563.494 337.911 562.692 343.896 561.257C349.23 560.232 354.486 558.834 359.625 557.074C364.429 555.11 362.361 550.431 360.155 550.841C354.923 551.78 347.093 550.073 343.058 548.211C342.374 547.877 341.597 547.781 340.852 547.938Z" fill="#263238"/>
<path d="M345.605 549.065C344.514 549.287 343.402 549.39 342.288 549.372C342.232 549.381 342.175 549.37 342.125 549.342C342.076 549.315 342.037 549.271 342.015 549.219C341.989 549.172 341.976 549.119 341.976 549.065C341.976 549.011 341.989 548.959 342.015 548.911C342.34 548.553 345.195 545.496 346.819 545.65C346.999 545.681 347.169 545.757 347.312 545.87C347.456 545.983 347.568 546.131 347.64 546.299C347.809 546.552 347.899 546.849 347.899 547.153C347.899 547.457 347.809 547.754 347.64 548.006C347.104 548.583 346.385 548.957 345.605 549.065ZM346.802 546.282C345.93 546.162 344.169 547.631 342.972 548.843C345.229 548.758 346.802 548.331 347.23 547.648C347.326 547.488 347.377 547.305 347.377 547.118C347.377 546.932 347.326 546.749 347.23 546.589C347.199 546.507 347.146 546.434 347.076 546.38C347.007 546.326 346.924 546.292 346.836 546.282H346.802Z" fill="#263238"/>
<path d="M342.34 549.304C342.324 549.312 342.306 549.316 342.288 549.316C342.271 549.316 342.253 549.312 342.237 549.304C342.191 549.29 342.149 549.266 342.113 549.233C342.078 549.201 342.05 549.161 342.032 549.116C342.032 549.014 340.904 545.582 341.844 544.113C341.966 543.928 342.127 543.773 342.316 543.658C342.506 543.543 342.718 543.471 342.938 543.447C343.183 543.397 343.437 543.43 343.66 543.541C343.884 543.653 344.063 543.836 344.169 544.062C344.733 545.308 343.536 548.245 342.459 549.185C342.453 549.214 342.439 549.241 342.417 549.262C342.396 549.284 342.369 549.298 342.34 549.304ZM342.887 544.181C342.661 544.239 342.466 544.379 342.34 544.574C341.948 545.883 341.984 547.283 342.442 548.57C343.334 547.391 343.766 545.928 343.656 544.455C343.656 544.284 343.434 544.113 343.024 544.164L342.887 544.181Z" fill="#263238"/>
<path d="M256.904 384.572L253.263 344.409L186.121 345.98C186.121 345.98 178.171 401.938 183.95 412.218C194.209 430.575 261.948 420.158 277.78 421.712C284.243 425.127 318.814 539.656 318.814 539.656L338.185 531.852C338.185 531.852 317.36 435.219 312.539 417.016C306.025 391.71 279.148 392.154 256.904 384.572Z" fill="#263238"/>
<path d="M368.174 529.872L351.076 531.46C351.076 531.46 330.132 424.905 328.508 424.41C325.601 423.574 317.104 422.703 312.539 421.439C280.841 413.191 202.774 398.045 202.774 398.045L231.566 370.348C231.566 370.348 362.087 385.989 364.925 416.589C366.379 431.343 368.174 529.872 368.174 529.872Z" fill="#263238"/>
<path opacity="0.2" d="M323.909 424.53C320.985 423.693 317.07 422.669 312.539 421.49C313.804 422.139 310.145 405.558 306.487 401.272C299.22 392.734 270.052 388.09 259.606 386.416C250.852 385.016 221.513 382.438 221.513 382.438C221.513 382.438 273.318 377.964 312.351 388.67C331.585 393.964 328.166 412.782 323.909 424.53Z" fill="#1E1E1E"/>
<path d="M177.162 272.127C177.162 272.127 201.936 258.995 238.268 262.376C238.268 262.376 250.869 294.377 253.263 344.341L185.711 349.02C185.711 349.02 186.925 306.193 177.162 272.127Z" fill="#407BFF"/>
<path opacity="0.7" d="M185.711 349.088C185.884 337.428 185.45 325.766 184.412 314.151C183.813 307.32 182.958 300.131 181.727 292.806C180.596 285.832 179.072 278.928 177.162 272.127C177.162 272.127 201.936 258.995 238.268 262.376C238.268 262.376 250.869 294.377 253.263 344.341L185.711 349.088Z" fill="white"/>
<path opacity="0.2" d="M184.412 314.151C183.813 307.32 182.958 300.131 181.727 292.806C182.927 291.588 184.372 290.639 185.968 290.022V289.271C186.053 290.091 189.678 302.71 184.412 314.151Z" fill="#1E1E1E"/>
<path d="M195.884 267.482C202.073 273.1 217.221 271.017 217.221 271.017C217.221 271.017 226.676 268.438 224.693 265.484C219.119 264.562 216.435 261.966 215.307 258.654C214.709 256.593 214.517 254.435 214.742 252.301C214.828 251.123 215.016 249.928 215.221 248.749L196.517 234.867C198.944 244.037 201.954 260.856 195.884 267.482Z" fill="#EBB376"/>
<path opacity="0.2" d="M200.808 243.695C201.56 254.931 210.793 258.022 215.307 258.654C214.709 256.593 214.517 254.435 214.742 252.301L200.808 243.695Z" fill="#1E1E1E"/>
<path d="M212.691 196.412C219.649 198.29 225.445 214.324 220.231 224.929C215.016 235.533 199.303 205.838 199.303 205.838C199.303 205.838 208.194 195.216 212.691 196.412Z" fill="#263238"/>
<path d="M227.138 233.159C227.172 233.808 227.172 234.457 227.138 235.106C227.018 239.733 225.149 244.144 221.906 247.452C219.008 250.467 215.088 252.293 210.913 252.575C207.942 252.721 204.988 252.06 202.364 250.662C194.055 246.444 191.815 239.136 186.976 227.08C185.815 224.285 185.39 221.24 185.741 218.234C186.092 215.228 187.207 212.362 188.981 209.909C190.755 207.456 193.129 205.497 195.875 204.22C198.622 202.942 201.65 202.388 204.672 202.61C218.435 203.464 226.146 221.206 227.138 233.159Z" fill="#EBB376"/>
<path d="M206.895 224.297C207.151 225.304 208.006 226.004 208.604 225.714C209.203 225.424 209.528 224.502 209.203 223.511C208.878 222.521 208.057 221.804 207.408 222.094C206.758 222.384 206.57 223.272 206.895 224.297Z" fill="#263238"/>
<path d="M218.23 220.574C218.487 221.582 219.359 222.282 219.94 221.991C220.521 221.701 220.863 220.779 220.538 219.789C220.213 218.798 219.41 218.081 218.743 218.354C218.076 218.627 217.922 219.618 218.23 220.574Z" fill="#263238"/>
<path d="M214.794 222.248C216.998 224.917 219.558 227.272 222.402 229.249C221.875 229.968 221.196 230.563 220.413 230.991C219.63 231.418 218.762 231.669 217.871 231.725L214.794 222.248Z" fill="#D58745"/>
<path d="M220.846 214.376C220.766 214.459 220.666 214.52 220.555 214.553C220.444 214.586 220.326 214.59 220.213 214.563C219.465 214.359 218.679 214.333 217.919 214.487C217.159 214.642 216.446 214.972 215.837 215.451C215.719 215.565 215.561 215.626 215.397 215.623C215.234 215.62 215.078 215.552 214.965 215.434C214.851 215.317 214.789 215.159 214.793 214.995C214.796 214.832 214.864 214.677 214.982 214.563C215.738 213.935 216.635 213.497 217.595 213.286C218.556 213.075 219.554 213.098 220.504 213.351C220.664 213.388 220.802 213.485 220.892 213.622C220.981 213.759 221.014 213.925 220.983 214.085C220.949 214.187 220.903 214.285 220.846 214.376Z" fill="#263238"/>
<path d="M203.15 220.506C203.035 220.549 202.907 220.549 202.791 220.506C202.651 220.424 202.549 220.29 202.508 220.133C202.466 219.977 202.488 219.81 202.569 219.669C203.068 218.819 203.762 218.1 204.595 217.571C205.427 217.043 206.374 216.72 207.356 216.63C207.518 216.629 207.674 216.691 207.792 216.802C207.91 216.914 207.98 217.066 207.989 217.227C207.989 217.389 207.927 217.545 207.816 217.662C207.705 217.78 207.552 217.85 207.391 217.859C206.617 217.952 205.875 218.225 205.225 218.655C204.575 219.084 204.034 219.66 203.646 220.335C203.58 220.396 203.502 220.443 203.416 220.473C203.331 220.502 203.24 220.513 203.15 220.506Z" fill="#263238"/>
<path d="M191.046 208.689L193.747 213.812C193.016 214.596 192.61 215.627 192.61 216.698C192.61 217.769 193.016 218.8 193.747 219.584C197.166 223.409 197.303 231.332 194.91 235.43C194.91 235.43 194.072 233.535 192.601 234.611C191.131 235.686 195.474 245.642 200.517 249.245C200.517 249.245 194.003 246.734 187.199 237.155C180.907 228.309 177.453 220.233 178.017 215.656L191.046 208.689Z" fill="#263238"/>
<path d="M185.01 238.845C187.286 241.183 190.398 242.522 193.661 242.568C198.004 242.568 199.03 238.453 196.876 234.952C194.944 231.861 190.344 228.019 186.463 229.71C182.582 231.4 182.24 235.96 185.01 238.845Z" fill="#EBB376"/>
<path d="M219.205 236.011C218.417 237.731 217.754 239.506 217.221 241.321L216.23 241.202C211.75 240.604 209.853 238.845 209.134 237.07C208.801 236.2 208.678 235.264 208.775 234.337C208.81 233.805 208.925 233.281 209.117 232.783C211.717 234.388 214.633 235.413 217.666 235.789C218.606 235.96 219.205 236.011 219.205 236.011Z" fill="#263238"/>
<path d="M217.683 235.789L217.051 237.343C212.827 236.762 209.921 235.789 208.775 234.337C208.81 233.805 208.925 233.281 209.117 232.783C211.722 234.39 214.644 235.416 217.683 235.789Z" fill="white"/>
<path d="M216.23 241.202C211.75 240.604 209.853 238.845 209.134 237.07C210.84 237.353 212.483 237.931 213.99 238.777C214.97 239.335 215.752 240.182 216.23 241.202Z" fill="#DE5753"/>
<path d="M202.484 209.577C202.484 209.577 201.287 201.415 206.45 202.986C211.614 204.557 211.973 201.466 210.434 195.165C208.895 188.864 194.089 186.627 185.711 196.958C177.333 207.289 174.41 215.947 178.462 220.523C182.514 225.099 197.953 211.592 197.953 211.592C198.377 209.286 199.357 207.118 200.808 205.274C200.904 206.848 201.49 208.352 202.484 209.577Z" fill="#263238"/>
<path d="M210.468 270.368L218.589 277.574C218.589 277.574 223.086 307.969 234.131 321.254H240.97L242.32 316.541C232.041 305.088 224.665 291.338 220.812 276.447V266.765L210.468 270.368Z" fill="#263238"/>
<path d="M197.953 260.908L214.794 267.226L216.23 258.654L224.967 261.83L227.189 272.622L215.307 269.702L209.408 277.574L192.242 266.491L197.953 260.908Z" fill="#407BFF"/>
<path opacity="0.5" d="M197.953 260.908L214.794 267.226L216.23 258.654L224.967 261.83L227.189 272.622L215.307 269.702L209.408 277.574L192.242 266.491L197.953 260.908Z" fill="white"/>
<path d="M184.754 347.978L254.049 341.387L254.203 349.788L184.788 355.458L184.754 347.978Z" fill="#1E1E1E"/>
<path d="M239.38 343.111C239.067 342.83 238.698 342.617 238.297 342.488C237.897 342.358 237.473 342.315 237.054 342.36L230.916 342.992C230.155 343.069 229.45 343.43 228.943 344.003C228.436 344.576 228.164 345.318 228.181 346.083V349.993C228.199 350.801 228.536 351.569 229.119 352.129C229.702 352.689 230.484 352.995 231.293 352.981H231.549L237.687 352.333C238.444 352.255 239.144 351.896 239.648 351.327C240.152 350.757 240.422 350.019 240.405 349.259V345.348C240.403 344.924 240.311 344.505 240.134 344.12C239.957 343.734 239.7 343.39 239.38 343.111ZM237.55 350.761L231.429 351.41C231.22 351.439 231.006 351.424 230.803 351.364C230.599 351.305 230.411 351.204 230.249 351.067C230.088 350.93 229.957 350.76 229.866 350.569C229.775 350.378 229.725 350.17 229.72 349.959V346.048C229.71 345.678 229.842 345.317 230.09 345.041C230.338 344.764 230.683 344.593 231.053 344.563L237.174 343.914H237.311C237.699 343.914 238.073 344.066 238.351 344.337C238.629 344.608 238.789 344.977 238.798 345.365V345.963H238.559L236.849 346.134C236.713 346.145 236.58 346.182 236.458 346.245C236.337 346.308 236.229 346.394 236.141 346.499C236.054 346.604 235.988 346.726 235.948 346.857C235.908 346.987 235.895 347.125 235.909 347.261C235.935 347.534 236.068 347.787 236.279 347.963C236.491 348.138 236.763 348.224 237.037 348.2L238.747 348.046V349.276C238.757 349.625 238.642 349.967 238.423 350.239C238.203 350.511 237.894 350.697 237.55 350.761Z" fill="white"/>
<path d="M177.162 272.127C165.605 278.957 148.918 301.446 143.053 300.985C137.189 300.524 105.559 272.434 105.559 272.434L98.3438 280.238C98.3438 280.238 127.563 315.09 141.087 317.72C154.611 320.349 184.668 295.162 184.668 295.162C186.363 290.813 186.363 285.987 184.668 281.638C183.149 277.804 180.54 274.498 177.162 272.127Z" fill="#407BFF"/>
<path opacity="0.7" d="M177.162 272.127C165.605 278.957 148.918 301.446 143.053 300.985C137.189 300.524 105.559 272.434 105.559 272.434L98.3438 280.238C98.3438 280.238 127.563 315.09 141.087 317.72C154.611 320.349 184.668 295.162 184.668 295.162C186.363 290.813 186.363 285.987 184.668 281.638C183.149 277.804 180.54 274.498 177.162 272.127Z" fill="white"/>
<path d="M282.961 430.865C282.961 430.865 53.4976 432.453 39.2555 400.265L141.446 392.854C161.727 401.351 182.484 408.666 203.612 414.762C227.292 421.644 255.178 428.167 282.961 430.865Z" fill="#407BFF"/>
<path opacity="0.2" d="M282.961 430.865C282.961 430.865 275.763 430.865 263.795 430.865C214.708 427.45 157.398 403.099 157.398 403.099C136.71 407.642 122.485 399.513 122.485 399.513L66.7138 402.69C67.0141 404.061 67.001 405.483 66.6754 406.849C66.3498 408.214 65.72 409.489 64.833 410.579C93.7446 418.69 124.913 423.625 150.32 426.613C96.6511 422.6 45.7182 414.95 39.187 400.316L141.378 392.905C141.378 392.905 212.759 424.035 282.961 430.865Z" fill="white"/>
<path opacity="0.2" d="M282.961 430.865C282.961 430.865 53.4976 432.453 39.2555 400.265C39.2555 400.265 116.792 433.717 203.612 414.762C227.292 421.644 255.178 428.167 282.961 430.865Z" fill="#1E1E1E"/>
</g>
<g filter="url(#filter0_b_46_1211)">
<rect x="437.589" y="257.573" width="251" height="342.841" rx="12" fill="white" fill-opacity="0.49"/>
</g>
<rect width="11.3333" height="49.7375" transform="matrix(1 0 0 -1 478.589 477.173)" fill="white"/>
<rect width="11.3333" height="28.8251" transform="matrix(1 0 0 -1 501.256 475.777)" fill="white"/>
<rect x="523.922" y="342.39" width="11.3333" height="133.387" fill="white"/>
<rect x="546.589" y="383.65" width="11.3333" height="92.1274" fill="white"/>
<rect x="569.256" y="298.305" width="11.3333" height="177.472" fill="#2257BF"/>
<rect x="591.922" y="350.303" width="11.3333" height="125.474" fill="white"/>
<rect x="614.589" y="326" width="11.3333" height="149.778" fill="white"/>
<rect x="637.256" y="407.388" width="11.3333" height="68.389" fill="white"/>
<path d="M484.213 524.206C483.349 524.206 482.533 524.038 481.765 523.702C480.997 523.366 480.329 522.89 479.761 522.274C479.201 521.658 478.797 520.93 478.549 520.09L481.345 519.334C481.545 520.022 481.909 520.554 482.437 520.93C482.973 521.298 483.561 521.478 484.201 521.47C484.769 521.47 485.277 521.338 485.725 521.074C486.173 520.81 486.525 520.454 486.781 520.006C487.037 519.55 487.165 519.042 487.165 518.482C487.165 517.626 486.889 516.91 486.337 516.334C485.785 515.758 485.073 515.47 484.201 515.47C483.937 515.47 483.677 515.506 483.421 515.578C483.173 515.65 482.933 515.75 482.701 515.878L481.381 513.598L487.189 508.63L487.441 509.326H479.221V506.602H489.817V509.338L485.149 513.826L485.125 512.974C486.173 513.046 487.065 513.338 487.801 513.85C488.545 514.362 489.113 515.022 489.505 515.83C489.905 516.638 490.105 517.522 490.105 518.482C490.105 519.57 489.837 520.546 489.301 521.41C488.773 522.274 488.061 522.958 487.165 523.462C486.277 523.958 485.293 524.206 484.213 524.206ZM499.43 524.242C498.206 524.242 497.126 523.982 496.19 523.462C495.254 522.934 494.522 522.202 493.994 521.266C493.474 520.33 493.214 519.25 493.214 518.026V512.458C493.214 511.234 493.474 510.154 493.994 509.218C494.522 508.282 495.254 507.554 496.19 507.034C497.126 506.506 498.206 506.242 499.43 506.242C500.654 506.242 501.73 506.506 502.658 507.034C503.594 507.554 504.326 508.282 504.854 509.218C505.382 510.154 505.646 511.234 505.646 512.458V518.026C505.646 519.25 505.382 520.33 504.854 521.266C504.326 522.202 503.594 522.934 502.658 523.462C501.73 523.982 500.654 524.242 499.43 524.242ZM499.43 521.494C500.038 521.494 500.59 521.35 501.086 521.062C501.582 520.766 501.974 520.374 502.262 519.886C502.55 519.39 502.694 518.838 502.694 518.23V512.242C502.694 511.626 502.55 511.074 502.262 510.586C501.974 510.09 501.582 509.698 501.086 509.41C500.59 509.114 500.038 508.966 499.43 508.966C498.822 508.966 498.27 509.114 497.774 509.41C497.278 509.698 496.886 510.09 496.598 510.586C496.31 511.074 496.166 511.626 496.166 512.242V518.23C496.166 518.838 496.31 519.39 496.598 519.886C496.886 520.374 497.278 520.766 497.774 521.062C498.27 521.35 498.822 521.494 499.43 521.494ZM511.411 523.882L509.491 521.962L524.863 506.602L526.783 508.534L511.411 523.882ZM523.183 524.242C522.391 524.242 521.667 524.05 521.011 523.666C520.363 523.274 519.843 522.754 519.451 522.106C519.059 521.45 518.863 520.722 518.863 519.922C518.863 519.138 519.063 518.418 519.463 517.762C519.863 517.106 520.391 516.582 521.047 516.19C521.703 515.798 522.415 515.602 523.183 515.602C523.975 515.602 524.699 515.798 525.355 516.19C526.011 516.574 526.531 517.094 526.915 517.75C527.307 518.398 527.503 519.122 527.503 519.922C527.503 520.722 527.307 521.45 526.915 522.106C526.531 522.754 526.011 523.274 525.355 523.666C524.699 524.05 523.975 524.242 523.183 524.242ZM523.183 521.77C523.511 521.77 523.815 521.686 524.095 521.518C524.383 521.35 524.611 521.126 524.779 520.846C524.947 520.566 525.031 520.258 525.031 519.922C525.031 519.586 524.947 519.278 524.779 518.998C524.611 518.718 524.383 518.494 524.095 518.326C523.815 518.158 523.511 518.074 523.183 518.074C522.847 518.074 522.539 518.158 522.259 518.326C521.979 518.494 521.751 518.718 521.575 518.998C521.407 519.278 521.323 519.586 521.323 519.922C521.323 520.258 521.407 520.566 521.575 520.846C521.751 521.126 521.979 521.35 522.259 521.518C522.539 521.686 522.847 521.77 523.183 521.77ZM513.091 514.882C512.299 514.882 511.575 514.69 510.919 514.306C510.263 513.914 509.739 513.394 509.347 512.746C508.963 512.09 508.771 511.362 508.771 510.562C508.771 509.778 508.971 509.058 509.371 508.402C509.771 507.746 510.299 507.222 510.955 506.83C511.611 506.438 512.323 506.242 513.091 506.242C513.883 506.242 514.603 506.438 515.251 506.83C515.907 507.214 516.431 507.734 516.823 508.39C517.215 509.038 517.411 509.762 517.411 510.562C517.411 511.362 517.215 512.09 516.823 512.746C516.431 513.394 515.907 513.914 515.251 514.306C514.603 514.69 513.883 514.882 513.091 514.882ZM513.091 512.41C513.427 512.41 513.735 512.326 514.015 512.158C514.295 511.99 514.519 511.766 514.687 511.486C514.855 511.206 514.939 510.898 514.939 510.562C514.939 510.226 514.855 509.918 514.687 509.638C514.519 509.358 514.295 509.134 514.015 508.966C513.735 508.798 513.427 508.714 513.091 508.714C512.755 508.714 512.447 508.798 512.167 508.966C511.887 509.134 511.663 509.358 511.495 509.638C511.327 509.918 511.243 510.226 511.243 510.562C511.243 510.898 511.327 511.206 511.495 511.486C511.663 511.766 511.887 511.99 512.167 512.158C512.447 512.326 512.755 512.41 513.091 512.41Z" fill="#2257BF"/>
<path d="M478.569 552.882V542.802H479.514L483.476 551.279L487.417 542.802H488.376V552.875H487.396V545.098L483.805 552.882H483.14L479.556 545.098V552.882H478.569ZM493.497 553.092C492.746 553.092 492.104 552.922 491.572 552.581C491.04 552.24 490.632 551.769 490.347 551.167C490.063 550.565 489.92 549.874 489.92 549.095C489.92 548.302 490.065 547.606 490.354 547.009C490.644 546.412 491.054 545.947 491.586 545.616C492.123 545.28 492.76 545.112 493.497 545.112C494.253 545.112 494.897 545.282 495.429 545.623C495.966 545.959 496.374 546.428 496.654 547.03C496.939 547.627 497.081 548.316 497.081 549.095C497.081 549.888 496.939 550.586 496.654 551.188C496.37 551.785 495.959 552.252 495.422 552.588C494.886 552.924 494.244 553.092 493.497 553.092ZM493.497 552.105C494.337 552.105 494.963 551.827 495.373 551.272C495.784 550.712 495.989 549.986 495.989 549.095C495.989 548.18 495.782 547.452 495.366 546.911C494.956 546.37 494.333 546.099 493.497 546.099C492.933 546.099 492.466 546.227 492.097 546.484C491.733 546.736 491.46 547.088 491.278 547.541C491.101 547.989 491.012 548.507 491.012 549.095C491.012 550.005 491.222 550.735 491.642 551.286C492.062 551.832 492.681 552.105 493.497 552.105ZM498.626 552.882V545.322H499.55V547.142L499.368 546.904C499.452 546.68 499.561 546.475 499.697 546.288C499.832 546.097 499.979 545.94 500.138 545.819C500.334 545.646 500.562 545.516 500.824 545.427C501.085 545.334 501.349 545.28 501.615 545.266C501.881 545.247 502.123 545.266 502.343 545.322V546.288C502.067 546.218 501.766 546.202 501.44 546.239C501.113 546.276 500.812 546.407 500.537 546.631C500.285 546.827 500.096 547.063 499.97 547.338C499.844 547.609 499.76 547.898 499.718 548.206C499.676 548.509 499.655 548.81 499.655 549.109V552.882H498.626ZM506.733 553.092C505.995 553.092 505.356 552.929 504.815 552.602C504.278 552.275 503.86 551.816 503.562 551.223C503.263 550.63 503.114 549.935 503.114 549.137C503.114 548.311 503.261 547.597 503.555 546.995C503.849 546.393 504.262 545.929 504.794 545.602C505.33 545.275 505.963 545.112 506.691 545.112C507.437 545.112 508.074 545.285 508.602 545.63C509.129 545.971 509.528 546.461 509.799 547.1C510.069 547.739 510.193 548.502 510.17 549.389H509.12V549.025C509.101 548.045 508.889 547.305 508.483 546.806C508.081 546.307 507.493 546.057 506.719 546.057C505.907 546.057 505.284 546.321 504.85 546.848C504.42 547.375 504.206 548.127 504.206 549.102C504.206 550.054 504.42 550.794 504.85 551.321C505.284 551.844 505.897 552.105 506.691 552.105C507.232 552.105 507.703 551.981 508.105 551.734C508.511 551.482 508.83 551.12 509.064 550.649L510.023 551.02C509.724 551.678 509.283 552.189 508.7 552.553C508.121 552.912 507.465 553.092 506.733 553.092ZM503.842 549.389V548.528H509.617V549.389H503.842ZM514.666 543.887V542.732H515.695V543.887H514.666ZM514.666 552.882V545.322H515.695V552.882H514.666ZM523.253 552.882V549.025C523.253 548.605 523.214 548.22 523.134 547.87C523.055 547.515 522.927 547.207 522.749 546.946C522.577 546.68 522.35 546.475 522.07 546.33C521.795 546.185 521.459 546.113 521.062 546.113C520.698 546.113 520.376 546.176 520.096 546.302C519.821 546.428 519.588 546.61 519.396 546.848C519.21 547.081 519.067 547.366 518.969 547.702C518.871 548.038 518.822 548.421 518.822 548.85L518.094 548.689C518.094 547.914 518.23 547.263 518.5 546.736C518.771 546.209 519.144 545.81 519.62 545.539C520.096 545.268 520.642 545.133 521.258 545.133C521.711 545.133 522.105 545.203 522.441 545.343C522.782 545.483 523.069 545.672 523.302 545.91C523.54 546.148 523.732 546.421 523.876 546.729C524.021 547.032 524.126 547.357 524.191 547.702C524.257 548.043 524.289 548.383 524.289 548.724V552.882H523.253ZM517.786 552.882V545.322H518.717V547.184H518.822V552.882H517.786ZM529.187 553.092C528.427 553.092 527.783 552.922 527.255 552.581C526.728 552.24 526.327 551.771 526.051 551.174C525.781 550.572 525.641 549.881 525.631 549.102C525.641 548.309 525.785 547.613 526.065 547.016C526.345 546.414 526.749 545.947 527.276 545.616C527.804 545.28 528.443 545.112 529.194 545.112C529.96 545.112 530.625 545.299 531.189 545.672C531.759 546.045 532.148 546.556 532.358 547.205L531.35 547.527C531.173 547.074 530.891 546.724 530.503 546.477C530.121 546.225 529.682 546.099 529.187 546.099C528.632 546.099 528.172 546.227 527.808 546.484C527.444 546.736 527.174 547.088 526.996 547.541C526.819 547.994 526.728 548.514 526.723 549.102C526.733 550.007 526.943 550.735 527.353 551.286C527.764 551.832 528.375 552.105 529.187 552.105C529.701 552.105 530.137 551.988 530.496 551.755C530.86 551.517 531.136 551.172 531.322 550.719L532.358 551.027C532.078 551.699 531.668 552.212 531.126 552.567C530.585 552.917 529.939 553.092 529.187 553.092ZM536.755 553.092C536.004 553.092 535.362 552.922 534.83 552.581C534.298 552.24 533.89 551.769 533.605 551.167C533.321 550.565 533.178 549.874 533.178 549.095C533.178 548.302 533.323 547.606 533.612 547.009C533.902 546.412 534.312 545.947 534.844 545.616C535.381 545.28 536.018 545.112 536.755 545.112C537.511 545.112 538.155 545.282 538.687 545.623C539.224 545.959 539.632 546.428 539.912 547.03C540.197 547.627 540.339 548.316 540.339 549.095C540.339 549.888 540.197 550.586 539.912 551.188C539.628 551.785 539.217 552.252 538.68 552.588C538.144 552.924 537.502 553.092 536.755 553.092ZM536.755 552.105C537.595 552.105 538.221 551.827 538.631 551.272C539.042 550.712 539.247 549.986 539.247 549.095C539.247 548.18 539.04 547.452 538.624 546.911C538.214 546.37 537.591 546.099 536.755 546.099C536.191 546.099 535.724 546.227 535.355 546.484C534.991 546.736 534.718 547.088 534.536 547.541C534.359 547.989 534.27 548.507 534.27 549.095C534.27 550.005 534.48 550.735 534.9 551.286C535.32 551.832 535.939 552.105 536.755 552.105ZM550.899 552.882L550.906 547.919C550.906 547.336 550.743 546.878 550.416 546.547C550.094 546.211 549.684 546.043 549.184 546.043C548.9 546.043 548.622 546.108 548.351 546.239C548.081 546.37 547.857 546.58 547.679 546.869C547.507 547.158 547.42 547.536 547.42 548.003L546.811 547.828C546.797 547.287 546.902 546.813 547.126 546.407C547.355 546.001 547.668 545.686 548.064 545.462C548.466 545.233 548.918 545.119 549.422 545.119C550.183 545.119 550.792 545.355 551.249 545.826C551.707 546.293 551.935 546.925 551.935 547.723L551.928 552.882H550.899ZM541.876 552.882V545.322H542.8V547.184H542.912V552.882H541.876ZM546.398 552.882L546.405 547.989C546.405 547.387 546.244 546.913 545.922 546.568C545.605 546.218 545.185 546.043 544.662 546.043C544.14 546.043 543.717 546.223 543.395 546.582C543.073 546.937 542.912 547.41 542.912 548.003L542.296 547.667C542.296 547.182 542.411 546.748 542.639 546.365C542.868 545.978 543.181 545.674 543.577 545.455C543.974 545.231 544.424 545.119 544.928 545.119C545.409 545.119 545.836 545.222 546.209 545.427C546.587 545.632 546.884 545.931 547.098 546.323C547.313 546.715 547.42 547.191 547.42 547.751L547.413 552.882H546.398ZM556.895 553.092C556.157 553.092 555.518 552.929 554.977 552.602C554.44 552.275 554.022 551.816 553.724 551.223C553.425 550.63 553.276 549.935 553.276 549.137C553.276 548.311 553.423 547.597 553.717 546.995C554.011 546.393 554.424 545.929 554.956 545.602C555.492 545.275 556.125 545.112 556.853 545.112C557.599 545.112 558.236 545.285 558.764 545.63C559.291 545.971 559.69 546.461 559.961 547.1C560.231 547.739 560.355 548.502 560.332 549.389H559.282V549.025C559.263 548.045 559.051 547.305 558.645 546.806C558.243 546.307 557.655 546.057 556.881 546.057C556.069 546.057 555.446 546.321 555.012 546.848C554.582 547.375 554.368 548.127 554.368 549.102C554.368 550.054 554.582 550.794 555.012 551.321C555.446 551.844 556.059 552.105 556.853 552.105C557.394 552.105 557.865 551.981 558.267 551.734C558.673 551.482 558.992 551.12 559.226 550.649L560.185 551.02C559.886 551.678 559.445 552.189 558.862 552.553C558.283 552.912 557.627 553.092 556.895 553.092ZM554.004 549.389V548.528H559.779V549.389H554.004ZM564.828 543.887V542.732H565.857V543.887H564.828ZM564.828 552.882V545.322H565.857V552.882H564.828ZM573.416 552.882V549.025C573.416 548.605 573.376 548.22 573.297 547.87C573.217 547.515 573.089 547.207 572.912 546.946C572.739 546.68 572.513 546.475 572.233 546.33C571.957 546.185 571.621 546.113 571.225 546.113C570.861 546.113 570.539 546.176 570.259 546.302C569.983 546.428 569.75 546.61 569.559 546.848C569.372 547.081 569.23 547.366 569.132 547.702C569.034 548.038 568.985 548.421 568.985 548.85L568.257 548.689C568.257 547.914 568.392 547.263 568.663 546.736C568.933 546.209 569.307 545.81 569.783 545.539C570.259 545.268 570.805 545.133 571.421 545.133C571.873 545.133 572.268 545.203 572.604 545.343C572.944 545.483 573.231 545.672 573.465 545.91C573.703 546.148 573.894 546.421 574.039 546.729C574.183 547.032 574.288 547.357 574.354 547.702C574.419 548.043 574.452 548.383 574.452 548.724V552.882H573.416ZM567.949 552.882V545.322H568.88V547.184H568.985V552.882H567.949ZM580.793 553.085C580.121 553.085 579.544 552.898 579.064 552.525C578.583 552.152 578.259 551.652 578.091 551.027L579.12 550.782C579.204 551.151 579.397 551.463 579.701 551.72C580.009 551.972 580.37 552.098 580.786 552.098C581.047 552.098 581.311 552.035 581.577 551.909C581.847 551.783 582.06 551.575 582.214 551.286C582.316 551.085 582.375 550.868 582.389 550.635C582.407 550.397 582.417 550.112 582.417 549.781V542.802H583.453V549.781C583.453 550.061 583.45 550.315 583.446 550.544C583.441 550.768 583.415 550.985 583.369 551.195C583.327 551.4 583.245 551.608 583.124 551.818C582.881 552.243 582.554 552.56 582.144 552.77C581.738 552.98 581.287 553.085 580.793 553.085ZM588.456 553.071C588.003 553.071 587.607 553.001 587.266 552.861C586.93 552.721 586.643 552.532 586.405 552.294C586.172 552.056 585.983 551.785 585.838 551.482C585.693 551.174 585.588 550.85 585.523 550.509C585.458 550.164 585.425 549.821 585.425 549.48V545.322H586.461V549.179C586.461 549.594 586.501 549.979 586.58 550.334C586.659 550.689 586.785 550.999 586.958 551.265C587.135 551.526 587.362 551.729 587.637 551.874C587.917 552.019 588.255 552.091 588.652 552.091C589.016 552.091 589.336 552.028 589.611 551.902C589.891 551.776 590.124 551.596 590.311 551.363C590.502 551.125 590.647 550.838 590.745 550.502C590.843 550.161 590.892 549.779 590.892 549.354L591.62 549.515C591.62 550.29 591.485 550.941 591.214 551.468C590.943 551.995 590.57 552.394 590.094 552.665C589.618 552.936 589.072 553.071 588.456 553.071ZM590.997 552.882V551.02H590.892V545.322H591.921V552.882H590.997ZM599.337 552.882V549.025C599.337 548.605 599.298 548.22 599.218 547.87C599.139 547.515 599.011 547.207 598.833 546.946C598.661 546.68 598.434 546.475 598.154 546.33C597.879 546.185 597.543 546.113 597.146 546.113C596.782 546.113 596.46 546.176 596.18 546.302C595.905 546.428 595.672 546.61 595.48 546.848C595.294 547.081 595.151 547.366 595.053 547.702C594.955 548.038 594.906 548.421 594.906 548.85L594.178 548.689C594.178 547.914 594.314 547.263 594.584 546.736C594.855 546.209 595.228 545.81 595.704 545.539C596.18 545.268 596.726 545.133 597.342 545.133C597.795 545.133 598.189 545.203 598.525 545.343C598.866 545.483 599.153 545.672 599.386 545.91C599.624 546.148 599.816 546.421 599.96 546.729C600.105 547.032 600.21 547.357 600.275 547.702C600.341 548.043 600.373 548.383 600.373 548.724V552.882H599.337ZM593.87 552.882V545.322H594.801V547.184H594.906V552.882H593.87ZM605.334 553.092C604.597 553.092 603.958 552.929 603.416 552.602C602.88 552.275 602.462 551.816 602.163 551.223C601.865 550.63 601.715 549.935 601.715 549.137C601.715 548.311 601.862 547.597 602.156 546.995C602.45 546.393 602.863 545.929 603.395 545.602C603.932 545.275 604.564 545.112 605.292 545.112C606.039 545.112 606.676 545.285 607.203 545.63C607.731 545.971 608.13 546.461 608.4 547.1C608.671 547.739 608.795 548.502 608.771 549.389H607.721V549.025C607.703 548.045 607.49 547.305 607.084 546.806C606.683 546.307 606.095 546.057 605.32 546.057C604.508 546.057 603.885 546.321 603.451 546.848C603.022 547.375 602.807 548.127 602.807 549.102C602.807 550.054 603.022 550.794 603.451 551.321C603.885 551.844 604.499 552.105 605.292 552.105C605.834 552.105 606.305 551.981 606.706 551.734C607.112 551.482 607.432 551.12 607.665 550.649L608.624 551.02C608.326 551.678 607.885 552.189 607.301 552.553C606.723 552.912 606.067 553.092 605.334 553.092ZM602.443 549.389V548.528H608.218V549.389H602.443Z" fill="#2257BF"/>
<defs>
<filter id="filter0_b_46_1211" x="427.589" y="247.573" width="271" height="362.841" filterUnits="userSpaceOnUse" color-interpolation-filters="sRGB">
<feFlood flood-opacity="0" result="BackgroundImageFix"/>
<feGaussianBlur in="BackgroundImageFix" stdDeviation="5"/>
<feComposite in2="SourceAlpha" operator="in" result="effect1_backgroundBlur_46_1211"/>
<feBlend mode="normal" in="SourceGraphic" in2="effect1_backgroundBlur_46_1211" result="shape"/>
</filter>
<clipPath id="clip0_46_1211">
<rect width="663" height="575" fill="white" transform="translate(0 0.669434)"/>
</clipPath>
</defs>
</svg>
