<svg width="101" height="100" viewBox="0 0 101 100" fill="none" xmlns="http://www.w3.org/2000/svg">
<path d="M100.603 88.8994C100.603 91.8463 99.4335 94.6724 97.3511 96.7562C95.2687 98.8399 92.4444 100.011 89.4994 100.011H11.2018C8.40774 100.011 5.7281 98.8999 3.75237 96.9229C1.77663 94.9459 0.666656 92.2646 0.666656 89.4687V10.5419C0.666656 7.74598 1.77663 5.06462 3.75237 3.08764C5.7281 1.11066 8.40774 0 11.2018 0H90.0682C92.8624 0 95.5421 1.11066 97.5178 3.08764C99.4935 5.06462 100.603 7.74598 100.603 10.5419V88.8994Z" fill="#2257BF"/>
<path style="mix-blend-mode:multiply" opacity="0.5" d="M17.8495 77.9886L39.4046 99.7259L89.4677 99.9578C90.9291 99.9634 92.3772 99.6805 93.7292 99.1254C95.0812 98.5703 96.3105 97.7538 97.3468 96.7227C98.3831 95.6917 99.206 94.4663 99.7684 93.1166C100.331 91.7669 100.622 90.3195 100.625 88.8572V54.3537L76.3936 30.3921L71.874 28.3576L60.6856 16.4136L50.6245 19.1861V28.3576L21.2103 52.6987L28.6481 60.3521L17.8495 77.9886Z" fill="url(#paint0_linear_46_333)"/>
<path d="M59.9376 60.3521H56.7455V88.6359H59.9376V60.3521Z" fill="#828282"/>
<path d="M77.9422 34.4192V60.3521H43.1129L32.6831 56.3146V33.4177C32.6831 32.0775 33.2144 30.792 34.1605 29.8434C35.1066 28.8947 36.3901 28.3604 37.7294 28.3576H71.8845C72.68 28.3576 73.4677 28.5144 74.2027 28.819C74.9377 29.1236 75.6055 29.5701 76.168 30.133C76.7305 30.6959 77.1767 31.3641 77.4811 32.0995C77.7856 32.8349 77.9422 33.6232 77.9422 34.4192Z" fill="#D1D3D4"/>
<path d="M43.0287 37.7082H77.9422V34.4297C77.9436 34.0765 77.9155 33.7239 77.858 33.3755H43.0287V37.7082Z" fill="#E6E7E8"/>
<path d="M77.858 33.4177C77.6713 32.3255 77.1905 31.305 76.4673 30.4659H33.6523C33.0213 31.3204 32.6816 32.3552 32.6831 33.4177H77.858Z" fill="white"/>
<path d="M43.1129 34.4192V60.3521L32.6831 56.3146V33.4177C32.6847 32.1188 33.1874 30.8707 34.0864 29.9338C34.9854 28.9969 36.2113 28.4436 37.5082 28.3892C39.0305 28.501 40.4543 29.1846 41.4938 30.303C42.5333 31.4214 43.1117 32.8918 43.1129 34.4192Z" fill="#BCBEC0"/>
<path d="M50.7088 34.4192V60.3521H49.6553V34.4192C49.6553 31.362 47.169 28.3576 44.1032 28.3576H46.6317C47.834 28.8515 48.863 29.691 49.5887 30.7699C50.3143 31.8488 50.7041 33.1187 50.7088 34.4192Z" fill="#BCBEC0"/>
<path d="M52.2891 38.6359C52.2891 39.2197 52.1161 39.7903 51.792 40.2757C51.4679 40.7611 51.0071 41.1395 50.4681 41.3629C49.9291 41.5863 49.336 41.6448 48.7638 41.5309C48.1916 41.417 47.6659 41.1358 47.2534 40.723C46.8408 40.3102 46.5599 39.7843 46.4461 39.2117C46.3323 38.6391 46.3907 38.0456 46.614 37.5063C46.8372 36.9669 47.2153 36.5059 47.7004 36.1816C48.1855 35.8573 48.7558 35.6841 49.3393 35.6841C50.1208 35.6869 50.8695 35.9988 51.4221 36.5518C51.9747 37.1047 52.2863 37.8539 52.2891 38.6359Z" fill="#939598"/>
<path d="M50.7088 38.6359C50.7088 38.9154 50.5978 39.1836 50.4002 39.3813C50.2026 39.579 49.9347 39.69 49.6553 39.69H49.0232C48.7438 39.69 48.4758 39.579 48.2782 39.3813C48.0806 39.1836 47.9697 38.9154 47.9697 38.6359V16.4136H50.7088V38.6359Z" fill="#D3321E"/>
<path d="M60.7067 16.4136H48.0223V23.6559H60.7067V16.4136Z" fill="#D3321E"/>
<path d="M18.4184 78.6317C20.3569 80.2235 24.0653 79.8018 25.9722 77.8937L43.1129 60.3521L32.6831 56.3146L18.724 70.3985C16.4695 72.6544 15.6371 75.8486 18.4184 78.6317Z" fill="#D1D3D4"/>
<path d="M33.6945 55.6188V33.4177C33.6956 32.3888 34.0903 31.3993 34.7976 30.6524C35.5048 29.9055 36.471 29.4578 37.4977 29.4012C38.7516 29.5141 39.9184 30.0909 40.7698 31.0189C41.6213 31.947 42.0962 33.1594 42.1016 34.4192V58.8763L33.6945 55.6188Z" fill="#939598"/>
<path d="M42.1121 37.3814V57.3477L31.6717 55.0284L21.2524 52.6882L25.4981 33.6707L31.6717 35.0516L42.1121 37.3814Z" fill="#E6E7E8"/>
<path d="M42.1121 42.7999H34.0316V57.3477H42.1121V42.7999Z" fill="#F1F2F2"/>
<path d="M72.3903 34.4192V60.3521H71.3367V34.4192C71.3367 31.362 68.8504 28.3576 65.7847 28.3576H68.3026C69.5077 28.8487 70.5397 29.6872 71.2675 30.7665C71.9953 31.8458 72.3861 33.1172 72.3903 34.4192Z" fill="#BCBEC0"/>
<defs>
<linearGradient id="paint0_linear_46_333" x1="17.8495" y1="58.1804" x2="100.667" y2="58.1804" gradientUnits="userSpaceOnUse">
<stop stop-color="#A0A0A0"/>
<stop offset="1" stop-color="#C8C8C8"/>
</linearGradient>
</defs>
</svg>
