<svg width="41" height="41" viewBox="0 0 41 41" fill="none" xmlns="http://www.w3.org/2000/svg">
<g clip-path="url(#clip0_46_1553)">
<path d="M40.3499 35.8514C40.3499 37.03 39.8817 38.1604 39.0483 38.9938C38.2149 39.8272 37.0845 40.2954 35.9059 40.2954H4.57042C3.45219 40.2954 2.37976 39.8512 1.58905 39.0605C0.798338 38.2698 0.354126 37.1973 0.354126 36.0791V4.5117C0.354126 3.39347 0.798338 2.32104 1.58905 1.53033C2.37976 0.739626 3.45219 0.29541 4.57042 0.29541H36.1336C37.2518 0.29541 38.3243 0.739626 39.115 1.53033C39.9057 2.32104 40.3499 3.39347 40.3499 4.5117V35.8514Z" fill="#688B9E"/>
<path style="mix-blend-mode:multiply" opacity="0.5" d="M15.2798 27.773L27.6167 40.2364L35.8848 40.2743C36.4705 40.2771 37.051 40.1642 37.5929 39.942C38.1349 39.7199 38.6276 39.3929 39.0428 38.9799C39.4575 38.567 39.7865 38.0761 40.0108 37.5356C40.2351 36.9951 40.3504 36.4155 40.3499 35.8303V16.6335L32.6847 9.04419L7.1297 15.1915L13.8758 21.8828L15.2798 27.773Z" fill="url(#paint0_linear_46_1553)"/>
<path d="M32.6847 9.03162L7.1297 15.179L13.7999 21.4739L32.6847 9.03162Z" fill="#E6E7E8"/>
<path d="M15.2798 27.7688L13.7999 21.4739L32.6847 9.03162L15.2798 27.7688Z" fill="#D1D3D4"/>
<path d="M26.3898 34.2872L32.6847 9.03162L16.9832 24.1428L26.3898 34.2872Z" fill="#E6E7E8"/>
<path d="M15.2798 27.7688L16.9832 24.1428L17.818 25.0409L15.2798 27.7688Z" fill="#BCBEC0"/>
</g>
<defs>
<linearGradient id="paint0_linear_46_1553" x1="7.1297" y1="24.6529" x2="40.3499" y2="24.6529" gradientUnits="userSpaceOnUse">
<stop stop-color="#A0A0A0"/>
<stop offset="1" stop-color="#C8C8C8"/>
</linearGradient>
<clipPath id="clip0_46_1553">
<rect width="40" height="40" fill="white" transform="translate(0.354126 0.29541)"/>
</clipPath>
</defs>
</svg>
